{
.formatVersion = 3;
classes = (
{
code = "zero one two three four five six seven eight nine";
name = ordn;
}
);
familyName = "Ge示ez Handwriting";
customParameters = (
{
name = glyphOrder;
value = (
.notdef,
space,
exclam,
quotedbl,
numbersign,
dollar,
percent,
ampersand,
quotesingle,
parenleft,
parenright,
asterisk,
plus,
comma,
hyphen,
period,
slash,
zero,
one,
two,
three,
four,
five,
six,
seven,
eight,
nine,
colon,
semicolon,
less,
equal,
greater,
question,
at,
A,
B,
C,
D,
E,
F,
G,
H,
I,
J,
K,
L,
M,
N,
O,
P,
Q,
R,
S,
T,
U,
V,
W,
X,
Y,
Z,
bracketleft,
backslash,
bracketright,
asciicircum,
underscore,
grave,
a,
b,
c,
d,
e,
f,
g,
h,
i,
j,
k,
l,
m,
n,
o,
p,
q,
r,
s,
t,
u,
v,
w,
x,
y,
z,
braceleft,
bar,
braceright,
asciitilde,
uni007F,
uni00A0,
exclamdown,
cent,
sterling,
yen,
section,
dieresis,
copyright,
ordfeminine,
guillemotleft,
logicalnot,
registered,
macron,
degree,
plusminus,
acute,
mu,
paragraph,
periodcentered,
cedilla,
ordmasculine,
guillemotright,
questiondown,
Agrave,
Aacute,
Acircumflex,
Atilde,
Adieresis,
Aring,
AE,
Ccedilla,
Egrave,
Eacute,
Ecircumflex,
Edieresis,
Igrave,
Iacute,
Icircumflex,
Idieresis,
Ntilde,
Ograve,
Oacute,
Ocircumflex,
Otilde,
Odieresis,
Oslash,
Ugrave,
Uacute,
Ucircumflex,
Udieresis,
germandbls,
agrave,
aacute,
acircumflex,
atilde,
adieresis,
aring,
ae,
ccedilla,
egrave,
eacute,
ecircumflex,
edieresis,
igrave,
iacute,
icircumflex,
idieresis,
ntilde,
ograve,
oacute,
ocircumflex,
otilde,
odieresis,
divide,
oslash,
ugrave,
uacute,
ucircumflex,
udieresis,
ydieresis,
OE,
oe,
Ydieresis,
florin,
circumflex,
tilde,
uni03A9,
pi,
uni1200,
uni1201,
uni1202,
uni1203,
uni1204,
uni1205,
uni1206,
uni1207,
uni1208,
uni1209,
uni120A,
uni120B,
uni120C,
uni120D,
uni120E,
uni120F,
uni1210,
uni1211,
uni1212,
uni1213,
uni1214,
uni1215,
uni1216,
uni1217,
uni1218,
uni1219,
uni121A,
uni121B,
uni121C,
uni121D,
uni121E,
uni121F,
uni1220,
uni1221,
uni1222,
uni1223,
uni1224,
uni1225,
uni1226,
uni1227,
uni1228,
uni1229,
uni122A,
uni122B,
uni122C,
uni122D,

glyphs = (
{
glyphname = .notdef;
layers = (
{
layerId = "F770CFF7-FFB9-4382-B2D4-F3546B3D0D49";
shapes = (
{
closed = 1;
nodes = (
(768,128,l),
(768,1434,l),
(256,1434,l),
(256,128,l)
);
},
{
closed = 1;
nodes = (
(128,1562,l),
(896,1562,l),
(896,0,l),
(128,0,l)
);
}
);
width = 1024;
}
);
},
{
glyphname = exclam;
layers = (
{
layerId = "F770CFF7-FFB9-4382-B2D4-F3546B3D0D49";
shapes = (
{
closed = 1;
nodes = (
(270,0,o),
(211,0,qs),
(152,0,o),
(152,59,qs),
(152,119,o),
(211,119,qs),
(270,119,o),
(270,59,qs)
);
},
{
closed = 1;
nodes = (
(262,358,ls),
(262,335,o),
(237,309,o),
(211,307,q),
(185,309,o),
(160,335,o),
(160,358,qs),
(160,1280,ls),
(160,1328,o),
(211,1331,q),
(262,1328,o),
(262,1280,qs)
);
}
);
width = 819;
}
);
unicode = 33;
},
{
glyphname = quotedbl;
layers = (
{
layerId = "F770CFF7-FFB9-4382-B2D4-F3546B3D0D49";
shapes = (
{
closed = 1;
nodes = (
(205,1040,ls),
(205,1017,o),
(180,991,o),
(154,989,q),
(128,991,o),
(102,1017,o),
(102,1040,qs),
(102,1280,ls),
(102,1328,o),
(154,1331,q),
(205,1328,o),
(205,1280,qs)
);
},
{
closed = 1;
nodes = (
(410,1040,ls),
(410,1017,o),
(384,991,o),
(358,989,q),
(332,991,o),
(307,1017,o),
(307,1040,qs),
(307,1280,ls),
(307,1328,o),
(358,1331,q),
(410,1328,o),
(410,1280,qs)
);
}
);
width = 512;
}
);
unicode = 34;
},
{
glyphname = numbersign;
layers = (
{
layerId = "F770CFF7-FFB9-4382-B2D4-F3546B3D0D49";
shapes = (
{
closed = 1;
nodes = (
(1093,870,o),
(1051,870,qs),
(809,870,l),
(762,596,l),
(999,596,ls),
(1041,596,o),
(1044,549,q),
(1041,504,o),
(999,504,qs),
(745,504,l),
(686,164,ls),
(679,124,o),
(633,127,q),
(588,139,o),
(596,180,q),
(651,504,l),
(379,504,l),
(319,164,ls),
(312,124,o),
(266,127,q),
(221,139,o),
(229,180,q),
(285,504,l),
(80,504,ls),
(36,504,o),
(33,549,q),
(36,596,o),
(80,596,qs),
(301,596,l),
(350,870,l),
(131,870,ls),
(87,870,o),
(84,915,q),
(87,963,o),
(131,963,qs),
(367,963,l),
(422,1288,ls),
(429,1330,o),
(475,1327,q),
(522,1315,o),
(514,1274,q),
(459,963,l),
(733,963,l),
(791,1288,ls),
(798,1330,o),
(844,1327,q),
(865,1321,o),
(885,1294,o),
(881,1274,qs),
(825,963,l),
(1051,963,ls),
(1093,963,o),
(1096,915,q)
);
},
{
closed = 1;
nodes = (
(717,870,l),
(442,870,l),
(395,596,l),
(668,596,l)
);
}
);
width = 1331;
}
);
unicode = 35;
},
{
glyphname = dollar;
layers = (
{
layerId = "F770CFF7-FFB9-4382-B2D4-F3546B3D0D49";
shapes = (
{
closed = 1;
nodes = (
(1069,328,o),
(1019,220,o),
(935,139,o),
(824,88,o),
(764,82,q),
(764,51,ls),
(764,-2,o),
(713,-2,qs),
(662,-2,o),
(662,51,qs),
(662,84,l),
(609,89,o),
(501,129,o),
(415,196,o),
(361,290,o),
(362,350,qs),
(363,401,o),
(414,401,qs),
(465,401,o),
(465,350,qs),
(465,297,o),
(512,252,qs),
(569,197,o),
(662,186,q),
(662,664,l),
(602,685,o),
(504,734,o),
(434,803,o),
(395,901,o),
(395,971,qs),
(395,1029,o),
(437,1125,o),
(510,1197,o),
(607,1242,o),
(662,1249,q),
(662,1284,ls),
(662,1337,o),
(713,1337,qs),
(764,1337,o),
(764,1284,qs),
(764,1249,l),
(815,1242,o),
(910,1200,o),
(984,1133,o),
(1029,1043,o),
(1028,987,qs),
(1027,936,o),
(977,936,qs),
(926,936,o),
(926,987,qs),
(926,1014,o),
(902,1065,o),
(860,1108,o),
(800,1139,o),
(764,1145,q),
(764,733,l),
(842,704,o),
(947,654,o),
(973,631,qs),
(1069,546,o),
(1069,391,qs)
);
},
{
closed = 1;
nodes = (
(967,445,o),
(938,519,o),
(884,571,o),
(809,608,o),
(764,625,q),
(764,186,l),
(807,192,o),
(881,228,o),
(936,282,o),
(967,352,o),
(967,391,qs)
);
},
{
closed = 1;
nodes = (
(662,1145,l),
(625,1139,o),
(564,1107,o),
(521,1062,o),
(498,1004,o),
(498,971,qs),
(498,928,o),
(522,866,o),
(565,821,o),
(626,787,o),
(662,772,q)
);
}
);
width = 1434;
}
);
unicode = 36;
},
{
glyphname = percent;
layers = (
{
layerId = "F770CFF7-FFB9-4382-B2D4-F3546B3D0D49";
shapes = (
{
closed = 1;
nodes = (
(995,207,o),
(959,123,o),
(897,61,o),
(813,25,o),
(764,25,qs),
(716,25,o),
(632,61,o),
(570,123,o),
(535,208,o),
(535,256,qs),
(535,304,o),
(570,389,o),
(632,451,o),
(716,487,o),
(764,487,qs),
(813,487,o),
(897,451,o),
(959,389,o),
(995,305,o),
(995,256,qs)
);
},
{
closed = 1;
nodes = (
(309,29,ls),
(295,-2,o),
(266,-2,qs),
(213,-2,o),
(213,47,qs),
(213,60,o),
(219,70,q),
(780,1288,ls),
(794,1319,o),
(823,1319,qs),
(877,1319,o),
(877,1270,qs),
(877,1258,o),
(870,1247,q)
);
},
{
closed = 1;
nodes = (
(565,1013,o),
(529,928,o),
(467,865,o),
(383,829,o),
(334,829,qs),
(286,829,o),
(201,865,o),
(138,928,o),
(102,1013,o),
(102,1061,qs),
(102,1110,o),
(138,1194,o),
(201,1256,o),
(286,1292,o),
(334,1292,qs),
(383,1292,o),
(467,1256,o),
(529,1194,o),
(565,1110,o),
(565,1061,qs)
);
},
{
closed = 1;
nodes = (
(893,283,o),
(873,330,o),
(838,365,o),
(791,385,o),
(764,385,qs),
(737,385,o),
(690,365,o),
(655,330,o),
(635,283,o),
(635,256,qs),
(635,229,o),
(655,182,o),
(690,147,o),
(737,127,o),
(764,127,qs),
(791,127,o),
(838,147,o),
(873,182,o),
(893,229,o),
(893,256,qs)
);
},
{
closed = 1;
nodes = (
(463,1088,o),
(443,1135,o),
(408,1170,o),
(361,1190,o),
(334,1190,qs),
(307,1190,o),
(260,1170,o),
(225,1135,o),
(205,1088,o),
(205,1061,qs),
(205,1034,o),
(225,987,o),
(260,952,o),
(307,932,o),
(334,932,qs),
(361,932,o),
(408,952,o),
(443,987,o),
(463,1034,o),
(463,1061,qs)
);
}
);
width = 1126;
}
);
unicode = 37;
},
{
glyphname = ampersand;
layers = (
{
layerId = "F770CFF7-FFB9-4382-B2D4-F3546B3D0D49";
shapes = (
{
closed = 1;
nodes = (
(1192,88,ls),
(1204,75,o),
(1204,55,qs),
(1204,4,o),
(1153,4,qs),
(1130,4,o),
(1114,23,qs),
(1100,38,o),
(1019,129,o),
(950,205,q),
(779,0,o),
(553,0,qs),
(474,0,o),
(345,51,o),
(253,144,o),
(203,273,o),
(203,352,qs),
(203,425,o),
(255,538,o),
(340,630,o),
(448,704,o),
(504,737,q),
(432,840,o),
(358,993,o),
(358,1044,qs),
(358,1107,o),
(402,1212,o),
(479,1288,o),
(585,1331,o),
(647,1331,qs),
(705,1331,o),
(801,1288,o),
(870,1213,o),
(909,1113,o),
(909,1057,qs),
(909,992,o),
(866,890,o),
(794,808,o),
(701,741,o),
(651,711,q),
(705,639,o),
(848,469,o),
(938,369,q),
(991,465,o),
(1020,586,qs),
(1029,625,o),
(1067,625,qs),
(1092,625,o),
(1125,590,o),
(1118,561,qs),
(1101,484,o),
(1047,349,o),
(1012,289,q)
);
},
{
closed = 1;
nodes = (
(778,393,o),
(620,582,o),
(563,657,q),
(305,498,o),
(305,352,qs),
(305,296,o),
(341,204,o),
(406,138,o),
(497,102,o),
(553,102,qs),
(735,102,o),
(881,281,q)
);
},
{
closed = 1;
nodes = (
(811,1089,o),
(783,1150,o),
(737,1199,o),
(678,1229,o),
(647,1229,qs),
(604,1229,o),
(535,1200,o),
(487,1149,o),
(461,1082,o),
(461,1044,qs),
(461,970,o),
(592,791,q),
(811,927,o),
(811,1059,qs)
);
}
);
width = 1331;
}
);
unicode = 38;
},
{
glyphname = quotesingle;
layers = (
{
layerId = "F770CFF7-FFB9-4382-B2D4-F3546B3D0D49";
shapes = (
{
closed = 1;
nodes = (
(205,1040,ls),
(205,1017,o),
(180,991,o),
(154,989,q),
(128,991,o),
(102,1017,o),
(102,1040,qs),
(102,1280,ls),
(102,1328,o),
(154,1331,q),
(205,1328,o),
(205,1280,qs)
);
}
);
width = 307;
}
);
unicode = 39;
},
{
glyphname = parenleft;
layers = (
{
layerId = "F770CFF7-FFB9-4382-B2D4-F3546B3D0D49";
shapes = (
{
closed = 1;
nodes = (
(475,0,o),
(461,14,q),
(438,42,o),
(393,96,o),
(371,123,qs),
(323,181,o),
(247,314,o),
(195,458,o),
(168,609,o),
(168,684,qs),
(168,837,o),
(274,1127,o),
(371,1245,q),
(394,1271,o),
(438,1326,o),
(461,1354,q),
(475,1368,o),
(498,1368,qs),
(549,1368,o),
(549,1317,qs),
(549,1297,o),
(535,1280,qs),
(483,1221,o),
(385,1095,o),
(350,1024,qs),
(311,942,o),
(270,774,o),
(270,684,qs),
(270,594,o),
(310,426,o),
(350,344,qs),
(390,263,o),
(535,88,q),
(549,74,o),
(549,51,qs),
(549,0,o),
(498,0,qs)
);
}
);
width = 717;
}
);
unicode = 40;
},
{
glyphname = parenright;
layers = (
{
layerId = "F770CFF7-FFB9-4382-B2D4-F3546B3D0D49";
shapes = (
{
closed = 1;
nodes = (
(547,610,o),
(520,459,o),
(468,314,o),
(392,180,o),
(344,123,qs),
(252,14,ls),
(245,6,o),
(228,0,o),
(217,0,qs),
(166,0,o),
(166,51,qs),
(166,71,o),
(180,88,qs),
(231,148,o),
(330,273,o),
(365,344,qs),
(406,425,o),
(444,594,o),
(444,684,qs),
(444,862,o),
(365,1024,qs),
(345,1066,o),
(252,1192,o),
(180,1280,q),
(166,1294,o),
(166,1317,qs),
(166,1368,o),
(217,1368,qs),
(228,1368,o),
(245,1362,o),
(252,1354,qs),
(344,1245,ls),
(392,1188,o),
(468,1054,o),
(520,909,o),
(547,758,o),
(547,684,qs)
);
}
);
width = 717;
}
);
unicode = 41;
},
{
glyphname = asterisk;
layers = (
{
layerId = "F770CFF7-FFB9-4382-B2D4-F3546B3D0D49";
shapes = (
{
closed = 1;
nodes = (
(783,1145,o),
(743,1122,qs),
(614,1047,l),
(743,973,ls),
(783,951,o),
(762,903,q),
(745,877,o),
(719,877,qs),
(707,877,o),
(692,885,qs),
(563,958,l),
(563,811,ls),
(563,763,o),
(512,760,q),
(461,763,o),
(461,811,qs),
(461,958,l),
(332,885,ls),
(317,877,o),
(305,877,qs),
(282,877,o),
(262,903,q),
(241,950,o),
(281,973,qs),
(410,1049,l),
(281,1122,ls),
(241,1144,o),
(262,1192,q),
(280,1219,o),
(305,1219,qs),
(316,1219,o),
(332,1210,qs),
(461,1137,l),
(461,1284,ls),
(461,1332,o),
(512,1335,q),
(563,1332,o),
(563,1284,qs),
(563,1137,l),
(692,1210,ls),
(709,1219,o),
(719,1219,qs),
(744,1219,o),
(762,1192,q)
);
}
);
width = 1024;
}
);
unicode = 42;
},
{
glyphname = plus;
layers = (
{
layerId = "F770CFF7-FFB9-4382-B2D4-F3546B3D0D49";
shapes = (
{
closed = 1;
nodes = (
(893,662,o),
(867,637,o),
(844,637,qs),
(563,637,l),
(563,356,ls),
(563,333,o),
(538,307,o),
(512,305,q),
(486,307,o),
(461,333,o),
(461,356,qs),
(461,637,l),
(180,637,ls),
(157,637,o),
(131,662,o),
(129,688,q),
(131,714,o),
(157,739,o),
(180,739,qs),
(461,739,l),
(461,1020,ls),
(461,1068,o),
(512,1071,q),
(563,1068,o),
(563,1020,qs),
(563,739,l),
(844,739,ls),
(867,739,o),
(893,714,o),
(895,688,q)
);
}
);
width = 1024;
}
);
unicode = 43;
},
{
glyphname = comma;
layers = (
{
layerId = "F770CFF7-FFB9-4382-B2D4-F3546B3D0D49";
shapes = (
{
closed = 1;
nodes = (
(186,88,o),
(186,55,qs),
(186,34,o),
(169,-14,o),
(140,-56,o),
(104,-88,o),
(86,-94,q),
(55,-79,o),
(55,-55,q),
(96,0,l),
(61,19,o),
(61,55,qs),
(61,121,o),
(119,121,qs),
(151,121,o),
(166,109,q)
);
}
);
width = 307;
}
);
unicode = 44;
},
{
glyphname = hyphen;
layers = (
{
layerId = "F770CFF7-FFB9-4382-B2D4-F3546B3D0D49";
shapes = (
{
closed = 1;
nodes = (
(902,637,o),
(854,637,qs),
(172,637,ls),
(124,637,o),
(121,688,q),
(124,739,o),
(172,739,qs),
(854,739,ls),
(902,739,o),
(905,688,q)
);
}
);
width = 1024;
}
);
unicode = 45;
},
{
glyphname = period;
layers = (
{
layerId = "F770CFF7-FFB9-4382-B2D4-F3546B3D0D49";
shapes = (
{
closed = 1;
nodes = (
(180,0,o),
(121,0,qs),
(61,0,o),
(61,59,qs),
(61,119,o),
(121,119,qs),
(180,119,o),
(180,59,qs)
);
}
);
width = 307;
}
);
unicode = 46;
},
{
glyphname = slash;
layers = (
{
layerId = "F770CFF7-FFB9-4382-B2D4-F3546B3D0D49";
shapes = (
{
closed = 1;
nodes = (
(846,1243,o),
(840,1231,qs),
(276,25,ls),
(262,-6,o),
(234,-6,qs),
(213,-6,o),
(178,22,o),
(178,45,qs),
(178,55,o),
(184,68,qs),
(748,1274,ls),
(762,1304,o),
(789,1304,qs),
(809,1304,o),
(846,1277,o),
(846,1255,qs)
);
}
);
width = 1024;
}
);
unicode = 47;
},
{
glyphname = zero;
layers = (
{
layerId = "F770CFF7-FFB9-4382-B2D4-F3546B3D0D49";
shapes = (
{
closed = 1;
nodes = (
(979,606,o),
(957,448,o),
(910,297,o),
(836,161,o),
(729,60,o),
(589,0,o),
(500,0,qs),
(414,0,o),
(280,62,o),
(180,166,o),
(110,303,o),
(66,454,o),
(47,609,o),
(47,678,qs),
(47,924,o),
(150,1108,qs),
(275,1333,o),
(500,1333,qs),
(588,1333,o),
(727,1278,o),
(833,1182,o),
(909,1054,o),
(957,909,o),
(979,754,o),
(979,680,qs)
);
},
{
closed = 1;
nodes = (
(877,734,o),
(859,860,o),
(821,982,o),
(761,1094,o),
(677,1179,o),
(568,1229,o),
(500,1229,qs),
(329,1229,o),
(229,1028,qs),
(150,869,o),
(150,676,qs),
(150,624,o),
(165,498,o),
(198,370,o),
(252,250,o),
(329,158,o),
(433,102,o),
(500,102,qs),
(679,102,o),
(788,309,qs),
(877,479,o),
(877,678,qs)
);
}
);
width = 1024;
}
);
unicode = 48;
},
{
glyphname = one;
layers = (
{
layerId = "F770CFF7-FFB9-4382-B2D4-F3546B3D0D49";
shapes = (
{
closed = 1;
nodes = (
(563,51,ls),
(563,3,o),
(512,0,q),
(461,3,o),
(461,51,qs),
(461,1284,ls),
(461,1332,o),
(512,1335,q),
(563,1332,o),
(563,1284,qs)
);
}
);
width = 1024;
}
);
unicode = 49;
},
{
glyphname = two;
layers = (
{
layerId = "F770CFF7-FFB9-4382-B2D4-F3546B3D0D49";
shapes = (
{
closed = 1;
nodes = (
(880,0,o),
(831,0,qs),
(193,0,ls),
(147,0,o),
(141,18,q),
(110,54,o),
(141,98,qs),
(621,786,l),
(696,924,ls),
(710,950,o),
(723,1001,o),
(723,1026,qs),
(723,1073,o),
(690,1148,o),
(632,1201,o),
(550,1229,o),
(502,1229,qs),
(448,1229,o),
(372,1206,o),
(315,1159,o),
(272,1090,o),
(252,1044,q),
(230,1022,o),
(207,1022,qs),
(187,1022,o),
(156,1053,o),
(158,1073,q),
(177,1134,o),
(244,1230,o),
(335,1296,o),
(446,1331,o),
(510,1331,qs),
(575,1331,o),
(690,1290,o),
(776,1213,o),
(827,1105,o),
(827,1038,qs),
(827,903,o),
(737,774,qs),
(270,102,l),
(831,102,ls),
(880,102,o),
(883,51,q)
);
}
);
width = 1024;
}
);
unicode = 50;
},
{
glyphname = three;
layers = (
{
layerId = "F770CFF7-FFB9-4382-B2D4-F3546B3D0D49";
shapes = (
{
closed = 1;
nodes = (
(879,296,o),
(820,157,o),
(718,56,o),
(579,-2,o),
(498,-2,qs),
(444,-2,o),
(320,44,o),
(216,122,o),
(147,227,o),
(147,287,qs),
(147,344,o),
(201,344,qs),
(215,344,o),
(238,331,o),
(246,317,q),
(254,272,o),
(300,194,o),
(368,137,o),
(452,104,o),
(498,104,qs),
(555,104,o),
(656,147,o),
(731,222,o),
(774,322,o),
(774,379,qs),
(774,433,o),
(725,526,o),
(646,595,o),
(545,635,o),
(494,635,qs),
(445,635,o),
(430,641,qs),
(397,653,o),
(397,696,qs),
(397,739,o),
(434,750,qs),
(440,752,o),
(471,754,o),
(494,754,qs),
(774,754,o),
(774,1004,qs),
(774,1057,o),
(724,1141,o),
(644,1199,o),
(546,1229,o),
(498,1229,qs),
(453,1229,o),
(368,1195,o),
(300,1137,o),
(254,1058,o),
(246,1014,q),
(238,1001,o),
(215,989,o),
(201,989,qs),
(147,989,o),
(147,1044,qs),
(147,1158,o),
(268,1247,qs),
(323,1288,o),
(444,1331,o),
(513,1331,qs),
(584,1331,o),
(716,1285,o),
(818,1200,o),
(879,1079,o),
(879,1004,qs),
(879,960,o),
(857,858,o),
(812,765,o),
(742,695,o),
(694,684,q),
(879,564,o),
(879,377,qs)
);
}
);
width = 1024;
}
);
unicode = 51;
},
{
glyphname = four;
layers = (
{
layerId = "F770CFF7-FFB9-4382-B2D4-F3546B3D0D49";
shapes = (
{
closed = 1;
nodes = (
(919,633,o),
(870,633,qs),
(797,633,l),
(797,51,ls),
(797,3,o),
(745,0,q),
(694,3,o),
(694,51,qs),
(694,633,l),
(154,633,ls),
(102,633,o),
(102,682,qs),
(102,1284,ls),
(102,1332,o),
(154,1335,q),
(205,1332,o),
(205,1284,qs),
(205,735,l),
(694,735,l),
(694,1284,ls),
(694,1332,o),
(745,1335,q),
(797,1332,o),
(797,1284,qs),
(797,735,l),
(870,735,ls),
(919,735,o),
(922,684,q)
);
}
);
width = 1024;
}
);
unicode = 52;
},
{
glyphname = five;
layers = (
{
layerId = "F770CFF7-FFB9-4382-B2D4-F3546B3D0D49";
shapes = (
{
closed = 1;
nodes = (
(922,334,o),
(857,179,o),
(743,65,o),
(588,0,o),
(498,0,qs),
(437,0,o),
(324,34,o),
(226,96,o),
(146,184,o),
(119,238,qs),
(112,253,o),
(115,276,qs),
(117,298,o),
(146,320,o),
(167,320,qs),
(187,320,o),
(201,303,q),
(219,258,o),
(280,183,o),
(358,131,o),
(449,102,o),
(498,102,qs),
(566,102,o),
(683,152,o),
(770,239,o),
(819,356,o),
(819,424,qs),
(819,491,o),
(769,608,o),
(682,695,o),
(565,745,o),
(498,745,qs),
(330,745,o),
(233,606,q),
(227,568,o),
(182,565,q),
(156,567,o),
(131,593,o),
(131,616,qs),
(131,1276,ls),
(131,1327,o),
(182,1327,qs),
(805,1327,ls),
(856,1327,o),
(856,1276,qs),
(856,1225,o),
(805,1225,qs),
(233,1225,l),
(233,756,l),
(351,848,o),
(498,848,qs),
(588,848,o),
(743,783,o),
(857,669,o),
(922,514,o),
(922,424,qs)
);
}
);
width = 1024;
}
);
unicode = 53;
},
{
glyphname = six;
layers = (
{
layerId = "F770CFF7-FFB9-4382-B2D4-F3546B3D0D49";
shapes = (
{
closed = 1;
nodes = (
(821,475,o),
(772,587,o),
(688,671,o),
(575,719,o),
(512,719,qs),
(448,719,o),
(336,671,o),
(253,588,o),
(205,476,o),
(205,412,qs),
(205,347,o),
(252,234,o),
(335,150,o),
(447,102,o),
(512,102,qs),
(577,102,o),
(690,151,o),
(773,235,o),
(821,348,o),
(821,412,qs)
);
},
{
closed = 1;
nodes = (
(924,324,o),
(861,174,o),
(750,63,o),
(600,0,o),
(512,0,qs),
(424,0,o),
(274,63,o),
(164,173,o),
(102,324,o),
(102,412,qs),
(102,492,o),
(143,662,o),
(213,832,o),
(307,999,o),
(414,1153,o),
(529,1289,o),
(584,1343,q),
(592,1352,o),
(606,1352,qs),
(616,1352,o),
(639,1341,o),
(658,1325,o),
(670,1304,o),
(670,1294,qs),
(670,1286,o),
(664,1278,q),
(370,948,o),
(311,768,q),
(405,821,o),
(512,821,qs),
(599,821,o),
(749,758,o),
(860,649,o),
(924,499,o),
(924,412,qs)
);
}
);
width = 1024;
}
);
unicode = 54;
},
{
glyphname = seven;
layers = (
{
layerId = "F770CFF7-FFB9-4382-B2D4-F3546B3D0D49";
shapes = (
{
closed = 1;
nodes = (
(885,1273,o),
(876,1244,o),
(868,1227,qs),
(307,25,l),
(294,-5,o),
(264,-5,qs),
(251,-5,o),
(238,0,q),
(224,8,o),
(209,31,o),
(209,45,qs),
(209,50,o),
(211,61,o),
(213,68,q),
(756,1225,l),
(190,1225,ls),
(167,1225,o),
(141,1250,o),
(139,1276,q),
(141,1302,o),
(167,1327,o),
(190,1327,qs),
(834,1327,ls),
(885,1327,o),
(885,1284,qs)
);
}
);
width = 1024;
}
);
unicode = 55;
},
{
glyphname = eight;
layers = (
{
layerId = "F770CFF7-FFB9-4382-B2D4-F3546B3D0D49";
shapes = (
{
closed = 1;
nodes = (
(922,1278,o),
(907,1260,q),
(446,741,l),
(629,650,o),
(700,590,qs),
(764,536,o),
(827,408,o),
(827,336,qs),
(827,258,o),
(771,134,o),
(673,47,o),
(542,0,o),
(467,0,qs),
(386,0,o),
(252,55,o),
(156,153,o),
(102,289,o),
(102,369,qs),
(102,538,o),
(283,719,q),
(208,785,o),
(142,928,o),
(147,1004,q),
(153,1078,o),
(202,1198,o),
(286,1284,o),
(402,1331,o),
(475,1331,qs),
(601,1331,o),
(727,1208,q),
(831,1329,ls),
(846,1346,o),
(866,1346,qs),
(922,1346,o),
(922,1292,qs)
);
},
{
closed = 1;
nodes = (
(725,450,o),
(598,541,qs),
(583,552,o),
(470,613,o),
(373,664,q),
(205,511,o),
(205,369,qs),
(205,311,o),
(243,212,o),
(312,142,o),
(409,102,o),
(467,102,qs),
(517,102,o),
(610,136,o),
(682,197,o),
(725,284,o),
(725,336,qs)
);
},
{
closed = 1;
nodes = (
(659,1133,l),
(646,1151,o),
(602,1186,o),
(551,1213,o),
(498,1229,o),
(475,1229,qs),
(429,1229,o),
(347,1193,o),
(285,1132,o),
(248,1050,o),
(248,1004,qs),
(248,941,o),
(300,835,o),
(354,793,q)
);
}
);
width = 1024;
}
);
unicode = 56;
},
{
glyphname = nine;
layers = (
{
layerId = "F770CFF7-FFB9-4382-B2D4-F3546B3D0D49";
shapes = (
{
closed = 1;
nodes = (
(728,1021,o),
(685,1116,o),
(613,1187,o),
(518,1227,o),
(463,1227,qs),
(407,1227,o),
(309,1186,o),
(237,1114,o),
(195,1017,o),
(195,961,qs),
(195,904,o),
(236,806,o),
(308,733,o),
(406,692,o),
(463,692,qs),
(579,692,o),
(653,772,q),
(732,855,o),
(729,967,qs)
);
},
{
closed = 1;
nodes = (
(831,51,ls),
(831,3,o),
(780,0,q),
(729,3,o),
(729,51,qs),
(729,705,l),
(617,590,o),
(463,590,qs),
(384,590,o),
(248,646,o),
(148,746,o),
(92,882,o),
(92,961,qs),
(92,1039,o),
(149,1175,o),
(249,1274,o),
(385,1331,o),
(463,1331,qs),
(540,1331,o),
(675,1273,o),
(774,1173,o),
(831,1038,o),
(831,961,qs)
);
}
);
width = 1024;
}
);
unicode = 57;
},
{
glyphname = colon;
layers = (
{
layerId = "F770CFF7-FFB9-4382-B2D4-F3546B3D0D49";
shapes = (
{
closed = 1;
nodes = (
(170,0,o),
(111,0,qs),
(51,0,o),
(51,59,qs),
(51,119,o),
(111,119,qs),
(170,119,o),
(170,59,qs)
);
},
{
closed = 1;
nodes = (
(170,559,o),
(111,559,qs),
(51,559,o),
(51,618,qs),
(51,678,o),
(111,678,qs),
(170,678,o),
(170,618,qs)
);
}
);
width = 307;
}
);
unicode = 58;
},
{
glyphname = semicolon;
layers = (
{
layerId = "F770CFF7-FFB9-4382-B2D4-F3546B3D0D49";
shapes = (
{
closed = 1;
nodes = (
(176,92,o),
(176,61,qs),
(176,39,o),
(159,-9,o),
(130,-52,o),
(94,-84,o),
(76,-90,q),
(45,-75,o),
(45,-51,q),
(86,4,l),
(51,25,o),
(51,59,qs),
(51,125,o),
(109,125,qs),
(140,125,o),
(156,113,q)
);
},
{
closed = 1;
nodes = (
(170,559,o),
(111,559,qs),
(51,559,o),
(51,618,qs),
(51,678,o),
(111,678,qs),
(170,678,o),
(170,618,qs)
);
}
);
width = 307;
}
);
unicode = 59;
},
{
glyphname = less;
layers = (
{
layerId = "F770CFF7-FFB9-4382-B2D4-F3546B3D0D49";
shapes = (
{
closed = 1;
nodes = (
(788,297,o),
(762,287,o),
(748,289,q),
(743,291,o),
(733,294,o),
(727,299,q),
(264,635,ls),
(243,650,o),
(225,679,o),
(225,690,qs),
(225,699,o),
(243,726,o),
(264,741,qs),
(727,1075,l),
(733,1080,o),
(743,1083,o),
(748,1085,q),
(762,1087,o),
(788,1077,o),
(799,1063,q),
(823,1020,o),
(786,993,qs),
(365,688,l),
(786,383,ls),
(824,356,o),
(799,311,q)
);
}
);
width = 1024;
}
);
unicode = 60;
},
{
glyphname = equal;
layers = (
{
layerId = "F770CFF7-FFB9-4382-B2D4-F3546B3D0D49";
shapes = (
{
closed = 1;
nodes = (
(902,516,o),
(854,516,qs),
(172,516,ls),
(124,516,o),
(121,567,q),
(124,618,o),
(172,618,qs),
(854,618,ls),
(902,618,o),
(905,567,q)
);
},
{
closed = 1;
nodes = (
(900,762,o),
(852,762,qs),
(170,762,ls),
(122,762,o),
(119,813,q),
(122,864,o),
(170,864,qs),
(852,864,ls),
(900,864,o),
(903,813,q)
);
}
);
width = 1024;
}
);
unicode = 61;
},
{
glyphname = greater;
layers = (
{
layerId = "F770CFF7-FFB9-4382-B2D4-F3546B3D0D49";
shapes = (
{
closed = 1;
nodes = (
(799,679,o),
(781,650,o),
(760,635,qs),
(297,299,l),
(291,294,o),
(281,291,o),
(276,289,q),
(262,287,o),
(236,297,o),
(225,311,q),
(200,356,o),
(238,383,qs),
(659,688,l),
(238,993,ls),
(201,1020,o),
(225,1063,q),
(236,1077,o),
(262,1087,o),
(276,1085,q),
(281,1083,o),
(291,1080,o),
(297,1075,q),
(760,741,ls),
(781,726,o),
(799,699,o),
(799,690,qs)
);
}
);
width = 1024;
}
);
unicode = 62;
},
{
glyphname = question;
layers = (
{
layerId = "F770CFF7-FFB9-4382-B2D4-F3546B3D0D49";
shapes = (
{
closed = 1;
nodes = (
(475,0,o),
(416,0,qs),
(356,0,o),
(356,59,qs),
(356,119,o),
(416,119,qs),
(475,119,o),
(475,59,qs)
);
},
{
closed = 1;
nodes = (
(602,1021,o),
(532,874,qs),
(498,801,o),
(465,685,o),
(465,643,qs),
(465,348,ls),
(465,300,o),
(414,297,q),
(362,300,o),
(362,348,qs),
(362,655,ls),
(362,720,o),
(409,861,o),
(457,936,qs),
(502,1007,o),
(502,1104,qs),
(502,1129,o),
(481,1174,o),
(446,1209,o),
(400,1229,o),
(375,1229,qs),
(349,1229,o),
(303,1211,o),
(269,1179,o),
(249,1135,o),
(248,1108,qs),
(247,1057,o),
(197,1057,qs),
(188,1057,o),
(170,1065,o),
(156,1079,o),
(147,1095,o),
(147,1104,q),
(149,1151,o),
(185,1234,o),
(247,1295,o),
(328,1331,o),
(375,1331,qs),
(424,1331,o),
(507,1297,o),
(568,1236,o),
(602,1153,o),
(602,1104,qs)
);
}
);
width = 1024;
}
);
unicode = 63;
},
{
glyphname = at;
layers = (
{
layerId = "F770CFF7-FFB9-4382-B2D4-F3546B3D0D49";
shapes = (
{
closed = 1;
nodes = (
(1300,599,o),
(1258,459,o),
(1177,345,o),
(1060,272,o),
(985,272,qs),
(848,272,o),
(848,387,qs),
(848,395,o),
(850,411,o),
(852,422,q),
(782,272,o),
(637,272,qs),
(590,272,o),
(516,307,o),
(465,368,o),
(438,452,o),
(438,500,qs),
(438,559,o),
(481,686,o),
(559,792,o),
(668,860,o),
(733,860,qs),
(767,860,o),
(827,839,o),
(874,802,o),
(903,748,o),
(905,715,q),
(928,793,ls),
(940,836,o),
(989,836,qs),
(1045,836,o),
(1026,772,qs),
(950,522,ls),
(939,488,o),
(930,439,o),
(930,424,qs),
(930,362,o),
(993,362,qs),
(1031,362,o),
(1091,390,o),
(1138,438,o),
(1172,501,o),
(1194,569,o),
(1204,639,o),
(1204,670,qs),
(1204,765,o),
(1134,899,o),
(1016,986,o),
(861,1026,o),
(776,1026,qs),
(660,1026,o),
(463,961,o),
(319,835,o),
(238,649,o),
(238,528,qs),
(238,416,o),
(320,249,o),
(459,139,o),
(645,84,o),
(748,84,qs),
(848,84,o),
(1025,137,o),
(1106,188,qs),
(1132,205,o),
(1151,205,qs),
(1188,205,o),
(1188,164,qs),
(1188,143,o),
(1151,119,qs),
(965,0,o),
(729,0,qs),
(610,0,o),
(395,71,o),
(233,208,o),
(137,406,o),
(137,532,qs),
(137,667,o),
(236,882,o),
(407,1031,o),
(635,1110,o),
(764,1110,qs),
(869,1110,o),
(1062,1059,o),
(1211,951,o),
(1300,783,o),
(1300,666,qs)
);
},
{
closed = 1;
nodes = (
(840,702,o),
(823,745,o),
(793,777,o),
(752,795,o),
(727,795,qs),
(680,795,o),
(605,735,o),
(553,646,o),
(526,546,o),
(526,506,qs),
(526,362,o),
(635,362,qs),
(726,362,o),
(788,479,q),
(840,574,o),
(840,678,qs)
);
}
);
width = 1434;
}
);
unicode = 64;
},
{
glyphname = A;
layers = (
{
layerId = "F770CFF7-FFB9-4382-B2D4-F3546B3D0D49";
shapes = (
{
closed = 1;
nodes = (
(1008,688,l),
(768,1167,l),
(526,688,l)
);
},
{
closed = 1;
nodes = (
(1436,74,ls),
(1459,29,o),
(1413,6,qs),
(1397,-2,o),
(1385,-2,qs),
(1362,-2,o),
(1346,29,qs),
(1061,586,l),
(475,586,l),
(190,31,ls),
(175,1,o),
(150,1,qs),
(137,1,o),
(123,8,qs),
(76,31,o),
(100,78,qs),
(719,1296,ls),
(737,1331,o),
(766,1331,qs),
(798,1331,o),
(819,1290,qs)
);
}
);
width = 1536;
}
);
unicode = 65;
},
{
glyphname = B;
layers = (
{
layerId = "F770CFF7-FFB9-4382-B2D4-F3546B3D0D49";
shapes = (
{
closed = 1;
nodes = (
(1014,418,o),
(972,529,o),
(901,622,o),
(806,684,o),
(752,684,qs),
(205,684,l),
(205,102,l),
(737,102,ls),
(782,102,o),
(880,151,o),
(961,228,o),
(1014,323,o),
(1014,369,qs)
);
},
{
closed = 1;
nodes = (
(987,1041,o),
(956,1131,o),
(898,1194,o),
(812,1229,o),
(758,1229,qs),
(205,1229,l),
(205,786,l),
(748,786,ls),
(788,786,o),
(873,815,o),
(942,868,o),
(987,941,o),
(987,985,qs)
);
},
{
closed = 1;
nodes = (
(1116,236,o),
(993,117,qs),
(932,57,o),
(803,0,o),
(737,0,qs),
(154,0,ls),
(102,0,o),
(102,51,qs),
(102,1280,ls),
(102,1331,o),
(154,1331,qs),
(758,1331,ls),
(835,1331,o),
(958,1279,o),
(1044,1187,o),
(1090,1060,o),
(1090,985,qs),
(1090,819,o),
(926,729,q),
(969,701,o),
(1039,621,o),
(1089,526,o),
(1116,421,o),
(1116,369,qs)
);
}
);
width = 1229;
}
);
unicode = 66;
},
{
glyphname = C;
layers = (
{
layerId = "F770CFF7-FFB9-4382-B2D4-F3546B3D0D49";
shapes = (
{
closed = 1;
nodes = (
(1341,1049,o),
(1341,1026,qs),
(1341,975,o),
(1290,975,qs),
(1279,975,o),
(1263,983,o),
(1255,991,q),
(1085,1227,o),
(784,1227,qs),
(541,1227,o),
(373,1059,qs),
(205,891,o),
(205,647,qs),
(205,403,o),
(373,254,qs),
(543,102,o),
(784,102,qs),
(928,102,o),
(1156,216,o),
(1245,330,qs),
(1263,352,o),
(1282,352,qs),
(1300,352,o),
(1317,336,q),
(1355,304,o),
(1323,264,qs),
(1219,132,o),
(953,0,o),
(784,0,qs),
(498,0,o),
(303,180,q),
(203,274,o),
(102,506,o),
(102,649,qs),
(102,934,o),
(299,1133,qs),
(497,1331,o),
(784,1331,qs),
(1127,1331,o),
(1327,1063,q)
);
}
);
width = 1434;
}
);
unicode = 67;
},
{
glyphname = D;
layers = (
{
layerId = "F770CFF7-FFB9-4382-B2D4-F3546B3D0D49";
shapes = (
{
closed = 1;
nodes = (
(1178,436,o),
(995,217,qs),
(814,0,o),
(625,0,qs),
(154,0,ls),
(102,0,o),
(102,51,qs),
(102,1280,ls),
(102,1331,o),
(154,1331,qs),
(625,1331,ls),
(823,1331,o),
(995,1143,qs),
(1087,1043,o),
(1178,814,o),
(1178,684,qs)
);
},
{
closed = 1;
nodes = (
(1075,897,o),
(926,1063,q),
(775,1229,o),
(602,1229,qs),
(205,1229,l),
(205,102,l),
(602,102,ls),
(773,102,o),
(924,295,qs),
(1075,490,o),
(1075,684,qs)
);
}
);
width = 1229;
}
);
unicode = 68;
},
{
glyphname = E;
layers = (
{
layerId = "F770CFF7-FFB9-4382-B2D4-F3546B3D0D49";
shapes = (
{
closed = 1;
nodes = (
(978,0,o),
(930,0,qs),
(154,0,ls),
(102,0,o),
(102,51,qs),
(102,1280,ls),
(102,1331,o),
(154,1331,qs),
(930,1331,ls),
(978,1331,o),
(981,1280,q),
(978,1229,o),
(930,1229,qs),
(205,1229,l),
(205,735,l),
(639,735,ls),
(687,735,o),
(690,684,q),
(687,633,o),
(639,633,qs),
(205,633,l),
(205,102,l),
(930,102,ls),
(978,102,o),
(981,51,q)
);
}
);
width = 1126;
}
);
unicode = 69;
},
{
glyphname = F;
layers = (
{
layerId = "F770CFF7-FFB9-4382-B2D4-F3546B3D0D49";
shapes = (
{
closed = 1;
nodes = (
(978,1229,o),
(930,1229,qs),
(205,1229,l),
(205,735,l),
(639,735,ls),
(687,735,o),
(690,684,q),
(687,633,o),
(639,633,qs),
(205,633,l),
(205,51,ls),
(205,3,o),
(154,0,q),
(102,3,o),
(102,51,qs),
(102,1280,ls),
(102,1331,o),
(154,1331,qs),
(930,1331,ls),
(978,1331,o),
(981,1280,q)
);
}
);
width = 1126;
}
);
unicode = 70;
},
{
glyphname = G;
layers = (
{
layerId = "F770CFF7-FFB9-4382-B2D4-F3546B3D0D49";
shapes = (
{
closed = 1;
nodes = (
(1466,688,l),
(1466,545,o),
(1368,301,o),
(1268,201,qs),
(1168,101,o),
(928,0,o),
(784,0,qs),
(498,0,o),
(303,180,q),
(203,274,o),
(102,506,o),
(102,649,qs),
(102,934,o),
(299,1133,qs),
(497,1331,o),
(784,1331,qs),
(1121,1331,o),
(1311,1077,q),
(1319,1069,o),
(1327,1053,o),
(1327,1042,qs),
(1327,991,o),
(1276,991,qs),
(1265,991,o),
(1246,997,o),
(1239,1006,qs),
(1150,1118,o),
(925,1229,o),
(784,1229,qs),
(540,1229,o),
(373,1061,qs),
(205,893,o),
(205,649,qs),
(205,405,o),
(373,256,qs),
(543,104,o),
(784,104,qs),
(892,104,o),
(1084,175,o),
(1235,303,o),
(1337,480,o),
(1356,586,q),
(801,586,ls),
(750,586,o),
(750,637,qs),
(750,688,o),
(801,688,qs)
);
}
);
width = 1536;
}
);
unicode = 71;
},
{
glyphname = H;
layers = (
{
layerId = "F770CFF7-FFB9-4382-B2D4-F3546B3D0D49";
shapes = (
{
closed = 1;
nodes = (
(1157,51,ls),
(1157,3,o),
(1106,0,q),
(1055,3,o),
(1055,51,qs),
(1055,629,l),
(205,629,l),
(205,51,ls),
(205,3,o),
(154,0,q),
(102,3,o),
(102,51,qs),
(102,1280,ls),
(102,1328,o),
(154,1331,q),
(205,1328,o),
(205,1280,qs),
(205,731,l),
(1055,731,l),
(1055,1280,ls),
(1055,1328,o),
(1106,1331,q),
(1157,1328,o),
(1157,1280,qs)
);
}
);
width = 1229;
}
);
unicode = 72;
},
{
glyphname = I;
layers = (
{
layerId = "F770CFF7-FFB9-4382-B2D4-F3546B3D0D49";
shapes = (
{
closed = 1;
nodes = (
(476,0,o),
(428,0,qs),
(154,0,ls),
(105,0,o),
(102,51,q),
(105,102,o),
(154,102,qs),
(240,102,l),
(240,1229,l),
(143,1229,ls),
(120,1229,o),
(94,1254,o),
(92,1280,q),
(94,1306,o),
(120,1331,o),
(143,1331,qs),
(418,1331,ls),
(466,1331,o),
(469,1280,q),
(466,1229,o),
(418,1229,qs),
(342,1229,l),
(342,102,l),
(428,102,ls),
(476,102,o),
(479,51,q)
);
}
);
width = 614;
}
);
unicode = 73;
},
{
glyphname = J;
layers = (
{
layerId = "F770CFF7-FFB9-4382-B2D4-F3546B3D0D49";
shapes = (
{
closed = 1;
nodes = (
(1352,1252,o),
(1326,1227,o),
(1303,1227,qs),
(963,1227,l),
(963,479,ls),
(963,374,o),
(897,199,o),
(775,73,o),
(602,2,o),
(496,2,qs),
(418,2,o),
(288,61,o),
(185,159,o),
(108,286,o),
(84,354,qs),
(67,402,o),
(115,420,qs),
(126,424,o),
(136,424,qs),
(168,424,o),
(180,389,qs),
(198,338,o),
(256,236,o),
(336,155,o),
(436,104,o),
(496,104,qs),
(577,104,o),
(711,157,o),
(807,253,o),
(860,386,o),
(860,467,qs),
(860,1229,l),
(485,1229,ls),
(462,1229,o),
(436,1254,o),
(434,1280,q),
(436,1306,o),
(462,1331,o),
(485,1331,qs),
(1303,1331,ls),
(1326,1331,o),
(1352,1304,o),
(1354,1278,q)
);
}
);
width = 1434;
}
);
unicode = 74;
},
{
glyphname = K;
layers = (
{
layerId = "F770CFF7-FFB9-4382-B2D4-F3546B3D0D49";
shapes = (
{
closed = 1;
nodes = (
(1043,-4,o),
(1019,-4,qs),
(1004,-4,o),
(987,8,q),
(205,602,l),
(205,51,ls),
(205,3,o),
(154,0,q),
(102,3,o),
(102,51,qs),
(102,1280,ls),
(102,1328,o),
(154,1331,q),
(205,1328,o),
(205,1280,qs),
(205,774,l),
(922,1319,ls),
(941,1333,o),
(956,1333,qs),
(975,1333,o),
(993,1311,qs),
(1027,1270,o),
(985,1239,qs),
(260,688,l),
(1047,92,ls),
(1066,78,o),
(1074,41,o),
(1059,20,q)
);
}
);
width = 1126;
}
);
unicode = 75;
},
{
glyphname = L;
layers = (
{
layerId = "F770CFF7-FFB9-4382-B2D4-F3546B3D0D49";
shapes = (
{
closed = 1;
nodes = (
(992,0,o),
(944,0,qs),
(154,0,ls),
(102,0,o),
(102,51,qs),
(102,1280,ls),
(102,1328,o),
(154,1331,q),
(205,1328,o),
(205,1280,qs),
(205,102,l),
(944,102,ls),
(992,102,o),
(995,51,q)
);
}
);
width = 1126;
}
);
unicode = 76;
},
{
glyphname = M;
layers = (
{
layerId = "F770CFF7-FFB9-4382-B2D4-F3546B3D0D49";
shapes = (
{
closed = 1;
nodes = (
(1444,51,ls),
(1444,3,o),
(1393,0,q),
(1341,3,o),
(1341,51,qs),
(1341,1059,l),
(834,27,ls),
(821,0,o),
(770,0,qs),
(720,0,o),
(707,27,qs),
(205,1061,l),
(205,51,ls),
(205,3,o),
(154,0,q),
(102,3,o),
(102,51,qs),
(102,1280,ls),
(102,1331,o),
(154,1331,qs),
(185,1331,o),
(199,1303,qs),
(770,129,l),
(1350,1307,l),
(1365,1331,o),
(1393,1331,qs),
(1444,1331,o),
(1444,1280,qs)
);
}
);
width = 1536;
}
);
unicode = 77;
},
{
glyphname = N;
layers = (
{
layerId = "F770CFF7-FFB9-4382-B2D4-F3546B3D0D49";
shapes = (
{
closed = 1;
nodes = (
(1157,51,ls),
(1157,0,o),
(1106,0,qs),
(1075,0,o),
(1061,27,q),
(205,1133,l),
(205,51,ls),
(205,3,o),
(154,0,q),
(102,3,o),
(102,51,qs),
(102,1280,ls),
(102,1328,o),
(154,1331,q),
(162,1333,o),
(183,1322,o),
(197,1311,q),
(1055,199,l),
(1055,1280,ls),
(1055,1328,o),
(1106,1331,q),
(1157,1328,o),
(1157,1280,qs)
);
}
);
width = 1229;
}
);
unicode = 78;
},
{
glyphname = O;
layers = (
{
layerId = "F770CFF7-FFB9-4382-B2D4-F3546B3D0D49";
shapes = (
{
closed = 1;
nodes = (
(1348,927,o),
(1180,1077,qs),
(1010,1229,o),
(768,1229,qs),
(526,1229,o),
(356,1059,qs),
(188,891,o),
(188,647,qs),
(188,404,o),
(356,254,qs),
(441,179,o),
(646,102,o),
(768,102,qs),
(891,102,o),
(1103,192,o),
(1259,348,o),
(1348,561,o),
(1348,684,qs)
);
},
{
closed = 1;
nodes = (
(1450,396,o),
(1251,197,qs),
(1054,0,o),
(768,0,qs),
(481,0,o),
(287,180,qs),
(187,274,o),
(86,506,o),
(86,649,qs),
(86,934,o),
(283,1133,qs),
(481,1331,o),
(768,1331,qs),
(911,1331,o),
(1152,1240,o),
(1251,1149,qs),
(1450,968,o),
(1450,682,qs)
);
}
);
width = 1536;
}
);
unicode = 79;
},
{
glyphname = P;
layers = (
{
layerId = "F770CFF7-FFB9-4382-B2D4-F3546B3D0D49";
shapes = (
{
closed = 1;
nodes = (
(1090,916,o),
(1031,806,o),
(935,729,o),
(812,688,o),
(748,688,qs),
(205,688,l),
(205,51,ls),
(205,3,o),
(154,0,q),
(102,3,o),
(102,51,qs),
(102,1280,ls),
(102,1331,o),
(154,1331,qs),
(758,1331,ls),
(833,1331,o),
(956,1278,o),
(1043,1185,o),
(1090,1059,o),
(1090,985,qs)
);
},
{
closed = 1;
nodes = (
(987,1038,o),
(955,1127,o),
(895,1192,o),
(810,1229,o),
(758,1229,qs),
(205,1229,l),
(205,791,l),
(748,791,ls),
(790,791,o),
(876,816,o),
(944,865,o),
(987,938,o),
(987,985,qs)
);
}
);
width = 1229;
}
);
unicode = 80;
},
{
glyphname = Q;
layers = (
{
layerId = "F770CFF7-FFB9-4382-B2D4-F3546B3D0D49";
shapes = (
{
closed = 1;
nodes = (
(1348,927,o),
(1180,1077,qs),
(1010,1229,o),
(768,1229,qs),
(524,1229,o),
(356,1061,qs),
(188,892,o),
(188,649,qs),
(188,406,o),
(356,256,qs),
(441,181,o),
(646,104,o),
(768,104,qs),
(952,104,o),
(1096,205,q),
(1006,297,ls),
(970,333,o),
(1006,369,qs),
(1020,383,o),
(1040,383,qs),
(1063,383,o),
(1077,369,qs),
(1176,270,l),
(1348,440,o),
(1348,684,qs)
);
},
{
closed = 1;
nodes = (
(1450,395,o),
(1249,197,q),
(1358,88,ls),
(1372,74,o),
(1372,51,qs),
(1372,31,o),
(1342,-2,o),
(1322,-2,qs),
(1304,-2,o),
(1286,16,qs),
(1171,129,l),
(994,0,o),
(768,0,qs),
(481,0,o),
(287,180,qs),
(187,274,o),
(86,506,o),
(86,649,qs),
(86,934,o),
(283,1133,qs),
(481,1331,o),
(768,1331,qs),
(911,1331,o),
(1152,1240,o),
(1251,1149,qs),
(1450,968,o),
(1450,682,qs)
);
}
);
width = 1536;
}
);
unicode = 81;
},
{
glyphname = R;
layers = (
{
layerId = "F770CFF7-FFB9-4382-B2D4-F3546B3D0D49";
shapes = (
{
closed = 1;
nodes = (
(1163,-2,o),
(1112,-2,qs),
(1099,-2,o),
(1081,8,q),
(205,647,l),
(205,51,ls),
(205,3,o),
(154,0,q),
(102,3,o),
(102,51,qs),
(102,1280,ls),
(102,1331,o),
(154,1331,qs),
(758,1331,ls),
(833,1331,o),
(956,1278,o),
(1043,1185,o),
(1090,1059,o),
(1090,985,qs),
(1090,916,o),
(1031,806,o),
(935,729,o),
(812,688,o),
(748,688,qs),
(324,688,l),
(1141,90,ls),
(1163,74,o),
(1163,51,qs)
);
},
{
closed = 1;
nodes = (
(987,1038,o),
(955,1127,o),
(895,1192,o),
(810,1229,o),
(758,1229,qs),
(205,1229,l),
(205,791,l),
(748,791,ls),
(790,791,o),
(876,816,o),
(944,865,o),
(987,938,o),
(987,985,qs)
);
}
);
width = 1229;
}
);
unicode = 82;
},
{
glyphname = S;
layers = (
{
layerId = "F770CFF7-FFB9-4382-B2D4-F3546B3D0D49";
shapes = (
{
closed = 1;
nodes = (
(1024,296,o),
(972,179,o),
(920,125,qs),
(798,0,o),
(594,0,qs),
(379,0,o),
(117,182,qs),
(76,211,o),
(104,254,q),
(121,278,o),
(143,278,qs),
(158,278,o),
(176,266,qs),
(432,94,o),
(594,94,qs),
(683,94,o),
(786,154,qs),
(922,232,o),
(922,362,qs),
(922,441,o),
(833,565,o),
(739,600,qs),
(399,729,l),
(308,777,o),
(217,916,o),
(217,1010,qs),
(217,1127,o),
(305,1219,qs),
(413,1331,o),
(600,1331,qs),
(761,1331,o),
(924,1229,qs),
(967,1202,o),
(942,1159,qs),
(925,1130,o),
(903,1130,qs),
(891,1130,o),
(872,1141,qs),
(726,1229,o),
(598,1229,qs),
(550,1229,o),
(450,1203,o),
(370,1149,o),
(319,1068,o),
(319,1012,qs),
(319,943,o),
(409,830,o),
(502,795,qs),
(842,664,l),
(1024,562,o),
(1024,362,qs)
);
}
);
width = 1126;
}
);
unicode = 83;
},
{
glyphname = T;
layers = (
{
layerId = "F770CFF7-FFB9-4382-B2D4-F3546B3D0D49";
shapes = (
{
closed = 1;
nodes = (
(1201,1229,o),
(1153,1229,qs),
(705,1229,l),
(705,51,ls),
(705,3,o),
(653,0,q),
(602,3,o),
(602,51,qs),
(602,1229,l),
(154,1229,ls),
(105,1229,o),
(102,1280,q),
(105,1331,o),
(154,1331,qs),
(1153,1331,ls),
(1201,1331,o),
(1204,1280,q)
);
}
);
width = 1229;
}
);
unicode = 84;
},
{
glyphname = U;
layers = (
{
layerId = "F770CFF7-FFB9-4382-B2D4-F3546B3D0D49";
shapes = (
{
closed = 1;
nodes = (
(1065,479,ls),
(1065,379,o),
(990,204,o),
(860,74,o),
(685,0,o),
(584,0,qs),
(482,0,o),
(306,74,o),
(176,203,o),
(102,379,o),
(102,481,qs),
(102,1280,ls),
(102,1328,o),
(154,1331,q),
(205,1328,o),
(205,1280,qs),
(205,481,ls),
(205,400,o),
(262,261,o),
(364,159,o),
(503,102,o),
(584,102,qs),
(664,102,o),
(802,160,o),
(904,262,o),
(963,400,o),
(963,479,qs),
(963,1282,ls),
(963,1330,o),
(1014,1333,q),
(1065,1330,o),
(1065,1282,qs)
);
}
);
width = 1229;
}
);
unicode = 85;
},
{
glyphname = V;
layers = (
{
layerId = "F770CFF7-FFB9-4382-B2D4-F3546B3D0D49";
shapes = (
{
closed = 1;
nodes = (
(1098,1277,o),
(1096,1268,o),
(1094,1262,q),
(647,33,l),
(635,-3,o),
(598,0,q),
(561,-3,o),
(549,33,q),
(102,1262,l),
(100,1268,o),
(98,1277,o),
(98,1282,qs),
(98,1311,o),
(133,1327,q),
(144,1331,o),
(156,1331,qs),
(187,1331,o),
(199,1298,qs),
(598,199,l),
(997,1298,ls),
(1009,1331,o),
(1040,1331,qs),
(1052,1331,o),
(1063,1327,q),
(1098,1311,o),
(1098,1282,qs)
);
}
);
width = 1229;
}
);
unicode = 86;
},
{
glyphname = W;
layers = (
{
layerId = "F770CFF7-FFB9-4382-B2D4-F3546B3D0D49";
shapes = (
{
closed = 1;
nodes = (
(1972,1277,o),
(1970,1268,o),
(1968,1262,q),
(1522,33,ls),
(1509,-3,o),
(1473,0,q),
(1436,-3,o),
(1423,33,qs),
(1024,1133,l),
(625,33,ls),
(612,-3,o),
(575,0,q),
(539,-3,o),
(526,33,qs),
(80,1262,l),
(78,1268,o),
(76,1277,o),
(76,1282,qs),
(76,1312,o),
(111,1327,q),
(122,1331,o),
(133,1331,qs),
(166,1331,o),
(176,1298,q),
(575,199,l),
(975,1298,l),
(987,1334,o),
(1024,1331,q),
(1061,1334,o),
(1073,1298,q),
(1473,199,l),
(1872,1298,l),
(1883,1331,o),
(1915,1331,qs),
(1926,1331,o),
(1937,1327,q),
(1972,1312,o),
(1972,1282,qs)
);
}
);
width = 2048;
}
);
unicode = 87;
},
{
glyphname = X;
layers = (
{
layerId = "F770CFF7-FFB9-4382-B2D4-F3546B3D0D49";
shapes = (
{
closed = 1;
nodes = (
(1180,82,ls),
(1195,62,o),
(1187,24,o),
(1167,10,qs),
(1152,-1,o),
(1136,-1,qs),
(1114,-1,o),
(1096,23,qs),
(649,608,l),
(199,20,ls),
(182,-3,o),
(161,-3,qs),
(144,-3,o),
(127,10,qs),
(86,42,o),
(117,82,qs),
(584,692,l),
(154,1255,ls),
(139,1275,o),
(148,1309,o),
(168,1323,q),
(185,1334,o),
(200,1334,qs),
(223,1334,o),
(240,1311,qs),
(649,776,l),
(1061,1311,ls),
(1079,1334,o),
(1100,1334,qs),
(1117,1334,o),
(1133,1321,q),
(1172,1291,o),
(1141,1249,q),
(713,692,l)
);
}
);
width = 1229;
}
);
unicode = 88;
},
{
glyphname = Y;
layers = (
{
layerId = "F770CFF7-FFB9-4382-B2D4-F3546B3D0D49";
shapes = (
{
closed = 1;
nodes = (
(707,610,l),
(707,51,ls),
(707,3,o),
(655,0,q),
(604,3,o),
(604,51,qs),
(604,606,l),
(106,1249,ls),
(75,1289,o),
(117,1321,qs),
(134,1334,o),
(151,1334,qs),
(172,1334,o),
(188,1313,qs),
(653,711,l),
(1116,1311,ls),
(1134,1334,o),
(1155,1334,qs),
(1172,1334,o),
(1188,1321,q),
(1208,1306,o),
(1214,1269,o),
(1198,1249,qs)
);
}
);
width = 1331;
}
);
unicode = 89;
},
{
glyphname = Z;
layers = (
{
layerId = "F770CFF7-FFB9-4382-B2D4-F3546B3D0D49";
shapes = (
{
closed = 1;
nodes = (
(1076,0,o),
(1028,0,qs),
(106,0,ls),
(80,0,o),
(80,33,qs),
(80,52,o),
(111,100,qs),
(842,1231,l),
(154,1231,ls),
(105,1231,o),
(102,1282,q),
(105,1331,o),
(154,1331,qs),
(918,1331,ls),
(985,1331,o),
(985,1278,qs),
(985,1266,o),
(975,1249,q),
(233,102,l),
(1028,102,ls),
(1076,102,o),
(1079,51,q)
);
}
);
width = 1229;
}
);
unicode = 90;
},
{
glyphname = bracketleft;
layers = (
{
layerId = "F770CFF7-FFB9-4382-B2D4-F3546B3D0D49";
shapes = (
{
closed = 1;
nodes = (
(517,1229,o),
(469,1229,qs),
(272,1229,l),
(272,102,l),
(467,102,ls),
(515,102,o),
(518,51,q),
(515,0,o),
(467,0,qs),
(219,0,ls),
(168,0,o),
(168,51,qs),
(168,1280,ls),
(168,1303,o),
(193,1331,o),
(219,1331,qs),
(469,1331,ls),
(517,1331,o),
(520,1280,q)
);
}
);
width = 717;
}
);
unicode = 91;
},
{
glyphname = backslash;
layers = (
{
layerId = "F770CFF7-FFB9-4382-B2D4-F3546B3D0D49";
shapes = (
{
closed = 1;
nodes = (
(515,10,o),
(483,2,q),
(433,-4,o),
(424,43,q),
(170,1272,ls),
(167,1287,o),
(170,1296,q),
(176,1322,o),
(209,1331,q),
(259,1337,o),
(268,1290,q),
(524,61,ls),
(527,47,o),
(524,39,q)
);
}
);
width = 717;
}
);
unicode = 92;
},
{
glyphname = bracketright;
layers = (
{
layerId = "F770CFF7-FFB9-4382-B2D4-F3546B3D0D49";
shapes = (
{
closed = 1;
nodes = (
(520,51,ls),
(520,0,o),
(469,0,qs),
(221,0,ls),
(173,0,o),
(170,51,q),
(173,102,o),
(221,102,qs),
(416,102,l),
(416,1229,l),
(219,1229,ls),
(171,1229,o),
(168,1280,q),
(171,1331,o),
(219,1331,qs),
(469,1331,ls),
(495,1331,o),
(520,1303,o),
(520,1280,qs)
);
}
);
width = 717;
}
);
unicode = 93;
},
{
glyphname = asciicircum;
layers = (
{
layerId = "F770CFF7-FFB9-4382-B2D4-F3546B3D0D49";
shapes = (
{
closed = 1;
nodes = (
(109,424,o),
(115,451,q),
(115,460,o),
(125,473,q),
(459,934,ls),
(474,955,o),
(503,973,o),
(514,973,qs),
(523,973,o),
(550,955,o),
(565,934,qs),
(899,473,l),
(909,460,o),
(909,451,q),
(915,424,o),
(887,401,q),
(868,390,o),
(855,390,qs),
(834,390,o),
(817,414,qs),
(512,834,l),
(207,414,l),
(191,390,o),
(169,390,qs),
(156,390,o),
(137,401,q)
);
}
);
width = 1024;
}
);
unicode = 94;
},
{
glyphname = underscore;
layers = (
{
layerId = "F770CFF7-FFB9-4382-B2D4-F3546B3D0D49";
shapes = (
{
closed = 1;
nodes = (
(1032,-246,l),
(-4,-246,l),
(-4,-143,l),
(1032,-143,l)
);
}
);
width = 1024;
}
);
unicode = 95;
},
{
glyphname = grave;
layers = (
{
layerId = "F770CFF7-FFB9-4382-B2D4-F3546B3D0D49";
shapes = (
{
closed = 1;
nodes = (
(61,1243,o),
(53,1231,q),
(-256,737,l),
(-264,725,o),
(-284,713,o),
(-295,713,qs),
(-311,713,o),
(-326,721,q),
(-350,739,o),
(-350,764,qs),
(-350,777,o),
(-342,791,q),
(-33,1284,ls),
(-17,1309,o),
(6,1309,qs),
(61,1309,o),
(61,1260,qs)
);
}
);
width = 10;
}
);
unicode = 96;
},
{
glyphname = a;
layers = (
{
layerId = "F770CFF7-FFB9-4382-B2D4-F3546B3D0D49";
shapes = (
{
closed = 1;
nodes = (
(614,385,o),
(585,470,o),
(532,539,o),
(457,582,o),
(410,582,qs),
(364,582,o),
(289,539,o),
(235,470,o),
(205,384,o),
(205,342,qs),
(205,300,o),
(235,214,o),
(289,145,o),
(364,102,o),
(410,102,qs),
(455,102,o),
(530,146,o),
(584,215,o),
(614,300,o),
(614,342,qs)
);
},
{
closed = 1;
nodes = (
(719,51,ls),
(719,3,o),
(668,0,q),
(616,3,o),
(616,51,qs),
(616,92,l),
(527,0,o),
(410,0,qs),
(341,0,o),
(228,58,o),
(147,154,o),
(102,277,o),
(102,342,qs),
(102,408,o),
(146,531,o),
(227,627,o),
(340,684,o),
(410,684,qs),
(527,684,o),
(616,592,q),
(616,633,ls),
(616,681,o),
(668,684,q),
(719,681,o),
(719,633,qs)
);
}
);
width = 819;
}
);
unicode = 97;
},
{
glyphname = b;
layers = (
{
layerId = "F770CFF7-FFB9-4382-B2D4-F3546B3D0D49";
shapes = (
{
closed = 1;
nodes = (
(614,385,o),
(585,470,o),
(532,539,o),
(457,582,o),
(410,582,qs),
(364,582,o),
(289,539,o),
(235,470,o),
(205,384,o),
(205,342,qs),
(205,300,o),
(235,214,o),
(289,145,o),
(364,102,o),
(410,102,qs),
(455,102,o),
(530,146,o),
(584,215,o),
(614,300,o),
(614,342,qs)
);
},
{
closed = 1;
nodes = (
(717,277,o),
(673,154,o),
(592,58,o),
(479,0,o),
(410,0,qs),
(292,0,o),
(205,90,q),
(205,51,ls),
(205,3,o),
(154,0,q),
(102,3,o),
(102,51,qs),
(102,1280,ls),
(102,1328,o),
(154,1331,q),
(205,1328,o),
(205,1280,qs),
(205,594,l),
(292,684,o),
(410,684,qs),
(480,684,o),
(593,626,o),
(673,531,o),
(717,408,o),
(717,342,qs)
);
}
);
width = 819;
}
);
unicode = 98;
},
{
glyphname = c;
layers = (
{
layerId = "F770CFF7-FFB9-4382-B2D4-F3546B3D0D49";
shapes = (
{
closed = 1;
nodes = (
(591,0,o),
(410,0,qs),
(341,0,o),
(228,58,o),
(147,154,o),
(102,277,o),
(102,342,qs),
(102,408,o),
(146,531,o),
(227,627,o),
(340,684,o),
(410,684,qs),
(485,684,o),
(605,616,o),
(653,547,qs),
(668,526,o),
(665,491,o),
(645,475,qs),
(628,462,o),
(611,462,qs),
(591,462,o),
(573,483,q),
(495,582,o),
(410,582,qs),
(364,582,o),
(289,539,o),
(235,470,o),
(205,384,o),
(205,342,qs),
(205,300,o),
(235,214,o),
(289,145,o),
(364,102,o),
(410,102,qs),
(533,102,o),
(588,225,qs),
(603,257,o),
(629,257,qs),
(639,257,o),
(655,250,qs),
(703,229,o),
(680,182,qs)
);
}
);
width = 819;
}
);
unicode = 99;
},
{
glyphname = d;
layers = (
{
layerId = "F770CFF7-FFB9-4382-B2D4-F3546B3D0D49";
shapes = (
{
closed = 1;
nodes = (
(614,385,o),
(585,470,o),
(532,539,o),
(457,582,o),
(410,582,qs),
(364,582,o),
(289,539,o),
(235,470,o),
(205,384,o),
(205,342,qs),
(205,300,o),
(235,214,o),
(289,145,o),
(364,102,o),
(410,102,qs),
(455,102,o),
(530,146,o),
(584,215,o),
(614,300,o),
(614,342,qs)
);
},
{
closed = 1;
nodes = (
(717,51,ls),
(717,3,o),
(666,0,q),
(614,3,o),
(614,51,qs),
(614,90,l),
(527,0,o),
(410,0,qs),
(341,0,o),
(228,58,o),
(147,154,o),
(102,277,o),
(102,342,qs),
(102,408,o),
(146,531,o),
(227,627,o),
(340,684,o),
(410,684,qs),
(527,684,o),
(614,594,q),
(614,1280,ls),
(614,1328,o),
(666,1331,q),
(717,1328,o),
(717,1280,qs)
);
}
);
width = 819;
}
);
unicode = 100;
},
{
glyphname = e;
layers = (
{
layerId = "F770CFF7-FFB9-4382-B2D4-F3546B3D0D49";
shapes = (
{
closed = 1;
nodes = (
(592,444,l),
(534,582,o),
(410,582,qs),
(285,582,o),
(227,444,q)
);
},
{
closed = 1;
nodes = (
(205,342,l),
(205,300,o),
(235,214,o),
(289,145,o),
(364,102,o),
(410,102,qs),
(509,102,o),
(569,186,q),
(584,218,o),
(610,218,qs),
(620,218,o),
(637,211,q),
(683,190,o),
(662,143,q),
(561,0,o),
(410,0,qs),
(341,0,o),
(228,58,o),
(147,154,o),
(102,277,o),
(102,342,qs),
(102,408,o),
(146,531,o),
(227,627,o),
(340,684,o),
(410,684,qs),
(480,684,o),
(593,626,o),
(673,531,o),
(717,408,o),
(717,342,q)
);
}
);
width = 819;
}
);
unicode = 101;
},
{
glyphname = f;
layers = (
{
layerId = "F770CFF7-FFB9-4382-B2D4-F3546B3D0D49";
shapes = (
{
closed = 1;
nodes = (
(794,1108,o),
(776,1126,qs),
(707,1196,ls),
(688,1215,o),
(634,1229,o),
(602,1229,qs),
(551,1229,o),
(475,1175,o),
(426,1092,o),
(401,995,o),
(401,952,qs),
(401,727,l),
(530,727,ls),
(579,727,o),
(582,676,q),
(579,625,o),
(530,625,qs),
(401,625,l),
(401,51,ls),
(401,3,o),
(350,0,q),
(299,3,o),
(299,51,qs),
(299,625,l),
(154,625,ls),
(105,625,o),
(102,676,q),
(105,727,o),
(154,727,qs),
(299,727,l),
(299,952,ls),
(299,1141,o),
(410,1247,q),
(496,1331,o),
(604,1331,qs),
(676,1331,o),
(797,1264,o),
(848,1198,q),
(862,1184,o),
(862,1161,qs),
(862,1141,o),
(832,1108,o),
(812,1108,qs)
);
}
);
width = 819;
}
);
unicode = 102;
},
{
glyphname = g;
layers = (
{
layerId = "F770CFF7-FFB9-4382-B2D4-F3546B3D0D49";
shapes = (
{
closed = 1;
nodes = (
(614,385,o),
(585,470,o),
(532,539,o),
(457,582,o),
(410,582,qs),
(364,582,o),
(289,539,o),
(235,470,o),
(205,384,o),
(205,342,qs),
(205,300,o),
(235,214,o),
(289,145,o),
(364,102,o),
(410,102,qs),
(455,102,o),
(530,146,o),
(584,215,o),
(614,300,o),
(614,342,qs)
);
},
{
closed = 1;
nodes = (
(717,-268,ls),
(717,-334,o),
(680,-480,o),
(604,-602,o),
(489,-682,o),
(412,-682,qs),
(263,-682,o),
(156,-535,q),
(148,-527,o),
(139,-511,o),
(139,-500,qs),
(139,-449,o),
(190,-449,qs),
(201,-449,o),
(219,-455,o),
(227,-463,qs),
(263,-500,o),
(304,-540,o),
(309,-545,q),
(332,-562,o),
(385,-580,o),
(414,-580,qs),
(502,-580,o),
(563,-471,qs),
(614,-381,o),
(614,-281,qs),
(614,90,l),
(527,0,o),
(410,0,qs),
(341,0,o),
(228,58,o),
(147,154,o),
(102,277,o),
(102,342,qs),
(102,408,o),
(146,531,o),
(227,627,o),
(340,684,o),
(410,684,qs),
(527,684,o),
(614,594,q),
(614,633,ls),
(614,681,o),
(666,684,q),
(717,681,o),
(717,633,qs)
);
}
);
width = 819;
}
);
unicode = 103;
},
{
glyphname = h;
layers = (
{
layerId = "F770CFF7-FFB9-4382-B2D4-F3546B3D0D49";
shapes = (
{
closed = 1;
nodes = (
(645,53,ls),
(645,6,o),
(594,0,q),
(543,6,o),
(543,53,qs),
(543,461,ls),
(543,489,o),
(518,534,o),
(473,565,o),
(412,582,o),
(375,582,qs),
(238,582,o),
(205,461,q),
(205,51,ls),
(205,3,o),
(154,0,q),
(102,3,o),
(102,51,qs),
(102,1280,ls),
(102,1328,o),
(154,1331,q),
(205,1328,o),
(205,1280,qs),
(205,631,l),
(258,684,o),
(375,684,qs),
(431,684,o),
(529,653,o),
(603,595,o),
(645,512,o),
(645,461,qs)
);
}
);
width = 819;
}
);
unicode = 104;
},
{
glyphname = i;
layers = (
{
layerId = "F770CFF7-FFB9-4382-B2D4-F3546B3D0D49";
shapes = (
{
closed = 1;
nodes = (
(205,51,ls),
(205,3,o),
(154,0,q),
(102,3,o),
(102,51,qs),
(102,633,ls),
(102,681,o),
(154,684,q),
(205,681,o),
(205,633,qs)
);
},
{
closed = 1;
nodes = (
(213,944,o),
(154,944,qs),
(94,944,o),
(94,1004,qs),
(94,1063,o),
(154,1063,qs),
(213,1063,o),
(213,1004,qs)
);
}
);
width = 307;
}
);
unicode = 105;
},
{
glyphname = j;
layers = (
{
layerId = "F770CFF7-FFB9-4382-B2D4-F3546B3D0D49";
shapes = (
{
closed = 1;
nodes = (
(305,-268,ls),
(305,-344,o),
(268,-479,o),
(229,-541,qs),
(141,-682,o),
(0,-682,qs),
(-148,-682,o),
(-256,-535,q),
(-264,-527,o),
(-272,-511,o),
(-272,-500,qs),
(-272,-449,o),
(-221,-449,qs),
(-210,-449,o),
(-192,-455,o),
(-184,-463,q),
(-149,-500,o),
(-107,-540,o),
(-102,-545,q),
(-79,-562,o),
(-27,-580,o),
(2,-580,qs),
(52,-580,o),
(127,-518,o),
(177,-426,o),
(203,-322,o),
(203,-281,qs),
(203,633,ls),
(203,681,o),
(254,684,q),
(305,681,o),
(305,633,qs)
);
},
{
closed = 1;
nodes = (
(313,944,o),
(254,944,qs),
(195,944,o),
(195,1004,qs),
(195,1063,o),
(254,1063,qs),
(313,1063,o),
(313,1004,qs)
);
}
);
width = 410;
}
);
unicode = 106;
},
{
glyphname = k;
layers = (
{
layerId = "F770CFF7-FFB9-4382-B2D4-F3546B3D0D49";
shapes = (
{
closed = 1;
nodes = (
(653,-3,o),
(631,-3,qs),
(613,-3,o),
(598,8,qs),
(205,285,l),
(205,51,ls),
(205,3,o),
(154,0,q),
(102,3,o),
(102,51,qs),
(102,1280,ls),
(102,1328,o),
(154,1331,q),
(205,1328,o),
(205,1280,qs),
(205,410,l),
(573,670,ls),
(590,682,o),
(605,682,qs),
(628,682,o),
(645,657,qs),
(674,614,o),
(633,586,qs),
(293,348,l),
(657,92,ls),
(698,63,o),
(670,20,q)
);
}
);
width = 819;
}
);
unicode = 107;
},
{
glyphname = l;
layers = (
{
layerId = "F770CFF7-FFB9-4382-B2D4-F3546B3D0D49";
shapes = (
{
closed = 1;
nodes = (
(205,51,ls),
(205,3,o),
(154,0,q),
(102,3,o),
(102,51,qs),
(102,1280,ls),
(102,1328,o),
(154,1331,q),
(205,1328,o),
(205,1280,qs)
);
}
);
width = 307;
}
);
unicode = 108;
},
{
glyphname = m;
layers = (
{
layerId = "F770CFF7-FFB9-4382-B2D4-F3546B3D0D49";
shapes = (
{
closed = 1;
nodes = (
(1085,53,ls),
(1085,0,o),
(1034,0,qs),
(983,0,o),
(983,53,qs),
(983,463,l),
(959,584,o),
(815,584,qs),
(746,584,o),
(662,523,o),
(645,463,q),
(645,53,ls),
(645,0,o),
(594,0,qs),
(543,0,o),
(543,53,qs),
(543,461,l),
(520,582,o),
(375,582,qs),
(238,582,o),
(205,461,q),
(205,51,ls),
(205,0,o),
(154,0,qs),
(102,0,o),
(102,51,qs),
(102,633,ls),
(102,684,o),
(154,684,qs),
(205,684,o),
(205,633,q),
(268,684,o),
(375,684,qs),
(513,684,o),
(590,598,q),
(672,686,o),
(815,686,qs),
(876,686,o),
(975,652,o),
(1046,588,o),
(1085,495,o),
(1085,436,qs)
);
}
);
width = 1229;
}
);
unicode = 109;
},
{
glyphname = n;
layers = (
{
layerId = "F770CFF7-FFB9-4382-B2D4-F3546B3D0D49";
shapes = (
{
closed = 1;
nodes = (
(645,53,ls),
(645,0,o),
(594,0,qs),
(543,0,o),
(543,53,qs),
(543,461,l),
(520,582,o),
(375,582,qs),
(238,582,o),
(205,461,q),
(205,51,ls),
(205,0,o),
(154,0,qs),
(102,0,o),
(102,51,qs),
(102,633,ls),
(102,660,o),
(133,684,o),
(159,684,qs),
(199,684,o),
(205,639,q),
(205,631,l),
(258,684,o),
(375,684,qs),
(437,684,o),
(536,651,o),
(607,587,o),
(645,493,o),
(645,432,qs)
);
}
);
width = 819;
}
);
unicode = 110;
},
{
glyphname = o;
layers = (
{
layerId = "F770CFF7-FFB9-4382-B2D4-F3546B3D0D49";
shapes = (
{
closed = 1;
nodes = (
(614,385,o),
(585,470,o),
(532,539,o),
(457,582,o),
(410,582,qs),
(364,582,o),
(289,539,o),
(235,470,o),
(205,384,o),
(205,342,qs),
(205,300,o),
(235,214,o),
(289,145,o),
(364,102,o),
(410,102,qs),
(455,102,o),
(530,146,o),
(584,215,o),
(614,300,o),
(614,342,qs)
);
},
{
closed = 1;
nodes = (
(717,277,o),
(673,154,o),
(592,58,o),
(479,0,o),
(410,0,qs),
(341,0,o),
(228,58,o),
(147,154,o),
(102,277,o),
(102,342,qs),
(102,408,o),
(146,531,o),
(227,627,o),
(340,684,o),
(410,684,qs),
(480,684,o),
(593,626,o),
(673,531,o),
(717,408,o),
(717,342,qs)
);
}
);
width = 819;
}
);
unicode = 111;
},
{
glyphname = p;
layers = (
{
layerId = "F770CFF7-FFB9-4382-B2D4-F3546B3D0D49";
shapes = (
{
closed = 1;
nodes = (
(614,385,o),
(585,470,o),
(532,539,o),
(457,582,o),
(410,582,qs),
(364,582,o),
(289,539,o),
(235,470,o),
(205,384,o),
(205,342,qs),
(205,300,o),
(235,214,o),
(289,145,o),
(364,102,o),
(410,102,qs),
(455,102,o),
(530,146,o),
(584,215,o),
(614,300,o),
(614,342,qs)
);
},
{
closed = 1;
nodes = (
(717,277,o),
(673,154,o),
(592,58,o),
(479,0,o),
(410,0,qs),
(292,0,o),
(205,90,q),
(205,-596,ls),
(205,-644,o),
(154,-647,q),
(102,-644,o),
(102,-596,qs),
(102,633,ls),
(102,681,o),
(154,684,q),
(205,681,o),
(205,633,qs),
(205,594,l),
(292,684,o),
(410,684,qs),
(480,684,o),
(593,626,o),
(673,531,o),
(717,408,o),
(717,342,qs)
);
}
);
width = 819;
}
);
unicode = 112;
},
{
glyphname = q;
layers = (
{
layerId = "F770CFF7-FFB9-4382-B2D4-F3546B3D0D49";
shapes = (
{
closed = 1;
nodes = (
(608,383,o),
(582,470,o),
(532,539,o),
(458,582,o),
(410,582,qs),
(364,582,o),
(289,539,o),
(235,470,o),
(205,384,o),
(205,342,qs),
(205,300,o),
(235,214,o),
(289,145,o),
(364,102,o),
(410,102,qs),
(457,102,o),
(530,145,o),
(581,213,o),
(608,298,o),
(608,340,qs)
);
},
{
closed = 1;
nodes = (
(1192,-513,o),
(1169,-539,qs),
(1144,-568,o),
(1086,-619,o),
(1020,-659,o),
(947,-682,o),
(908,-682,qs),
(835,-682,o),
(723,-622,o),
(648,-523,o),
(610,-397,o),
(610,-330,qs),
(610,86,l),
(524,0,o),
(410,0,qs),
(341,0,o),
(228,58,o),
(147,154,o),
(102,277,o),
(102,342,qs),
(102,408,o),
(146,531,o),
(227,627,o),
(340,684,o),
(410,684,qs),
(524,684,o),
(610,598,q),
(610,633,ls),
(610,681,o),
(662,684,q),
(713,681,o),
(713,633,qs),
(713,-330,ls),
(713,-374,o),
(739,-463,o),
(789,-535,o),
(864,-580,o),
(913,-580,qs),
(971,-580,o),
(1014,-549,qs),
(1022,-543,o),
(1059,-503,o),
(1090,-471,q),
(1114,-444,o),
(1139,-444,qs),
(1157,-444,o),
(1192,-475,o),
(1192,-494,qs)
);
}
);
width = 819;
}
);
unicode = 113;
},
{
glyphname = r;
layers = (
{
layerId = "F770CFF7-FFB9-4382-B2D4-F3546B3D0D49";
shapes = (
{
closed = 1;
nodes = (
(642,519,o),
(600,492,qs),
(582,480,o),
(567,480,qs),
(545,480,o),
(528,504,q),
(478,582,o),
(375,582,qs),
(238,582,o),
(205,461,q),
(205,51,ls),
(205,3,o),
(154,0,q),
(102,3,o),
(102,51,qs),
(102,633,ls),
(102,660,o),
(133,684,o),
(159,684,qs),
(199,684,o),
(205,639,q),
(205,631,l),
(258,684,o),
(375,684,qs),
(409,684,o),
(477,668,o),
(540,637,o),
(593,592,o),
(612,563,qs)
);
}
);
width = 819;
}
);
unicode = 114;
},
{
glyphname = s;
layers = (
{
layerId = "F770CFF7-FFB9-4382-B2D4-F3546B3D0D49";
shapes = (
{
closed = 1;
nodes = (
(651,180,o),
(613,96,o),
(548,35,o),
(460,0,o),
(410,0,qs),
(268,0,o),
(113,131,q),
(90,149,o),
(90,176,qs),
(90,199,o),
(104,213,q),
(118,230,o),
(136,230,qs),
(153,230,o),
(176,213,qs),
(218,181,o),
(270,143,o),
(281,137,qs),
(310,120,o),
(373,102,o),
(408,102,qs),
(435,102,o),
(485,120,o),
(525,151,o),
(549,194,o),
(549,219,qs),
(549,260,o),
(446,283,qs),
(371,300,o),
(276,327,o),
(256,338,qs),
(205,364,o),
(154,442,o),
(154,496,qs),
(154,537,o),
(195,605,o),
(260,656,o),
(338,684,o),
(375,684,qs),
(447,684,o),
(564,639,o),
(606,592,q),
(641,555,o),
(600,520,qs),
(581,505,o),
(565,505,qs),
(546,505,o),
(528,526,qs),
(480,582,o),
(371,582,qs),
(353,582,o),
(312,566,o),
(278,541,o),
(256,507,o),
(256,489,qs),
(256,435,o),
(358,408,qs),
(549,358,l),
(651,318,o),
(651,229,qs)
);
}
);
width = 819;
}
);
unicode = 115;
},
{
glyphname = t;
layers = (
{
layerId = "F770CFF7-FFB9-4382-B2D4-F3546B3D0D49";
shapes = (
{
closed = 1;
nodes = (
(622,633,o),
(573,633,qs),
(416,633,l),
(416,51,ls),
(416,3,o),
(365,0,q),
(313,3,o),
(313,51,qs),
(313,633,l),
(154,633,ls),
(105,633,o),
(102,684,q),
(105,735,o),
(154,735,qs),
(313,735,l),
(313,1280,ls),
(313,1328,o),
(365,1331,q),
(416,1328,o),
(416,1280,qs),
(416,735,l),
(573,735,ls),
(622,735,o),
(625,684,q)
);
}
);
width = 819;
}
);
unicode = 116;
},
{
glyphname = u;
layers = (
{
layerId = "F770CFF7-FFB9-4382-B2D4-F3546B3D0D49";
shapes = (
{
closed = 1;
nodes = (
(645,51,ls),
(645,0,o),
(594,0,qs),
(543,0,o),
(543,51,qs),
(543,53,l),
(487,0,o),
(373,0,qs),
(312,0,o),
(211,33,o),
(141,97,o),
(102,191,o),
(102,252,qs),
(102,631,ls),
(102,679,o),
(154,682,q),
(205,679,o),
(205,631,qs),
(205,223,l),
(226,102,o),
(373,102,qs),
(442,102,o),
(526,163,o),
(543,223,q),
(543,633,ls),
(543,681,o),
(594,684,q),
(645,681,o),
(645,633,qs)
);
}
);
width = 819;
}
);
unicode = 117;
},
{
glyphname = v;
layers = (
{
layerId = "F770CFF7-FFB9-4382-B2D4-F3546B3D0D49";
shapes = (
{
closed = 1;
nodes = (
(434,16,l),
(418,0,o),
(397,0,qs),
(386,0,o),
(370,8,o),
(362,16,q),
(113,610,l),
(92,658,o),
(139,678,qs),
(150,683,o),
(164,683,qs),
(193,683,o),
(207,649,qs),
(397,186,l),
(592,649,ls),
(606,683,o),
(634,683,qs),
(647,683,o),
(657,678,qs),
(706,657,o),
(686,610,qs)
);
}
);
width = 819;
}
);
unicode = 118;
},
{
glyphname = w;
layers = (
{
layerId = "F770CFF7-FFB9-4382-B2D4-F3546B3D0D49";
shapes = (
{
closed = 1;
nodes = (
(903,14,l),
(889,0,o),
(868,0,qs),
(846,0,o),
(831,14,q),
(629,498,l),
(424,16,l),
(408,0,o),
(387,0,qs),
(368,0,o),
(352,16,q),
(102,610,l),
(83,657,o),
(129,678,qs),
(143,684,o),
(153,684,qs),
(183,684,o),
(197,649,qs),
(387,186,l),
(582,649,ls),
(595,680,o),
(629,680,qs),
(663,680,o),
(676,649,qs),
(866,186,l),
(1061,647,ls),
(1076,682,o),
(1103,682,qs),
(1115,682,o),
(1128,676,qs),
(1174,657,o),
(1155,610,q)
);
}
);
width = 1229;
}
);
unicode = 119;
},
{
glyphname = x;
layers = (
{
layerId = "F770CFF7-FFB9-4382-B2D4-F3546B3D0D49";
shapes = (
{
closed = 1;
nodes = (
(475,342,l),
(686,86,ls),
(719,45,o),
(680,12,qs),
(661,-3,o),
(645,-3,qs),
(626,-3,o),
(608,18,q),
(410,262,l),
(201,18,ls),
(183,-3,o),
(164,-3,qs),
(147,-3,o),
(129,12,qs),
(90,45,o),
(123,84,qs),
(342,342,l),
(131,600,ls),
(99,640,o),
(137,672,q),
(154,688,o),
(172,688,qs),
(191,688,o),
(209,666,qs),
(410,422,l),
(616,664,ls),
(634,685,o),
(654,685,qs),
(670,685,o),
(688,670,qs),
(727,637,o),
(694,598,qs)
);
}
);
width = 819;
}
);
unicode = 120;
},
{
glyphname = y;
layers = (
{
layerId = "F770CFF7-FFB9-4382-B2D4-F3546B3D0D49";
shapes = (
{
closed = 1;
nodes = (
(166,-633,ls),
(152,-666,o),
(125,-666,qs),
(112,-666,o),
(98,-659,qs),
(53,-638,o),
(72,-592,qs),
(342,51,l),
(109,610,ls),
(90,655,o),
(135,678,q),
(146,682,o),
(158,682,qs),
(190,682,o),
(203,649,qs),
(393,186,l),
(588,649,ls),
(602,682,o),
(632,682,qs),
(642,682,o),
(653,678,qs),
(688,663,o),
(688,629,qs),
(688,626,o),
(686,620,o),
(684,616,qs)
);
}
);
width = 819;
}
);
unicode = 121;
},
{
glyphname = z;
layers = (
{
layerId = "F770CFF7-FFB9-4382-B2D4-F3546B3D0D49";
shapes = (
{
closed = 1;
nodes = (
(686,0,o),
(635,0,qs),
(152,0,ls),
(100,0,o),
(100,51,qs),
(100,59,o),
(104,74,o),
(109,80,qs),
(504,582,l),
(223,582,ls),
(200,582,o),
(174,607,o),
(172,633,q),
(174,659,o),
(200,684,o),
(223,684,qs),
(610,684,ls),
(662,684,o),
(662,633,qs),
(662,628,o),
(658,618,o),
(655,610,q),
(254,102,l),
(635,102,ls),
(686,102,o),
(686,51,qs)
);
}
);
width = 819;
}
);
unicode = 122;
},
{
glyphname = braceleft;
layers = (
{
layerId = "F770CFF7-FFB9-4382-B2D4-F3546B3D0D49";
shapes = (
{
closed = 1;
nodes = (
(396,1317,o),
(381,1233,q),
(381,889,l),
(375,823,ls),
(370,775,o),
(319,716,o),
(279,702,q),
(312,691,o),
(352,652,o),
(373,603,o),
(379,546,o),
(379,516,qs),
(379,164,ls),
(379,153,o),
(379,126,o),
(381,109,q),
(395,24,o),
(494,12,q),
(475,7,o),
(439,4,o),
(422,4,qs),
(291,4,o),
(274,102,q),
(274,110,o),
(272,137,o),
(272,156,q),
(274,516,l),
(268,575,ls),
(263,623,o),
(210,686,o),
(168,700,q),
(252,732,o),
(270,827,q),
(270,832,o),
(274,863,o),
(274,889,qs),
(274,1184,ls),
(274,1195,o),
(274,1222,o),
(276,1239,q),
(291,1335,o),
(424,1335,qs),
(456,1335,o),
(496,1329,q)
);
}
);
width = 717;
}
);
unicode = 123;
},
{
glyphname = bar;
layers = (
{
layerId = "F770CFF7-FFB9-4382-B2D4-F3546B3D0D49";
shapes = (
{
closed = 1;
nodes = (
(3000,0,l),
(3000,-35,l),
(0,-35,l),
(0,0,l)
);
},
{
closed = 1;
nodes = (
(3000,1562,l),
(3000,1527,l),
(0,1527,l),
(0,1562,l)
);
}
);
width = 943;
}
);
unicode = 124;
},
{
glyphname = braceright;
layers = (
{
layerId = "F770CFF7-FFB9-4382-B2D4-F3546B3D0D49";
shapes = (
{
closed = 1;
nodes = (
(454,686,o),
(400,623,o),
(395,575,qs),
(389,516,l),
(391,156,l),
(391,146,o),
(391,119,o),
(389,102,qs),
(375,4,o),
(242,4,qs),
(225,4,o),
(189,7,o),
(170,12,q),
(220,18,o),
(275,67,o),
(283,109,q),
(283,118,o),
(285,145,o),
(285,164,qs),
(285,516,ls),
(285,545,o),
(293,602,o),
(316,652,o),
(355,692,o),
(385,702,q),
(345,716,o),
(294,775,o),
(289,823,qs),
(283,889,l),
(283,1178,l),
(285,1189,o),
(285,1216,o),
(283,1233,qs),
(276,1278,o),
(217,1327,o),
(168,1333,q),
(201,1339,o),
(236,1339,qs),
(371,1339,o),
(387,1239,q),
(389,1231,o),
(389,1204,o),
(389,1184,qs),
(389,889,l),
(393,827,l),
(413,731,o),
(496,700,q)
);
}
);
width = 717;
}
);
unicode = 125;
},
{
glyphname = asciitilde;
layers = (
{
layerId = "F770CFF7-FFB9-4382-B2D4-F3546B3D0D49";
shapes = (
{
closed = 1;
nodes = (
(-236,762,o),
(-295,762,qs),
(-312,762,o),
(-366,785,o),
(-401,809,qs),
(-437,834,o),
(-465,834,qs),
(-515,834,o),
(-592,772,q),
(-606,758,o),
(-627,758,qs),
(-680,758,o),
(-680,811,qs),
(-680,829,o),
(-664,848,q),
(-528,936,o),
(-465,936,qs),
(-418,936,o),
(-362,899,qs),
(-310,864,o),
(-295,864,qs),
(-276,864,o),
(-212,895,o),
(-164,924,q),
(-150,938,o),
(-129,938,qs),
(-78,938,o),
(-78,887,qs),
(-78,867,o),
(-94,848,q)
);
}
);
width = 10;
}
);
unicode = 126;
},
{
glyphname = exclamdown;
layers = (
{
layerId = "F770CFF7-FFB9-4382-B2D4-F3546B3D0D49";
shapes = (
{
closed = 1;
nodes = (
(461,51,ls),
(461,3,o),
(410,0,q),
(358,3,o),
(358,51,qs),
(358,973,ls),
(358,1021,o),
(410,1024,q),
(461,1021,o),
(461,973,qs)
);
},
{
closed = 1;
nodes = (
(469,1212,o),
(410,1212,qs),
(350,1212,o),
(350,1272,qs),
(350,1331,o),
(410,1331,qs),
(469,1331,o),
(469,1272,qs)
);
}
);
width = 819;
}
);
unicode = 161;
},
{
glyphname = cent;
layers = (
{
layerId = "F770CFF7-FFB9-4382-B2D4-F3546B3D0D49";
shapes = (
{
closed = 1;
nodes = (
(725,179,o),
(582,158,q),
(582,51,ls),
(582,3,o),
(530,0,q),
(479,3,o),
(479,51,qs),
(479,158,l),
(420,169,o),
(325,234,o),
(259,326,o),
(223,438,o),
(223,496,qs),
(223,554,o),
(259,666,o),
(325,757,o),
(420,822,o),
(479,834,q),
(479,940,ls),
(479,988,o),
(530,991,q),
(582,988,o),
(582,940,qs),
(582,834,l),
(639,823,o),
(734,757,o),
(774,700,qs),
(804,659,o),
(766,629,qs),
(747,615,o),
(732,615,qs),
(712,615,o),
(694,637,qs),
(679,657,o),
(658,681,o),
(653,686,qs),
(620,717,o),
(582,729,q),
(582,262,l),
(666,283,o),
(709,379,qs),
(722,410,o),
(748,410,qs),
(762,410,o),
(776,403,qs),
(824,381,o),
(801,336,q)
);
},
{
closed = 1;
nodes = (
(479,727,l),
(445,717,o),
(389,670,o),
(349,607,o),
(326,533,o),
(326,496,qs),
(326,461,o),
(348,388,o),
(389,324,o),
(445,275,o),
(479,264,q)
);
}
);
width = 1024;
}
);
unicode = 162;
},
{
glyphname = dieresis;
layers = (
{
layerId = "F770CFF7-FFB9-4382-B2D4-F3546B3D0D49";
shapes = (
{
closed = 1;
nodes = (
(274,1149,o),
(211,1149,qs),
(150,1149,o),
(150,1212,qs),
(150,1274,o),
(211,1274,qs),
(274,1274,o),
(274,1212,qs)
);
},
{
closed = 1;
nodes = (
(592,1149,o),
(528,1149,qs),
(467,1149,o),
(467,1212,qs),
(467,1274,o),
(528,1274,qs),
(592,1274,o),
(592,1212,qs)
);
}
);
width = 819;
}
);
unicode = 168;
},
{
glyphname = copyright;
layers = (
{
layerId = "F770CFF7-FFB9-4382-B2D4-F3546B3D0D49";
shapes = (
{
closed = 1;
nodes = (
(576,471,o),
(475,471,qs),
(437,471,o),
(373,504,o),
(327,559,o),
(301,628,o),
(301,664,qs),
(301,702,o),
(327,771,o),
(374,824,o),
(438,856,o),
(475,856,qs),
(560,856,o),
(612,780,qs),
(628,758,o),
(606,739,qs),
(596,731,o),
(587,731,qs),
(576,731,o),
(565,743,q),
(521,799,o),
(475,799,qs),
(451,799,o),
(408,776,o),
(376,738,o),
(358,689,o),
(358,664,qs),
(358,639,o),
(376,591,o),
(408,553,o),
(451,530,o),
(475,530,qs),
(546,530,o),
(573,598,qs),
(580,616,o),
(595,616,qs),
(604,616,o),
(612,612,qs),
(640,599,o),
(627,573,qs)
);
},
{
closed = 1;
nodes = (
(899,562,o),
(832,406,o),
(716,289,o),
(560,221,o),
(471,221,qs),
(380,221,o),
(223,287,o),
(107,403,o),
(41,560,o),
(41,651,qs),
(41,741,o),
(108,897,o),
(225,1014,o),
(381,1081,o),
(471,1081,qs),
(559,1081,o),
(715,1013,o),
(831,896,o),
(899,739,o),
(899,651,qs)
);
},
{
closed = 1;
nodes = (
(848,730,o),
(790,868,o),
(688,971,o),
(550,1030,o),
(471,1030,qs),
(392,1030,o),
(253,971,o),
(151,869,o),
(92,731,o),
(92,651,qs),
(92,572,o),
(151,434,o),
(254,331,o),
(392,272,o),
(471,272,qs),
(550,272,o),
(687,332,o),
(789,435,o),
(848,573,o),
(848,651,qs)
);
}
);
width = 1024;
}
);
unicode = 169;
},
{
glyphname = guillemotleft;
layers = (
{
layerId = "F770CFF7-FFB9-4382-B2D4-F3546B3D0D49";
shapes = (
{
closed = 1;
nodes = (
(633,250,o),
(608,240,o),
(594,242,q),
(589,244,o),
(578,248,o),
(573,252,qs),
(272,469,ls),
(251,484,o),
(233,513,o),
(233,524,qs),
(233,546,o),
(272,573,q),
(561,782,l),
(566,787,o),
(577,791,o),
(582,793,q),
(609,796,o),
(631,770,q),
(658,726,o),
(618,698,q),
(373,520,l),
(631,336,ls),
(651,322,o),
(658,285,o),
(643,264,qs)
);
},
{
closed = 1;
nodes = (
(993,235,o),
(965,238,q),
(960,240,o),
(948,243,o),
(942,248,qs),
(641,465,l),
(604,498,o),
(604,518,qs),
(604,527,o),
(622,554,o),
(643,569,qs),
(930,776,ls),
(936,781,o),
(947,784,o),
(952,786,q),
(966,788,o),
(991,778,o),
(1001,764,qs),
(1031,722,o),
(989,692,qs),
(743,516,l),
(1001,330,ls),
(1040,302,o),
(1014,260,q)
);
}
);
width = 1229;
}
);
unicode = 171;
},
{
glyphname = registered;
layers = (
{
layerId = "F770CFF7-FFB9-4382-B2D4-F3546B3D0D49";
shapes = (
{
closed = 1;
nodes = (
(899,562,o),
(832,406,o),
(716,289,o),
(560,221,o),
(471,221,qs),
(380,221,o),
(223,287,o),
(107,403,o),
(41,560,o),
(41,651,qs),
(41,741,o),
(108,897,o),
(225,1014,o),
(381,1081,o),
(471,1081,qs),
(559,1081,o),
(715,1013,o),
(831,896,o),
(899,739,o),
(899,651,qs)
);
},
{
closed = 1;
nodes = (
(660,729,o),
(637,715,qs),
(625,708,o),
(617,708,qs),
(603,708,o),
(596,721,q),
(568,766,o),
(510,766,qs),
(434,766,o),
(416,698,q),
(416,467,ls),
(416,441,o),
(385,438,q),
(356,441,o),
(356,467,qs),
(356,795,ls),
(356,811,o),
(376,823,o),
(390,823,qs),
(413,823,o),
(416,799,q),
(416,793,l),
(443,823,o),
(510,823,qs),
(597,823,o),
(643,756,q)
);
},
{
closed = 1;
nodes = (
(848,730,o),
(790,868,o),
(688,971,o),
(550,1030,o),
(471,1030,qs),
(392,1030,o),
(253,971,o),
(151,869,o),
(92,731,o),
(92,651,qs),
(92,572,o),
(151,434,o),
(254,331,o),
(392,272,o),
(471,272,qs),
(550,272,o),
(687,332,o),
(789,435,o),
(848,573,o),
(848,651,qs)
);
}
);
width = 1024;
}
);
unicode = 174;
},
{
glyphname = macron;
layers = (
{
layerId = "F770CFF7-FFB9-4382-B2D4-F3546B3D0D49";
shapes = (
{
closed = 1;
nodes = (
(686,1198,l),
(0,1198,l),
(0,1329,l),
(686,1329,l)
);
}
);
width = 686;
}
);
unicode = 175;
},
{
glyphname = degree;
layers = (
{
layerId = "F770CFF7-FFB9-4382-B2D4-F3546B3D0D49";
shapes = (
{
closed = 1;
nodes = (
(496,1088,o),
(476,1135,o),
(441,1170,o),
(394,1190,o),
(367,1190,qs),
(340,1190,o),
(293,1170,o),
(258,1135,o),
(238,1088,o),
(238,1061,qs),
(238,1034,o),
(258,987,o),
(293,952,o),
(340,932,o),
(367,932,qs),
(394,932,o),
(441,952,o),
(476,987,o),
(496,1034,o),
(496,1061,qs)
);
},
{
closed = 1;
nodes = (
(598,1013,o),
(562,929,o),
(499,866,o),
(415,829,o),
(367,829,qs),
(319,829,o),
(234,865,o),
(171,928,o),
(135,1013,o),
(135,1061,qs),
(135,1110,o),
(171,1194,o),
(234,1256,o),
(319,1292,o),
(367,1292,qs),
(415,1292,o),
(500,1256,o),
(562,1194,o),
(598,1109,o),
(598,1061,qs)
);
}
);
width = 819;
}
);
unicode = 176;
},
{
glyphname = plusminus;
layers = (
{
layerId = "F770CFF7-FFB9-4382-B2D4-F3546B3D0D49";
shapes = (
{
closed = 1;
nodes = (
(910,205,o),
(862,205,qs),
(180,205,ls),
(157,205,o),
(131,230,o),
(129,256,q),
(131,282,o),
(157,307,o),
(180,307,qs),
(862,307,ls),
(910,307,o),
(913,256,q)
);
},
{
closed = 1;
nodes = (
(873,868,o),
(825,868,qs),
(545,868,l),
(545,588,ls),
(545,540,o),
(494,537,q),
(442,540,o),
(442,588,qs),
(442,868,l),
(162,868,ls),
(114,868,o),
(111,920,q),
(114,971,o),
(162,971,qs),
(442,971,l),
(442,1251,ls),
(442,1299,o),
(494,1303,q),
(545,1299,o),
(545,1251,qs),
(545,971,l),
(825,971,ls),
(873,971,o),
(877,920,q)
);
}
);
width = 1024;
}
);
unicode = 177;
},
{
glyphname = acute;
layers = (
{
layerId = "F770CFF7-FFB9-4382-B2D4-F3546B3D0D49";
shapes = (
{
closed = 1;
nodes = (
(557,1234,o),
(549,1221,qs),
(395,977,ls),
(379,952,o),
(356,952,qs),
(335,952,o),
(301,982,o),
(301,1004,qs),
(301,1012,o),
(305,1023,o),
(309,1030,qs),
(463,1274,ls),
(478,1298,o),
(502,1298,qs),
(557,1298,o),
(557,1249,qs)
);
}
);
width = 819;
}
);
unicode = 180;
},
{
glyphname = paragraph;
layers = (
{
layerId = "F770CFF7-FFB9-4382-B2D4-F3546B3D0D49";
shapes = (
{
closed = 1;
nodes = (
(784,55,ls),
(784,0,o),
(731,0,qs),
(682,0,o),
(682,55,qs),
(682,721,l),
(512,721,l),
(512,51,ls),
(512,3,o),
(461,0,q),
(410,3,o),
(410,51,qs),
(410,721,l),
(336,721,ls),
(271,721,o),
(160,768,o),
(78,850,o),
(31,961,o),
(31,1026,qs),
(31,1089,o),
(78,1201,o),
(160,1283,o),
(270,1331,o),
(334,1331,qs),
(733,1331,ls),
(784,1331,o),
(784,1280,qs)
);
},
{
closed = 1;
nodes = (
(410,823,l),
(410,1229,l),
(332,1229,ls),
(290,1229,o),
(216,1197,o),
(161,1142,o),
(129,1068,o),
(129,1026,qs),
(129,986,o),
(161,912,o),
(217,856,o),
(293,823,o),
(336,823,qs)
);
},
{
closed = 1;
nodes = (
(682,823,l),
(682,1229,l),
(512,1229,l),
(512,823,l)
);
}
);
width = 1024;
}
);
unicode = 182;
},
{
glyphname = periodcentered;
layers = (
{
layerId = "F770CFF7-FFB9-4382-B2D4-F3546B3D0D49";
shapes = (
{
closed = 1;
nodes = (
(492,579,o),
(445,530,o),
(410,530,qs),
(328,530,o),
(328,614,qs),
(328,650,o),
(374,698,o),
(410,698,qs),
(445,698,o),
(492,650,o),
(492,614,qs)
);
}
);
width = 819;
}
);
unicode = 183;
},
{
glyphname = cedilla;
layers = (
{
layerId = "F770CFF7-FFB9-4382-B2D4-F3546B3D0D49";
shapes = (
{
closed = 1;
nodes = (
(473,-314,o),
(437,-386,o),
(374,-436,o),
(287,-461,o),
(236,-461,qs),
(220,-461,o),
(180,-458,o),
(139,-453,o),
(100,-445,o),
(84,-440,q),
(84,-360,l),
(126,-369,ls),
(164,-377,o),
(207,-377,qs),
(231,-377,o),
(279,-368,o),
(317,-349,o),
(340,-317,o),
(340,-293,qs),
(340,-256,o),
(284,-217,o),
(244,-217,qs),
(236,-217,o),
(220,-221,o),
(213,-223,q),
(197,-229,l),
(197,0,l),
(276,0,l),
(276,-129,l),
(287,-127,o),
(307,-121,o),
(324,-121,qs),
(355,-121,o),
(409,-137,o),
(450,-172,o),
(473,-227,o),
(473,-266,qs)
);
}
);
width = 473;
}
);
unicode = 184;
},
{
glyphname = guillemotright;
layers = (
{
layerId = "F770CFF7-FFB9-4382-B2D4-F3546B3D0D49";
shapes = (
{
closed = 1;
nodes = (
(643,498,o),
(606,465,q),
(305,248,ls),
(299,243,o),
(288,240,o),
(283,238,q),
(254,235,o),
(233,260,q),
(207,302,o),
(246,330,qs),
(504,516,l),
(258,692,ls),
(238,706,o),
(231,743,o),
(246,764,qs),
(256,778,o),
(281,788,o),
(295,786,q),
(300,784,o),
(311,781,o),
(317,776,qs),
(604,569,ls),
(625,554,o),
(643,527,o),
(643,518,qs)
);
},
{
closed = 1;
nodes = (
(1014,504,o),
(977,469,q),
(676,252,ls),
(670,247,o),
(658,244,o),
(653,242,q),
(624,239,o),
(604,264,q),
(577,308,o),
(616,336,qs),
(874,520,l),
(629,698,ls),
(589,727,o),
(616,770,q),
(638,796,o),
(666,793,q),
(671,791,o),
(682,787,o),
(688,782,qs),
(975,573,l),
(1014,546,o),
(1014,524,qs)
);
}
);
width = 1229;
}
);
unicode = 187;
},
{
glyphname = questiondown;
layers = (
{
layerId = "F770CFF7-FFB9-4382-B2D4-F3546B3D0D49";
shapes = (
{
closed = 1;
nodes = (
(737,179,o),
(701,96,o),
(640,35,o),
(559,0,o),
(512,0,qs),
(463,0,o),
(380,34,o),
(319,94,o),
(285,177,o),
(285,227,qs),
(285,269,o),
(317,383,o),
(352,457,qs),
(422,603,o),
(422,688,qs),
(422,983,ls),
(422,1031,o),
(473,1034,q),
(524,1031,o),
(524,983,qs),
(524,676,ls),
(524,626,o),
(490,510,o),
(455,444,qs),
(385,313,o),
(385,227,qs),
(385,202,o),
(406,157,o),
(440,122,o),
(487,102,o),
(512,102,qs),
(565,102,o),
(635,167,o),
(637,221,qs),
(639,274,o),
(690,274,qs),
(699,274,o),
(716,266,o),
(731,252,o),
(739,236,o),
(739,227,q)
);
},
{
closed = 1;
nodes = (
(530,1212,o),
(471,1212,qs),
(412,1212,o),
(412,1272,qs),
(412,1331,o),
(471,1331,qs),
(530,1331,o),
(530,1272,qs)
);
}
);
width = 1024;
}
);
unicode = 191;
},
{
glyphname = Agrave;
layers = (
{
layerId = "F770CFF7-FFB9-4382-B2D4-F3546B3D0D49";
shapes = (
{
closed = 1;
nodes = (
(1192,24,o),
(1163,6,q),
(1148,0,o),
(1137,0,qs),
(1109,0,o),
(1094,29,qs),
(864,465,l),
(428,465,l),
(201,29,ls),
(186,0,o),
(158,0,qs),
(146,0,o),
(131,6,q),
(102,25,o),
(102,51,qs),
(102,57,o),
(106,70,o),
(111,76,q),
(592,999,ls),
(618,1049,o),
(645,1049,qs),
(673,1049,o),
(698,1001,qs),
(1184,76,l),
(1192,65,o),
(1192,51,qs)
);
},
{
closed = 1;
nodes = (
(743,1152,o),
(733,1133,o),
(718,1118,o),
(699,1108,o),
(690,1108,qs),
(673,1108,o),
(655,1124,q),
(510,1268,ls),
(494,1284,o),
(494,1303,qs),
(494,1323,o),
(527,1356,o),
(547,1356,qs),
(565,1356,o),
(582,1339,qs),
(727,1196,ls),
(743,1180,o),
(743,1161,qs)
);
},
{
closed = 1;
nodes = (
(811,567,l),
(645,881,l),
(481,567,l)
);
}
);
width = 1331;
}
);
unicode = 192;
},
{
glyphname = Aacute;
layers = (
{
layerId = "F770CFF7-FFB9-4382-B2D4-F3546B3D0D49";
shapes = (
{
closed = 1;
nodes = (
(1192,24,o),
(1163,6,q),
(1148,0,o),
(1137,0,qs),
(1109,0,o),
(1094,29,qs),
(864,465,l),
(428,465,l),
(201,29,ls),
(186,0,o),
(158,0,qs),
(146,0,o),
(131,6,q),
(102,25,o),
(102,51,qs),
(102,57,o),
(106,70,o),
(111,76,q),
(592,999,ls),
(618,1049,o),
(645,1049,qs),
(673,1049,o),
(698,1001,qs),
(1184,76,l),
(1192,65,o),
(1192,51,qs)
);
},
{
closed = 1;
nodes = (
(864,1294,o),
(848,1278,qs),
(702,1135,ls),
(694,1127,o),
(677,1118,o),
(668,1118,qs),
(659,1118,o),
(639,1128,o),
(624,1143,o),
(614,1162,o),
(614,1171,qs),
(614,1191,o),
(631,1206,q),
(776,1350,l),
(794,1366,o),
(811,1366,qs),
(830,1366,o),
(864,1333,o),
(864,1313,qs)
);
},
{
closed = 1;
nodes = (
(811,567,l),
(645,881,l),
(481,567,l)
);
}
);
width = 1331;
}
);
unicode = 193;
},
{
glyphname = Acircumflex;
layers = (
{
layerId = "F770CFF7-FFB9-4382-B2D4-F3546B3D0D49";
shapes = (
{
closed = 1;
nodes = (
(1192,24,o),
(1163,6,q),
(1148,0,o),
(1137,0,qs),
(1109,0,o),
(1094,29,qs),
(864,465,l),
(428,465,l),
(201,29,ls),
(186,0,o),
(158,0,qs),
(146,0,o),
(131,6,q),
(102,25,o),
(102,51,qs),
(102,57,o),
(106,70,o),
(111,76,q),
(592,999,ls),
(618,1049,o),
(645,1049,qs),
(673,1049,o),
(698,1001,qs),
(1184,76,l),
(1192,65,o),
(1192,51,qs)
);
},
{
closed = 1;
nodes = (
(932,1060,o),
(922,1041,o),
(907,1026,o),
(888,1016,o),
(879,1016,qs),
(860,1016,o),
(844,1032,qs),
(647,1229,l),
(449,1032,l),
(431,1016,o),
(414,1016,qs),
(395,1016,o),
(360,1050,o),
(360,1069,qs),
(360,1078,o),
(369,1096,o),
(377,1104,qs),
(610,1337,ls),
(627,1354,o),
(645,1354,qs),
(647,1354,ls),
(660,1354,o),
(682,1337,q),
(915,1104,ls),
(932,1087,o),
(932,1069,qs)
);
},
{
closed = 1;
nodes = (
(811,567,l),
(645,881,l),
(481,567,l)
);
}
);
width = 1331;
}
);
unicode = 194;
},
{
glyphname = Atilde;
layers = (
{
layerId = "F770CFF7-FFB9-4382-B2D4-F3546B3D0D49";
shapes = (
{
closed = 1;
nodes = (
(1192,24,o),
(1163,6,q),
(1148,0,o),
(1137,0,qs),
(1109,0,o),
(1094,29,qs),
(864,465,l),
(428,465,l),
(201,29,ls),
(186,0,o),
(158,0,qs),
(146,0,o),
(131,6,q),
(102,25,o),
(102,51,qs),
(102,57,o),
(106,70,o),
(111,76,q),
(592,999,ls),
(618,1049,o),
(645,1049,qs),
(673,1049,o),
(698,1001,qs),
(1184,76,l),
(1192,65,o),
(1192,51,qs)
);
},
{
closed = 1;
nodes = (
(970,1277,o),
(936,1239,q),
(829,1167,o),
(741,1167,qs),
(715,1167,o),
(655,1192,qs),
(594,1217,o),
(553,1217,qs),
(491,1217,o),
(428,1174,q),
(409,1157,o),
(391,1157,qs),
(375,1157,o),
(356,1174,q),
(322,1208,o),
(358,1247,q),
(462,1319,o),
(553,1319,qs),
(599,1319,o),
(657,1292,qs),
(686,1279,o),
(729,1268,o),
(741,1268,qs),
(773,1268,o),
(835,1288,o),
(864,1311,qs),
(884,1328,o),
(902,1328,qs),
(919,1328,o),
(936,1311,qs)
);
},
{
closed = 1;
nodes = (
(811,567,l),
(645,881,l),
(481,567,l)
);
}
);
width = 1331;
}
);
unicode = 195;
},
{
glyphname = Adieresis;
layers = (
{
layerId = "F770CFF7-FFB9-4382-B2D4-F3546B3D0D49";
shapes = (
{
closed = 1;
nodes = (
(1192,24,o),
(1163,6,q),
(1148,0,o),
(1137,0,qs),
(1109,0,o),
(1094,29,qs),
(864,465,l),
(428,465,l),
(201,29,ls),
(186,0,o),
(158,0,qs),
(146,0,o),
(131,6,q),
(102,25,o),
(102,51,qs),
(102,57,o),
(106,70,o),
(111,76,q),
(592,999,ls),
(618,1049,o),
(645,1049,qs),
(673,1049,o),
(698,1001,qs),
(1184,76,l),
(1192,65,o),
(1192,51,qs)
);
},
{
closed = 1;
nodes = (
(551,1110,o),
(487,1110,qs),
(426,1110,o),
(426,1174,qs),
(426,1235,o),
(487,1235,qs),
(551,1235,o),
(551,1174,qs)
);
},
{
closed = 1;
nodes = (
(868,1110,o),
(805,1110,qs),
(743,1110,o),
(743,1174,qs),
(743,1235,o),
(805,1235,qs),
(868,1235,o),
(868,1174,qs)
);
},
{
closed = 1;
nodes = (
(811,567,l),
(645,881,l),
(483,567,l)
);
}
);
width = 1331;
}
);
unicode = 196;
},
{
glyphname = Aring;
layers = (
{
layerId = "F770CFF7-FFB9-4382-B2D4-F3546B3D0D49";
shapes = (
{
closed = 1;
nodes = (
(1192,24,o),
(1163,6,q),
(1148,0,o),
(1137,0,qs),
(1109,0,o),
(1094,29,qs),
(864,465,l),
(428,465,l),
(201,29,ls),
(186,0,o),
(158,0,qs),
(146,0,o),
(131,6,q),
(102,25,o),
(102,51,qs),
(102,57,o),
(106,70,o),
(111,76,q),
(592,999,ls),
(618,1049,o),
(645,1049,qs),
(673,1049,o),
(698,1001,qs),
(1184,76,l),
(1192,65,o),
(1192,51,qs)
);
},
{
closed = 1;
nodes = (
(772,1218,o),
(752,1173,o),
(718,1138,o),
(673,1118,o),
(647,1118,qs),
(622,1118,o),
(577,1138,o),
(542,1173,o),
(522,1218,o),
(522,1243,qs),
(522,1269,o),
(542,1314,o),
(577,1348,o),
(622,1368,o),
(647,1368,qs),
(673,1368,o),
(718,1348,o),
(752,1314,o),
(772,1269,o),
(772,1243,qs)
);
},
{
closed = 1;
nodes = (
(811,567,l),
(645,881,l),
(481,567,l)
);
},
{
closed = 1;
nodes = (
(709,1305,o),
(647,1305,qs),
(584,1305,o),
(584,1243,qs),
(584,1180,o),
(647,1180,qs),
(709,1180,o),
(709,1243,qs)
);
}
);
width = 1331;
}
);
unicode = 197;
},
{
glyphname = AE;
layers = (
{
layerId = "F770CFF7-FFB9-4382-B2D4-F3546B3D0D49";
shapes = (
{
closed = 1;
nodes = (
(1551,0,o),
(1503,0,qs),
(727,0,ls),
(676,0,o),
(676,51,qs),
(676,633,l),
(481,633,l),
(201,33,ls),
(186,2,o),
(158,2,qs),
(137,2,o),
(102,30,o),
(102,53,qs),
(102,60,o),
(109,76,qs),
(676,1290,l),
(679,1331,o),
(727,1331,qs),
(1503,1331,ls),
(1551,1331,o),
(1554,1280,q),
(1551,1229,o),
(1503,1229,qs),
(778,1229,l),
(778,735,l),
(1212,735,ls),
(1261,735,o),
(1264,684,q),
(1261,633,o),
(1212,633,qs),
(778,633,l),
(778,102,l),
(1503,102,ls),
(1551,102,o),
(1554,51,q)
);
},
{
closed = 1;
nodes = (
(676,735,l),
(676,1049,l),
(528,735,l)
);
}
);
width = 1843;
}
);
unicode = 198;
},
{
glyphname = Ccedilla;
layers = (
{
layerId = "F770CFF7-FFB9-4382-B2D4-F3546B3D0D49";
shapes = (
{
closed = 1;
nodes = (
(1341,1049,o),
(1341,1026,qs),
(1341,975,o),
(1290,975,qs),
(1279,975,o),
(1263,983,o),
(1255,991,q),
(1085,1227,o),
(784,1227,qs),
(541,1227,o),
(373,1059,qs),
(205,891,o),
(205,647,qs),
(205,403,o),
(373,254,qs),
(543,102,o),
(784,102,qs),
(1068,102,o),
(1245,330,qs),
(1262,351,o),
(1282,351,qs),
(1299,351,o),
(1317,336,qs),
(1354,304,o),
(1323,264,qs),
(1134,23,o),
(838,2,q),
(827,-55,l),
(855,-57,o),
(900,-81,o),
(932,-119,o),
(952,-167,o),
(954,-193,qs),
(957,-223,o),
(940,-279,o),
(905,-324,o),
(852,-353,o),
(819,-356,q),
(815,-356,o),
(809,-357,o),
(805,-357,qs),
(748,-357,o),
(696,-311,q),
(743,-252,l),
(769,-279,o),
(804,-279,qs),
(811,-279,l),
(843,-277,o),
(883,-229,o),
(881,-197,qs),
(878,-161,o),
(835,-129,o),
(797,-129,qs),
(727,-129,l),
(754,0,l),
(618,6,o),
(380,105,o),
(203,275,o),
(102,509,o),
(102,649,qs),
(102,934,o),
(299,1133,qs),
(497,1331,o),
(784,1331,qs),
(1127,1331,o),
(1327,1063,q)
);
}
);
width = 1434;
}
);
unicode = 199;
},
{
glyphname = Egrave;
layers = (
{
layerId = "F770CFF7-FFB9-4382-B2D4-F3546B3D0D49";
shapes = (
{
closed = 1;
nodes = (
(822,0,o),
(774,0,qs),
(154,0,ls),
(102,0,o),
(102,51,qs),
(102,1034,ls),
(102,1085,o),
(154,1085,qs),
(774,1085,ls),
(822,1085,o),
(825,1034,q),
(822,983,o),
(774,983,qs),
(205,983,l),
(205,608,l),
(543,608,ls),
(566,608,o),
(592,583,o),
(594,557,q),
(592,531,o),
(566,506,o),
(543,506,qs),
(205,506,l),
(205,102,l),
(774,102,ls),
(822,102,o),
(825,51,q)
);
},
{
closed = 1;
nodes = (
(598,1152,o),
(588,1133,o),
(573,1118,o),
(554,1108,o),
(545,1108,qs),
(526,1108,o),
(510,1124,qs),
(365,1268,l),
(348,1283,o),
(348,1303,qs),
(348,1313,o),
(358,1332,o),
(373,1347,o),
(392,1356,o),
(401,1356,qs),
(411,1356,o),
(428,1347,o),
(436,1339,qs),
(582,1196,ls),
(598,1180,o),
(598,1161,qs)
);
}
);
width = 1024;
}
);
unicode = 200;
},
{
glyphname = Eacute;
layers = (
{
layerId = "F770CFF7-FFB9-4382-B2D4-F3546B3D0D49";
shapes = (
{
closed = 1;
nodes = (
(822,0,o),
(774,0,qs),
(154,0,ls),
(102,0,o),
(102,51,qs),
(102,1034,ls),
(102,1085,o),
(154,1085,qs),
(774,1085,ls),
(822,1085,o),
(825,1034,q),
(822,983,o),
(774,983,qs),
(205,983,l),
(205,608,l),
(543,608,ls),
(566,608,o),
(592,583,o),
(594,557,q),
(592,531,o),
(566,506,o),
(543,506,qs),
(205,506,l),
(205,102,l),
(774,102,ls),
(822,102,o),
(825,51,q)
);
},
{
closed = 1;
nodes = (
(598,1294,o),
(582,1278,qs),
(436,1135,ls),
(428,1127,o),
(411,1118,o),
(401,1118,qs),
(392,1118,o),
(373,1128,o),
(358,1143,o),
(348,1162,o),
(348,1171,qs),
(348,1191,o),
(365,1206,q),
(510,1350,ls),
(526,1366,o),
(545,1366,qs),
(565,1366,o),
(598,1333,o),
(598,1313,qs)
);
}
);
width = 1024;
}
);
unicode = 201;
},
{
glyphname = Ecircumflex;
layers = (
{
layerId = "F770CFF7-FFB9-4382-B2D4-F3546B3D0D49";
shapes = (
{
closed = 1;
nodes = (
(822,0,o),
(774,0,qs),
(154,0,ls),
(102,0,o),
(102,51,qs),
(102,1034,ls),
(102,1085,o),
(154,1085,qs),
(774,1085,ls),
(822,1085,o),
(825,1034,q),
(822,983,o),
(774,983,qs),
(205,983,l),
(205,608,l),
(543,608,ls),
(566,608,o),
(592,583,o),
(594,557,q),
(592,531,o),
(566,506,o),
(543,506,qs),
(205,506,l),
(205,102,l),
(774,102,ls),
(822,102,o),
(825,51,q)
);
},
{
closed = 1;
nodes = (
(672,1160,o),
(662,1141,o),
(647,1126,o),
(627,1116,o),
(618,1116,qs),
(599,1116,o),
(584,1133,q),
(473,1245,l),
(362,1133,l),
(347,1116,o),
(328,1116,qs),
(319,1116,o),
(299,1126,o),
(284,1141,o),
(274,1160,o),
(274,1169,qs),
(274,1179,o),
(283,1196,o),
(291,1204,qs),
(438,1352,l),
(475,1368,l),
(481,1366,o),
(499,1360,o),
(510,1352,q),
(655,1204,ls),
(663,1196,o),
(672,1179,o),
(672,1169,qs)
);
}
);
width = 1024;
}
);
unicode = 202;
},
{
glyphname = Edieresis;
layers = (
{
layerId = "F770CFF7-FFB9-4382-B2D4-F3546B3D0D49";
shapes = (
{
closed = 1;
nodes = (
(822,0,o),
(774,0,qs),
(154,0,ls),
(102,0,o),
(102,51,qs),
(102,1034,ls),
(102,1085,o),
(154,1085,qs),
(774,1085,ls),
(822,1085,o),
(825,1034,q),
(822,983,o),
(774,983,qs),
(205,983,l),
(205,608,l),
(543,608,ls),
(566,608,o),
(592,583,o),
(594,557,q),
(592,531,o),
(566,506,o),
(543,506,qs),
(205,506,l),
(205,102,l),
(774,102,ls),
(822,102,o),
(825,51,q)
);
},
{
closed = 1;
nodes = (
(377,1165,o),
(315,1165,qs),
(252,1165,o),
(252,1229,qs),
(252,1290,o),
(315,1290,qs),
(377,1290,o),
(377,1229,qs)
);
},
{
closed = 1;
nodes = (
(694,1165,o),
(633,1165,qs),
(569,1165,o),
(569,1229,qs),
(569,1290,o),
(633,1290,qs),
(694,1290,o),
(694,1229,qs)
);
}
);
width = 1024;
}
);
unicode = 203;
},
{
glyphname = Igrave;
layers = (
{
layerId = "F770CFF7-FFB9-4382-B2D4-F3546B3D0D49";
shapes = (
{
closed = 1;
nodes = (
(426,1152,o),
(416,1133,o),
(401,1118,o),
(382,1108,o),
(373,1108,q),
(428,1108,ls),
(476,1108,o),
(479,1057,q),
(476,1006,o),
(428,1006,qs),
(352,1006,l),
(352,102,l),
(438,102,ls),
(486,102,o),
(489,51,q),
(486,0,o),
(438,0,qs),
(164,0,ls),
(116,0,o),
(113,51,q),
(116,102,o),
(164,102,qs),
(250,102,l),
(250,1006,l),
(154,1006,ls),
(105,1006,o),
(102,1057,q),
(105,1108,o),
(154,1108,qs),
(373,1108,l),
(354,1108,o),
(338,1124,qs),
(193,1268,l),
(176,1283,o),
(176,1303,qs),
(176,1323,o),
(209,1356,o),
(229,1356,qs),
(239,1356,o),
(256,1347,o),
(264,1339,qs),
(410,1196,ls),
(426,1180,o),
(426,1161,qs)
);
}
);
width = 717;
}
);
unicode = 204;
},
{
glyphname = Iacute;
layers = (
{
layerId = "F770CFF7-FFB9-4382-B2D4-F3546B3D0D49";
shapes = (
{
closed = 1;
nodes = (
(486,0,o),
(438,0,qs),
(164,0,ls),
(116,0,o),
(113,51,q),
(116,102,o),
(164,102,qs),
(250,102,l),
(250,1006,l),
(154,1006,ls),
(105,1006,o),
(102,1057,q),
(105,1108,o),
(154,1108,qs),
(428,1108,ls),
(476,1108,o),
(479,1057,q),
(476,1006,o),
(428,1006,qs),
(352,1006,l),
(352,102,l),
(438,102,ls),
(486,102,o),
(489,51,q)
);
},
{
closed = 1;
nodes = (
(426,1294,o),
(410,1278,qs),
(264,1135,ls),
(256,1127,o),
(239,1118,o),
(229,1118,qs),
(220,1118,o),
(201,1128,o),
(186,1143,o),
(176,1162,o),
(176,1171,qs),
(176,1191,o),
(193,1206,q),
(338,1350,ls),
(354,1366,o),
(373,1366,qs),
(393,1366,o),
(426,1333,o),
(426,1313,qs)
);
}
);
width = 717;
}
);
unicode = 205;
},
{
glyphname = Icircumflex;
layers = (
{
layerId = "F770CFF7-FFB9-4382-B2D4-F3546B3D0D49";
shapes = (
{
closed = 1;
nodes = (
(486,0,o),
(438,0,qs),
(164,0,ls),
(116,0,o),
(113,51,q),
(116,102,o),
(164,102,qs),
(250,102,l),
(250,1006,l),
(154,1006,ls),
(105,1006,o),
(102,1057,q),
(105,1108,o),
(154,1108,qs),
(428,1108,ls),
(476,1108,o),
(479,1057,q),
(476,1006,o),
(428,1006,qs),
(352,1006,l),
(352,102,l),
(438,102,ls),
(486,102,o),
(489,51,q)
);
},
{
closed = 1;
nodes = (
(500,1160,o),
(490,1141,o),
(475,1126,o),
(455,1116,o),
(446,1116,qs),
(427,1116,o),
(412,1133,q),
(301,1245,l),
(190,1133,l),
(175,1116,o),
(156,1116,qs),
(147,1116,o),
(127,1126,o),
(112,1141,o),
(102,1160,o),
(102,1169,qs),
(102,1179,o),
(111,1196,o),
(119,1204,qs),
(266,1352,l),
(303,1368,l),
(308,1366,o),
(326,1360,o),
(338,1352,q),
(483,1204,ls),
(491,1196,o),
(500,1179,o),
(500,1169,qs)
);
}
);
width = 717;
}
);
unicode = 206;
},
{
glyphname = Idieresis;
layers = (
{
layerId = "F770CFF7-FFB9-4382-B2D4-F3546B3D0D49";
shapes = (
{
closed = 1;
nodes = (
(509,0,o),
(461,0,qs),
(186,0,ls),
(163,0,o),
(137,25,o),
(135,51,q),
(137,77,o),
(163,102,o),
(186,102,qs),
(272,102,l),
(272,1006,l),
(176,1006,ls),
(128,1006,o),
(125,1057,q),
(128,1108,o),
(176,1108,qs),
(451,1108,ls),
(474,1108,o),
(500,1083,o),
(502,1057,q),
(500,1031,o),
(474,1006,o),
(451,1006,qs),
(375,1006,l),
(375,102,l),
(461,102,ls),
(509,102,o),
(512,51,q)
);
},
{
closed = 1;
nodes = (
(227,1165,o),
(164,1165,qs),
(102,1165,o),
(102,1229,qs),
(102,1290,o),
(164,1290,qs),
(227,1290,o),
(227,1229,qs)
);
},
{
closed = 1;
nodes = (
(545,1165,o),
(481,1165,qs),
(420,1165,o),
(420,1229,qs),
(420,1290,o),
(481,1290,qs),
(545,1290,o),
(545,1229,qs)
);
}
);
width = 717;
}
);
unicode = 207;
},
{
glyphname = Ntilde;
layers = (
{
layerId = "F770CFF7-FFB9-4382-B2D4-F3546B3D0D49";
shapes = (
{
closed = 1;
nodes = (
(1047,51,ls),
(1047,0,o),
(995,0,qs),
(966,0,o),
(950,27,q),
(285,887,l),
(285,51,ls),
(285,3,o),
(233,0,q),
(182,3,o),
(182,51,qs),
(182,1034,ls),
(182,1082,o),
(233,1085,q),
(250,1088,o),
(274,1067,q),
(944,199,l),
(944,1034,ls),
(944,1082,o),
(995,1085,q),
(1047,1082,o),
(1047,1034,qs)
);
},
{
closed = 1;
nodes = (
(960,1277,o),
(924,1239,q),
(820,1167,o),
(729,1167,qs),
(706,1167,o),
(645,1192,qs),
(584,1217,o),
(541,1217,qs),
(478,1217,o),
(418,1174,q),
(399,1157,o),
(381,1157,qs),
(365,1157,o),
(346,1174,q),
(313,1207,o),
(346,1247,q),
(453,1319,o),
(541,1319,qs),
(564,1319,o),
(616,1305,o),
(645,1292,qs),
(676,1279,o),
(718,1268,o),
(729,1268,qs),
(793,1268,o),
(854,1311,q),
(874,1328,o),
(891,1328,qs),
(909,1328,o),
(926,1311,qs)
);
}
);
width = 1229;
}
);
unicode = 209;
},
{
glyphname = Ograve;
layers = (
{
layerId = "F770CFF7-FFB9-4382-B2D4-F3546B3D0D49";
shapes = (
{
closed = 1;
nodes = (
(782,1145,o),
(754,1113,o),
(737,1109,q),
(918,1087,o),
(1053,952,qs),
(1214,791,o),
(1214,557,qs),
(1214,323,o),
(1053,162,qs),
(891,0,o),
(657,0,qs),
(539,0,o),
(336,86,o),
(187,236,o),
(102,439,o),
(102,557,qs),
(102,675,o),
(187,878,o),
(336,1028,o),
(539,1114,o),
(657,1114,qs),
(671,1114,o),
(698,1113,o),
(712,1112,q),
(707,1114,o),
(698,1120,o),
(694,1124,qs),
(551,1268,ls),
(535,1284,o),
(535,1303,qs),
(535,1323,o),
(568,1356,o),
(588,1356,qs),
(596,1356,o),
(614,1348,o),
(623,1339,qs),
(766,1196,ls),
(782,1180,o),
(782,1161,qs)
);
},
{
closed = 1;
nodes = (
(1112,650,o),
(1041,816,o),
(918,939,o),
(752,1010,o),
(657,1010,qs),
(561,1010,o),
(396,939,o),
(275,816,o),
(205,650,o),
(205,555,qs),
(205,459,o),
(274,294,o),
(396,172,o),
(561,102,o),
(657,102,qs),
(848,102,o),
(979,233,qs),
(1045,300,o),
(1112,459,o),
(1112,555,qs)
);
}
);
width = 1331;
}
);
unicode = 210;
},
{
glyphname = Oacute;
layers = (
{
layerId = "F770CFF7-FFB9-4382-B2D4-F3546B3D0D49";
shapes = (
{
closed = 1;
nodes = (
(1214,323,o),
(1053,162,qs),
(891,0,o),
(657,0,qs),
(539,0,o),
(336,86,o),
(187,236,o),
(102,439,o),
(102,557,qs),
(102,675,o),
(187,878,o),
(336,1028,o),
(539,1114,o),
(657,1114,qs),
(891,1114,o),
(1053,952,qs),
(1214,791,o),
(1214,557,qs)
);
},
{
closed = 1;
nodes = (
(782,1294,o),
(766,1278,qs),
(623,1135,ls),
(614,1126,o),
(596,1118,o),
(588,1118,qs),
(578,1118,o),
(559,1128,o),
(544,1143,o),
(535,1162,o),
(535,1171,qs),
(535,1190,o),
(551,1206,qs),
(694,1350,ls),
(709,1366,o),
(729,1366,qs),
(749,1366,o),
(782,1333,o),
(782,1313,qs)
);
},
{
closed = 1;
nodes = (
(1112,650,o),
(1041,816,o),
(918,939,o),
(752,1010,o),
(657,1010,qs),
(561,1010,o),
(396,939,o),
(275,816,o),
(205,650,o),
(205,555,qs),
(205,459,o),
(274,294,o),
(396,172,o),
(561,102,o),
(657,102,qs),
(848,102,o),
(979,233,qs),
(1045,300,o),
(1112,459,o),
(1112,555,qs)
);
}
);
width = 1331;
}
);
unicode = 211;
},
{
glyphname = Ocircumflex;
layers = (
{
layerId = "F770CFF7-FFB9-4382-B2D4-F3546B3D0D49";
shapes = (
{
closed = 1;
nodes = (
(1214,323,o),
(1053,162,qs),
(891,0,o),
(657,0,qs),
(539,0,o),
(336,86,o),
(187,236,o),
(102,439,o),
(102,557,qs),
(102,675,o),
(187,878,o),
(336,1028,o),
(539,1114,o),
(657,1114,qs),
(891,1114,o),
(1053,952,qs),
(1214,791,o),
(1214,557,qs)
);
},
{
closed = 1;
nodes = (
(856,1160,o),
(847,1141,o),
(832,1126,o),
(813,1116,o),
(803,1116,qs),
(783,1116,o),
(768,1133,q),
(657,1245,l),
(547,1133,l),
(532,1116,o),
(512,1116,qs),
(503,1116,o),
(484,1126,o),
(469,1141,o),
(459,1160,o),
(459,1169,qs),
(459,1188,o),
(475,1204,qs),
(623,1352,l),
(659,1368,l),
(666,1366,o),
(683,1360,o),
(694,1352,q),
(840,1204,ls),
(856,1188,o),
(856,1169,qs)
);
},
{
closed = 1;
nodes = (
(1112,650,o),
(1041,816,o),
(918,939,o),
(752,1010,o),
(657,1010,qs),
(561,1010,o),
(396,939,o),
(275,816,o),
(205,650,o),
(205,555,qs),
(205,459,o),
(274,294,o),
(396,172,o),
(561,102,o),
(657,102,qs),
(848,102,o),
(979,233,qs),
(1045,300,o),
(1112,459,o),
(1112,555,qs)
);
}
);
width = 1331;
}
);
unicode = 212;
},
{
glyphname = Otilde;
layers = (
{
layerId = "F770CFF7-FFB9-4382-B2D4-F3546B3D0D49";
shapes = (
{
closed = 1;
nodes = (
(1214,323,o),
(1053,162,qs),
(891,0,o),
(657,0,qs),
(539,0,o),
(336,86,o),
(187,236,o),
(102,439,o),
(102,557,qs),
(102,675,o),
(187,878,o),
(336,1028,o),
(539,1114,o),
(657,1114,qs),
(891,1114,o),
(1053,952,qs),
(1214,791,o),
(1214,557,qs)
);
},
{
closed = 1;
nodes = (
(979,1308,o),
(944,1272,q),
(837,1200,o),
(748,1200,qs),
(723,1200,o),
(664,1225,qs),
(635,1238,o),
(583,1249,o),
(561,1249,qs),
(494,1249,o),
(436,1206,q),
(420,1190,o),
(401,1190,qs),
(383,1190,o),
(365,1208,qs),
(331,1243,o),
(365,1280,q),
(417,1315,o),
(515,1352,o),
(561,1352,qs),
(606,1352,o),
(666,1325,qs),
(695,1312,o),
(737,1300,o),
(748,1300,qs),
(814,1300,o),
(872,1343,q),
(890,1360,o),
(909,1360,qs),
(928,1360,o),
(944,1343,qs)
);
},
{
closed = 1;
nodes = (
(1112,650,o),
(1041,816,o),
(918,939,o),
(752,1010,o),
(657,1010,qs),
(561,1010,o),
(396,939,o),
(275,816,o),
(205,650,o),
(205,555,qs),
(205,459,o),
(274,294,o),
(396,172,o),
(561,102,o),
(657,102,qs),
(848,102,o),
(979,233,qs),
(1045,300,o),
(1112,459,o),
(1112,555,qs)
);
}
);
width = 1331;
}
);
unicode = 213;
},
{
glyphname = Odieresis;
layers = (
{
layerId = "F770CFF7-FFB9-4382-B2D4-F3546B3D0D49";
shapes = (
{
closed = 1;
nodes = (
(1214,323,o),
(1053,162,qs),
(891,0,o),
(657,0,qs),
(539,0,o),
(336,86,o),
(187,236,o),
(102,439,o),
(102,557,qs),
(102,675,o),
(187,878,o),
(336,1028,o),
(539,1114,o),
(657,1114,qs),
(891,1114,o),
(1053,952,qs),
(1214,791,o),
(1214,557,qs)
);
},
{
closed = 1;
nodes = (
(561,1149,o),
(500,1149,qs),
(436,1149,o),
(436,1210,qs),
(436,1274,o),
(500,1274,qs),
(561,1274,o),
(561,1210,qs)
);
},
{
closed = 1;
nodes = (
(879,1149,o),
(817,1149,qs),
(754,1149,o),
(754,1210,qs),
(754,1274,o),
(817,1274,qs),
(879,1274,o),
(879,1210,qs)
);
},
{
closed = 1;
nodes = (
(1112,650,o),
(1041,816,o),
(918,939,o),
(752,1010,o),
(657,1010,qs),
(561,1010,o),
(396,939,o),
(275,816,o),
(205,650,o),
(205,555,qs),
(205,459,o),
(274,294,o),
(396,172,o),
(561,102,o),
(657,102,qs),
(848,102,o),
(979,233,qs),
(1045,300,o),
(1112,459,o),
(1112,555,qs)
);
}
);
width = 1331;
}
);
unicode = 214;
},
{
glyphname = Oslash;
layers = (
{
layerId = "F770CFF7-FFB9-4382-B2D4-F3546B3D0D49";
shapes = (
{
closed = 1;
nodes = (
(1450,400,o),
(1251,199,qs),
(1053,0,o),
(768,0,qs),
(558,0,o),
(387,115,q),
(326,27,ls),
(306,-2,o),
(279,-2,qs),
(274,-2,o),
(263,0,o),
(258,2,qs),
(227,18,o),
(227,47,qs),
(227,61,o),
(233,70,qs),
(309,176,l),
(86,375,o),
(86,684,qs),
(86,970,o),
(283,1167,qs),
(482,1366,o),
(768,1366,qs),
(859,1366,o),
(1025,1323,o),
(1104,1280,q),
(1145,1337,ls),
(1167,1367,o),
(1191,1367,qs),
(1211,1367,o),
(1243,1339,o),
(1243,1319,qs),
(1243,1303,o),
(1237,1294,qs),
(1188,1225,l),
(1450,1025,o),
(1450,684,qs)
);
},
{
closed = 1;
nodes = (
(1042,1194,l),
(915,1262,o),
(768,1262,qs),
(524,1262,o),
(356,1094,qs),
(188,926,o),
(188,682,qs),
(188,427,o),
(369,258,q)
);
},
{
closed = 1;
nodes = (
(1348,969,o),
(1126,1141,q),
(446,197,l),
(590,102,o),
(768,102,qs),
(1012,102,o),
(1180,270,qs),
(1348,438,o),
(1348,682,qs)
);
}
);
width = 1536;
}
);
unicode = 216;
},
{
glyphname = Ugrave;
layers = (
{
layerId = "F770CFF7-FFB9-4382-B2D4-F3546B3D0D49";
shapes = (
{
closed = 1;
nodes = (
(1065,479,ls),
(1065,379,o),
(990,204,o),
(860,74,o),
(685,0,o),
(584,0,qs),
(482,0,o),
(306,74,o),
(176,203,o),
(102,379,o),
(102,481,qs),
(102,1047,ls),
(102,1070,o),
(128,1096,o),
(154,1098,q),
(180,1096,o),
(205,1070,o),
(205,1047,qs),
(205,481,ls),
(205,400,o),
(262,261,o),
(364,159,o),
(503,102,o),
(584,102,qs),
(664,102,o),
(802,160,o),
(904,262,o),
(963,400,o),
(963,479,qs),
(963,1044,ls),
(963,1093,o),
(1014,1096,q),
(1065,1093,o),
(1065,1044,qs)
);
},
{
closed = 1;
nodes = (
(709,1152,o),
(699,1133,o),
(684,1118,o),
(664,1108,o),
(655,1108,qs),
(637,1108,o),
(621,1124,qs),
(475,1268,ls),
(459,1284,o),
(459,1303,qs),
(459,1323,o),
(492,1356,o),
(512,1356,qs),
(521,1356,o),
(539,1347,o),
(547,1339,qs),
(692,1196,l),
(709,1181,o),
(709,1161,qs)
);
}
);
width = 1229;
}
);
unicode = 217;
},
{
glyphname = Uacute;
layers = (
{
layerId = "F770CFF7-FFB9-4382-B2D4-F3546B3D0D49";
shapes = (
{
closed = 1;
nodes = (
(1065,479,ls),
(1065,379,o),
(990,204,o),
(860,74,o),
(685,0,o),
(584,0,qs),
(482,0,o),
(306,74,o),
(176,203,o),
(102,379,o),
(102,481,qs),
(102,1047,ls),
(102,1070,o),
(128,1096,o),
(154,1098,q),
(180,1096,o),
(205,1070,o),
(205,1047,qs),
(205,481,ls),
(205,400,o),
(262,261,o),
(364,159,o),
(503,102,o),
(584,102,qs),
(664,102,o),
(802,160,o),
(904,262,o),
(963,400,o),
(963,479,qs),
(963,1044,ls),
(963,1093,o),
(1014,1096,q),
(1065,1093,o),
(1065,1044,qs)
);
},
{
closed = 1;
nodes = (
(709,1293,o),
(692,1278,q),
(547,1135,ls),
(539,1127,o),
(521,1118,o),
(512,1118,qs),
(503,1118,o),
(484,1128,o),
(469,1143,o),
(459,1162,o),
(459,1171,qs),
(459,1190,o),
(475,1206,qs),
(621,1350,ls),
(637,1366,o),
(655,1366,qs),
(665,1366,o),
(685,1357,o),
(700,1342,o),
(709,1323,o),
(709,1313,qs)
);
}
);
width = 1229;
}
);
unicode = 218;
},
{
glyphname = Ucircumflex;
layers = (
{
layerId = "F770CFF7-FFB9-4382-B2D4-F3546B3D0D49";
shapes = (
{
closed = 1;
nodes = (
(1065,479,ls),
(1065,379,o),
(990,204,o),
(860,74,o),
(685,0,o),
(584,0,qs),
(482,0,o),
(306,74,o),
(176,203,o),
(102,379,o),
(102,481,qs),
(102,1047,ls),
(102,1070,o),
(128,1096,o),
(154,1098,q),
(180,1096,o),
(205,1070,o),
(205,1047,qs),
(205,481,ls),
(205,400,o),
(262,261,o),
(364,159,o),
(503,102,o),
(584,102,qs),
(664,102,o),
(802,160,o),
(904,262,o),
(963,400,o),
(963,479,qs),
(963,1044,ls),
(963,1093,o),
(1014,1096,q),
(1065,1093,o),
(1065,1044,qs)
);
},
{
closed = 1;
nodes = (
(782,1160,o),
(772,1141,o),
(757,1126,o),
(738,1116,o),
(729,1116,qs),
(709,1116,o),
(694,1133,q),
(584,1245,l),
(473,1133,l),
(458,1116,o),
(438,1116,qs),
(429,1116,o),
(410,1126,o),
(395,1141,o),
(385,1160,o),
(385,1169,qs),
(385,1188,o),
(401,1204,qs),
(549,1352,l),
(586,1368,l),
(591,1366,o),
(608,1360,o),
(621,1352,q),
(766,1204,ls),
(782,1188,o),
(782,1169,qs)
);
}
);
width = 1229;
}
);
unicode = 219;
},
{
glyphname = Udieresis;
layers = (
{
layerId = "F770CFF7-FFB9-4382-B2D4-F3546B3D0D49";
shapes = (
{
closed = 1;
nodes = (
(1065,479,ls),
(1065,379,o),
(990,204,o),
(860,74,o),
(685,0,o),
(584,0,qs),
(482,0,o),
(306,74,o),
(176,203,o),
(102,379,o),
(102,481,qs),
(102,1047,ls),
(102,1070,o),
(128,1096,o),
(154,1098,q),
(180,1096,o),
(205,1070,o),
(205,1047,qs),
(205,481,ls),
(205,400,o),
(262,261,o),
(364,159,o),
(503,102,o),
(584,102,qs),
(664,102,o),
(802,160,o),
(904,262,o),
(963,400,o),
(963,479,qs),
(963,1044,ls),
(963,1093,o),
(1014,1096,q),
(1065,1093,o),
(1065,1044,qs)
);
},
{
closed = 1;
nodes = (
(487,1139,o),
(426,1139,qs),
(362,1139,o),
(362,1200,qs),
(362,1264,o),
(426,1264,qs),
(487,1264,o),
(487,1200,qs)
);
},
{
closed = 1;
nodes = (
(805,1139,o),
(741,1139,qs),
(680,1139,o),
(680,1200,qs),
(680,1264,o),
(741,1264,qs),
(805,1264,o),
(805,1200,qs)
);
}
);
width = 1229;
}
);
unicode = 220;
},
{
glyphname = germandbls;
layers = (
{
layerId = "F770CFF7-FFB9-4382-B2D4-F3546B3D0D49";
shapes = (
{
closed = 1;
nodes = (
(1032,295,o),
(974,156,o),
(872,55,o),
(732,-2,o),
(651,-2,qs),
(594,-2,o),
(479,40,o),
(422,84,qs),
(301,176,o),
(301,287,qs),
(301,344,o),
(354,344,qs),
(385,344,o),
(399,317,q),
(407,272,o),
(453,194,o),
(521,137,o),
(605,104,o),
(651,104,qs),
(708,104,o),
(809,147,o),
(884,221,o),
(928,322,o),
(928,379,qs),
(928,433,o),
(879,527,o),
(799,596,o),
(698,635,o),
(647,635,qs),
(599,635,o),
(584,641,q),
(551,652,o),
(551,696,qs),
(551,740,o),
(588,750,qs),
(594,752,o),
(624,754,o),
(647,754,qs),
(928,754,o),
(928,1004,qs),
(928,1058,o),
(877,1141,o),
(798,1199,o),
(699,1229,o),
(651,1229,qs),
(588,1229,o),
(469,1211,o),
(410,1194,qs),
(205,1136,o),
(205,1001,qs),
(205,51,ls),
(205,3,o),
(154,0,q),
(102,3,o),
(102,51,qs),
(102,1020,ls),
(102,1192,o),
(342,1276,qs),
(421,1303,o),
(574,1331,o),
(651,1331,qs),
(722,1331,o),
(859,1286,o),
(966,1202,o),
(1032,1081,o),
(1032,1004,qs),
(1032,961,o),
(1011,858,o),
(966,765,o),
(896,695,o),
(848,684,q),
(1032,564,o),
(1032,377,qs)
);
}
);
width = 1126;
}
);
unicode = 223;
},
{
glyphname = agrave;
layers = (
{
layerId = "F770CFF7-FFB9-4382-B2D4-F3546B3D0D49";
shapes = (
{
closed = 1;
nodes = (
(719,51,ls),
(719,3,o),
(668,0,q),
(616,3,o),
(616,51,qs),
(616,92,l),
(527,0,o),
(410,0,qs),
(341,0,o),
(228,58,o),
(147,154,o),
(102,277,o),
(102,342,qs),
(102,408,o),
(146,531,o),
(227,627,o),
(340,684,o),
(410,684,qs),
(527,684,o),
(616,592,q),
(616,633,ls),
(616,681,o),
(668,684,q),
(719,681,o),
(719,633,qs)
);
},
{
closed = 1;
nodes = (
(629,763,o),
(619,744,o),
(604,729,o),
(584,719,o),
(575,719,qs),
(557,719,o),
(541,735,qs),
(307,969,ls),
(291,985,o),
(291,1004,qs),
(291,1024,o),
(324,1057,o),
(344,1057,qs),
(362,1057,o),
(379,1040,qs),
(612,807,ls),
(629,790,o),
(629,772,qs)
);
},
{
closed = 1;
nodes = (
(614,385,o),
(585,470,o),
(532,539,o),
(457,582,o),
(410,582,qs),
(364,582,o),
(289,539,o),
(235,470,o),
(205,384,o),
(205,342,qs),
(205,300,o),
(235,214,o),
(289,145,o),
(364,102,o),
(410,102,qs),
(455,102,o),
(530,146,o),
(584,215,o),
(614,300,o),
(614,342,qs)
);
}
);
width = 819;
}
);
unicode = 224;
},
{
glyphname = aacute;
layers = (
{
layerId = "F770CFF7-FFB9-4382-B2D4-F3546B3D0D49";
shapes = (
{
closed = 1;
nodes = (
(719,51,ls),
(719,3,o),
(668,0,q),
(616,3,o),
(616,51,qs),
(616,92,l),
(527,0,o),
(410,0,qs),
(341,0,o),
(228,58,o),
(147,154,o),
(102,277,o),
(102,342,qs),
(102,408,o),
(146,531,o),
(227,627,o),
(340,684,o),
(410,684,qs),
(527,684,o),
(616,592,q),
(616,633,ls),
(616,681,o),
(668,684,q),
(719,681,o),
(719,633,qs)
);
},
{
closed = 1;
nodes = (
(629,994,o),
(620,977,o),
(612,969,qs),
(379,735,ls),
(363,719,o),
(344,719,qs),
(335,719,o),
(316,729,o),
(301,744,o),
(291,763,o),
(291,772,qs),
(291,791,o),
(307,807,qs),
(541,1040,ls),
(549,1048,o),
(566,1057,o),
(575,1057,qs),
(585,1057,o),
(605,1048,o),
(620,1033,o),
(629,1014,o),
(629,1004,qs)
);
},
{
closed = 1;
nodes = (
(614,385,o),
(585,470,o),
(532,539,o),
(457,582,o),
(410,582,qs),
(364,582,o),
(289,539,o),
(235,470,o),
(205,384,o),
(205,342,qs),
(205,300,o),
(235,214,o),
(289,145,o),
(364,102,o),
(410,102,qs),
(455,102,o),
(530,146,o),
(584,215,o),
(614,300,o),
(614,342,qs)
);
}
);
width = 819;
}
);
unicode = 225;
},
{
glyphname = acircumflex;
layers = (
{
layerId = "F770CFF7-FFB9-4382-B2D4-F3546B3D0D49";
shapes = (
{
closed = 1;
nodes = (
(719,51,ls),
(719,3,o),
(668,0,q),
(616,3,o),
(616,51,qs),
(616,92,l),
(527,0,o),
(410,0,qs),
(341,0,o),
(228,58,o),
(147,154,o),
(102,277,o),
(102,342,qs),
(102,408,o),
(146,531,o),
(227,627,o),
(340,684,o),
(410,684,qs),
(527,684,o),
(616,592,q),
(616,633,ls),
(616,681,o),
(668,684,q),
(719,681,o),
(719,633,qs)
);
},
{
closed = 1;
nodes = (
(713,816,o),
(703,797,o),
(688,782,o),
(668,772,o),
(659,772,qs),
(641,772,o),
(625,788,qs),
(426,987,l),
(229,788,ls),
(213,772,o),
(195,772,qs),
(186,772,o),
(166,782,o),
(151,797,o),
(141,816,o),
(141,825,qs),
(141,835,o),
(150,852,o),
(158,860,qs),
(391,1094,ls),
(407,1110,o),
(426,1110,qs),
(428,1110,ls),
(447,1110,o),
(463,1094,qs),
(696,860,ls),
(704,852,o),
(713,835,o),
(713,825,qs)
);
},
{
closed = 1;
nodes = (
(614,385,o),
(585,470,o),
(532,539,o),
(457,582,o),
(410,582,qs),
(364,582,o),
(289,539,o),
(235,470,o),
(205,384,o),
(205,342,qs),
(205,300,o),
(235,214,o),
(289,145,o),
(364,102,o),
(410,102,qs),
(455,102,o),
(530,146,o),
(584,215,o),
(614,300,o),
(614,342,qs)
);
}
);
width = 819;
}
);
unicode = 226;
},
{
glyphname = atilde;
layers = (
{
layerId = "F770CFF7-FFB9-4382-B2D4-F3546B3D0D49";
shapes = (
{
closed = 1;
nodes = (
(719,51,ls),
(719,3,o),
(668,0,q),
(616,3,o),
(616,51,qs),
(616,92,l),
(527,0,o),
(410,0,qs),
(341,0,o),
(228,58,o),
(147,154,o),
(102,277,o),
(102,342,qs),
(102,408,o),
(146,531,o),
(227,627,o),
(340,684,o),
(410,684,qs),
(527,684,o),
(616,592,q),
(616,633,ls),
(616,681,o),
(668,684,q),
(719,681,o),
(719,633,qs)
);
},
{
closed = 1;
nodes = (
(591,762,o),
(532,762,qs),
(515,762,o),
(461,785,o),
(426,809,qs),
(390,834,o),
(362,834,qs),
(311,834,o),
(236,772,qs),
(219,758,o),
(201,758,qs),
(147,758,o),
(147,811,qs),
(147,820,o),
(156,839,o),
(164,848,q),
(298,936,o),
(362,936,qs),
(409,936,o),
(463,899,qs),
(515,864,o),
(532,864,qs),
(551,864,o),
(616,895,o),
(664,924,q),
(678,938,o),
(698,938,qs),
(750,938,o),
(750,887,qs),
(750,876,o),
(741,857,o),
(733,848,q)
);
},
{
closed = 1;
nodes = (
(614,385,o),
(585,470,o),
(532,539,o),
(457,582,o),
(410,582,qs),
(364,582,o),
(289,539,o),
(235,470,o),
(205,384,o),
(205,342,qs),
(205,300,o),
(235,214,o),
(289,145,o),
(364,102,o),
(410,102,qs),
(455,102,o),
(530,146,o),
(584,215,o),
(614,300,o),
(614,342,qs)
);
}
);
width = 819;
}
);
unicode = 227;
},
{
glyphname = adieresis;
layers = (
{
layerId = "F770CFF7-FFB9-4382-B2D4-F3546B3D0D49";
shapes = (
{
closed = 1;
nodes = (
(719,51,ls),
(719,3,o),
(668,0,q),
(616,3,o),
(616,51,qs),
(616,92,l),
(527,0,o),
(410,0,qs),
(341,0,o),
(228,58,o),
(147,154,o),
(102,277,o),
(102,342,qs),
(102,408,o),
(146,531,o),
(227,627,o),
(340,684,o),
(410,684,qs),
(527,684,o),
(616,592,q),
(616,633,ls),
(616,681,o),
(668,684,q),
(719,681,o),
(719,633,qs)
);
},
{
closed = 1;
nodes = (
(303,793,o),
(242,793,qs),
(178,793,o),
(178,856,qs),
(178,918,o),
(242,918,qs),
(303,918,o),
(303,856,qs)
);
},
{
closed = 1;
nodes = (
(621,793,o),
(559,793,qs),
(496,793,o),
(496,856,qs),
(496,918,o),
(559,918,qs),
(621,918,o),
(621,856,qs)
);
},
{
closed = 1;
nodes = (
(614,385,o),
(585,470,o),
(532,539,o),
(457,582,o),
(410,582,qs),
(364,582,o),
(289,539,o),
(235,470,o),
(205,384,o),
(205,342,qs),
(205,300,o),
(235,214,o),
(289,145,o),
(364,102,o),
(410,102,qs),
(455,102,o),
(530,146,o),
(584,215,o),
(614,300,o),
(614,342,qs)
);
}
);
width = 819;
}
);
unicode = 228;
},
{
glyphname = aring;
layers = (
{
layerId = "F770CFF7-FFB9-4382-B2D4-F3546B3D0D49";
shapes = (
{
closed = 1;
nodes = (
(719,51,ls),
(719,3,o),
(668,0,q),
(616,3,o),
(616,51,qs),
(616,92,l),
(527,0,o),
(410,0,qs),
(341,0,o),
(228,58,o),
(147,154,o),
(102,277,o),
(102,342,qs),
(102,408,o),
(146,531,o),
(227,627,o),
(340,684,o),
(410,684,qs),
(527,684,o),
(616,592,q),
(616,633,ls),
(616,681,o),
(668,684,q),
(719,681,o),
(719,633,qs)
);
},
{
closed = 1;
nodes = (
(535,936,o),
(516,890,o),
(482,856,o),
(437,836,o),
(410,836,qs),
(385,836,o),
(340,856,o),
(306,890,o),
(287,936,o),
(287,961,qs),
(287,986,o),
(306,1031,o),
(340,1065,o),
(385,1085,o),
(410,1085,qs),
(437,1085,o),
(482,1065,o),
(516,1031,o),
(535,986,o),
(535,961,qs)
);
},
{
closed = 1;
nodes = (
(614,385,o),
(585,470,o),
(532,539,o),
(457,582,o),
(410,582,qs),
(364,582,o),
(289,539,o),
(235,470,o),
(205,384,o),
(205,342,qs),
(205,300,o),
(235,214,o),
(289,145,o),
(364,102,o),
(410,102,qs),
(455,102,o),
(530,146,o),
(584,215,o),
(614,300,o),
(614,342,qs)
);
},
{
closed = 1;
nodes = (
(473,1022,o),
(410,1022,qs),
(348,1022,o),
(348,961,qs),
(348,897,o),
(410,897,qs),
(473,897,o),
(473,961,qs)
);
}
);
width = 819;
}
);
unicode = 229;
},
{
glyphname = ccedilla;
layers = (
{
layerId = "F770CFF7-FFB9-4382-B2D4-F3546B3D0D49";
shapes = (
{
closed = 1;
nodes = (
(601,20,o),
(449,2,q),
(438,-49,l),
(465,-51,o),
(511,-76,o),
(545,-113,o),
(565,-161,o),
(567,-186,qs),
(570,-217,o),
(552,-273,o),
(516,-318,o),
(463,-347,o),
(430,-350,q),
(426,-350,o),
(419,-351,o),
(416,-351,qs),
(360,-351,o),
(307,-307,q),
(354,-246,l),
(380,-274,o),
(413,-274,qs),
(422,-274,l),
(454,-269,o),
(494,-222,o),
(492,-190,qs),
(488,-121,o),
(410,-123,qs),
(338,-125,l),
(365,4,l),
(305,13,o),
(207,77,o),
(139,170,o),
(102,284,o),
(102,342,qs),
(102,408,o),
(146,531,o),
(227,627,o),
(340,684,o),
(410,684,qs),
(559,684,o),
(653,547,q),
(683,505,o),
(645,475,qs),
(628,461,o),
(611,461,qs),
(591,461,o),
(573,483,q),
(497,582,o),
(410,582,qs),
(364,582,o),
(289,539,o),
(235,470,o),
(205,384,o),
(205,342,qs),
(205,300,o),
(235,214,o),
(289,145,o),
(364,102,o),
(410,102,qs),
(533,102,o),
(588,225,qs),
(603,257,o),
(629,257,qs),
(639,257,o),
(655,250,qs),
(703,229,o),
(680,182,qs)
);
}
);
width = 819;
}
);
unicode = 231;
},
{
glyphname = egrave;
layers = (
{
layerId = "F770CFF7-FFB9-4382-B2D4-F3546B3D0D49";
shapes = (
{
closed = 1;
nodes = (
(205,342,l),
(205,300,o),
(235,214,o),
(289,145,o),
(364,102,o),
(410,102,qs),
(509,102,o),
(569,186,q),
(584,218,o),
(610,218,qs),
(620,218,o),
(637,211,qs),
(683,190,o),
(662,143,q),
(561,0,o),
(410,0,qs),
(341,0,o),
(228,58,o),
(147,154,o),
(102,277,o),
(102,342,qs),
(102,408,o),
(146,531,o),
(227,627,o),
(340,684,o),
(410,684,qs),
(480,684,o),
(593,626,o),
(673,531,o),
(717,408,o),
(717,342,q)
);
},
{
closed = 1;
nodes = (
(629,763,o),
(619,744,o),
(604,729,o),
(584,719,o),
(575,719,qs),
(557,719,o),
(541,735,qs),
(307,969,ls),
(291,985,o),
(291,1004,qs),
(291,1024,o),
(324,1057,o),
(344,1057,qs),
(362,1057,o),
(379,1040,qs),
(612,807,ls),
(629,790,o),
(629,772,qs)
);
},
{
closed = 1;
nodes = (
(592,444,l),
(534,582,o),
(410,582,qs),
(285,582,o),
(227,444,q)
);
}
);
width = 819;
}
);
unicode = 232;
},
{
glyphname = eacute;
layers = (
{
layerId = "F770CFF7-FFB9-4382-B2D4-F3546B3D0D49";
shapes = (
{
closed = 1;
nodes = (
(205,342,l),
(205,300,o),
(235,214,o),
(289,145,o),
(364,102,o),
(410,102,qs),
(509,102,o),
(569,186,q),
(584,218,o),
(610,218,qs),
(620,218,o),
(637,211,qs),
(683,190,o),
(662,143,q),
(561,0,o),
(410,0,qs),
(341,0,o),
(228,58,o),
(147,154,o),
(102,277,o),
(102,342,qs),
(102,408,o),
(146,531,o),
(227,627,o),
(340,684,o),
(410,684,qs),
(480,684,o),
(593,626,o),
(673,531,o),
(717,408,o),
(717,342,q)
);
},
{
closed = 1;
nodes = (
(578,990,o),
(561,973,qs),
(328,739,ls),
(313,723,o),
(293,723,qs),
(273,723,o),
(240,756,o),
(240,776,qs),
(240,795,o),
(256,811,qs),
(487,1044,ls),
(504,1061,o),
(522,1061,qs),
(532,1061,o),
(552,1052,o),
(568,1037,o),
(578,1018,o),
(578,1008,qs)
);
},
{
closed = 1;
nodes = (
(592,444,l),
(534,582,o),
(410,582,qs),
(285,582,o),
(227,444,q)
);
}
);
width = 819;
}
);
unicode = 233;
},
{
glyphname = ecircumflex;
layers = (
{
layerId = "F770CFF7-FFB9-4382-B2D4-F3546B3D0D49";
shapes = (
{
closed = 1;
nodes = (
(205,342,l),
(205,300,o),
(235,214,o),
(289,145,o),
(364,102,o),
(410,102,qs),
(509,102,o),
(569,186,q),
(584,218,o),
(610,218,qs),
(620,218,o),
(637,211,qs),
(683,190,o),
(662,143,q),
(561,0,o),
(410,0,qs),
(341,0,o),
(228,58,o),
(147,154,o),
(102,277,o),
(102,342,qs),
(102,408,o),
(146,531,o),
(227,627,o),
(340,684,o),
(410,684,qs),
(480,684,o),
(593,626,o),
(673,531,o),
(717,408,o),
(717,342,q)
);
},
{
closed = 1;
nodes = (
(713,816,o),
(703,797,o),
(688,782,o),
(668,772,o),
(659,772,qs),
(641,772,o),
(625,788,qs),
(426,987,l),
(229,788,ls),
(213,772,o),
(195,772,qs),
(186,772,o),
(166,782,o),
(151,797,o),
(141,816,o),
(141,825,qs),
(141,835,o),
(150,852,o),
(158,860,qs),
(391,1094,ls),
(407,1110,o),
(426,1110,qs),
(428,1110,ls),
(447,1110,o),
(463,1094,qs),
(696,860,ls),
(704,852,o),
(713,835,o),
(713,825,qs)
);
},
{
closed = 1;
nodes = (
(592,444,l),
(534,582,o),
(410,582,qs),
(285,582,o),
(227,444,q)
);
}
);
width = 819;
}
);
unicode = 234;
},
{
glyphname = edieresis;
layers = (
{
layerId = "F770CFF7-FFB9-4382-B2D4-F3546B3D0D49";
shapes = (
{
closed = 1;
nodes = (
(205,342,l),
(205,300,o),
(235,214,o),
(289,145,o),
(364,102,o),
(410,102,qs),
(509,102,o),
(569,186,q),
(584,218,o),
(610,218,qs),
(620,218,o),
(637,211,qs),
(683,190,o),
(662,143,q),
(561,0,o),
(410,0,qs),
(341,0,o),
(228,58,o),
(147,154,o),
(102,277,o),
(102,342,qs),
(102,408,o),
(146,531,o),
(227,627,o),
(340,684,o),
(410,684,qs),
(480,684,o),
(593,626,o),
(673,531,o),
(717,408,o),
(717,342,q)
);
},
{
closed = 1;
nodes = (
(303,793,o),
(242,793,qs),
(178,793,o),
(178,856,qs),
(178,918,o),
(242,918,qs),
(303,918,o),
(303,856,qs)
);
},
{
closed = 1;
nodes = (
(621,793,o),
(559,793,qs),
(496,793,o),
(496,856,qs),
(496,918,o),
(559,918,qs),
(621,918,o),
(621,856,qs)
);
},
{
closed = 1;
nodes = (
(592,444,l),
(534,582,o),
(410,582,qs),
(285,582,o),
(227,444,q)
);
}
);
width = 819;
}
);
unicode = 235;
},
{
glyphname = igrave;
layers = (
{
layerId = "F770CFF7-FFB9-4382-B2D4-F3546B3D0D49";
shapes = (
{
closed = 1;
nodes = (
(324,51,ls),
(324,3,o),
(272,0,q),
(221,3,o),
(221,51,qs),
(221,633,ls),
(221,681,o),
(272,684,q),
(324,681,o),
(324,633,qs)
);
},
{
closed = 1;
nodes = (
(440,763,o),
(430,744,o),
(415,729,o),
(396,719,o),
(387,719,qs),
(368,719,o),
(352,735,qs),
(119,969,ls),
(102,986,o),
(102,1004,qs),
(102,1014,o),
(111,1033,o),
(126,1048,o),
(146,1057,o),
(156,1057,qs),
(165,1057,o),
(182,1048,o),
(190,1040,qs),
(424,807,ls),
(440,791,o),
(440,772,qs)
);
}
);
width = 614;
}
);
unicode = 236;
},
{
glyphname = iacute;
layers = (
{
layerId = "F770CFF7-FFB9-4382-B2D4-F3546B3D0D49";
shapes = (
{
closed = 1;
nodes = (
(211,51,ls),
(211,3,o),
(160,0,q),
(109,3,o),
(109,51,qs),
(109,633,ls),
(109,681,o),
(160,684,q),
(211,681,o),
(211,633,qs)
);
},
{
closed = 1;
nodes = (
(440,985,o),
(424,969,qs),
(190,735,ls),
(174,719,o),
(156,719,qs),
(147,719,o),
(127,729,o),
(112,744,o),
(102,763,o),
(102,772,qs),
(102,781,o),
(111,799,o),
(119,807,qs),
(352,1040,ls),
(369,1057,o),
(387,1057,qs),
(407,1057,o),
(440,1024,o),
(440,1004,qs)
);
}
);
width = 614;
}
);
unicode = 237;
},
{
glyphname = icircumflex;
layers = (
{
layerId = "F770CFF7-FFB9-4382-B2D4-F3546B3D0D49";
shapes = (
{
closed = 1;
nodes = (
(438,51,ls),
(438,3,o),
(387,0,q),
(336,3,o),
(336,51,qs),
(336,633,ls),
(336,681,o),
(387,684,q),
(438,681,o),
(438,633,qs)
);
},
{
closed = 1;
nodes = (
(674,816,o),
(664,797,o),
(649,782,o),
(630,772,o),
(621,772,qs),
(602,772,o),
(586,788,qs),
(389,987,l),
(190,788,ls),
(174,772,o),
(156,772,qs),
(147,772,o),
(127,782,o),
(112,797,o),
(102,816,o),
(102,825,qs),
(102,835,o),
(111,852,o),
(119,860,qs),
(352,1094,ls),
(368,1110,o),
(387,1110,qs),
(389,1110,ls),
(408,1110,o),
(424,1094,qs),
(657,860,ls),
(665,852,o),
(674,835,o),
(674,825,qs)
);
}
);
width = 614;
}
);
unicode = 238;
},
{
glyphname = idieresis;
layers = (
{
layerId = "F770CFF7-FFB9-4382-B2D4-F3546B3D0D49";
shapes = (
{
closed = 1;
nodes = (
(375,51,ls),
(375,3,o),
(324,0,q),
(272,3,o),
(272,51,qs),
(272,633,ls),
(272,681,o),
(324,684,q),
(375,681,o),
(375,633,qs)
);
},
{
closed = 1;
nodes = (
(227,793,o),
(164,793,qs),
(102,793,o),
(102,856,qs),
(102,918,o),
(164,918,qs),
(227,918,o),
(227,856,qs)
);
},
{
closed = 1;
nodes = (
(545,793,o),
(481,793,qs),
(420,793,o),
(420,856,qs),
(420,918,o),
(481,918,qs),
(545,918,o),
(545,856,qs)
);
}
);
width = 614;
}
);
unicode = 239;
},
{
glyphname = ntilde;
layers = (
{
layerId = "F770CFF7-FFB9-4382-B2D4-F3546B3D0D49";
shapes = (
{
closed = 1;
nodes = (
(680,53,ls),
(680,0,o),
(629,0,qs),
(578,0,o),
(578,53,qs),
(578,461,l),
(555,582,o),
(410,582,qs),
(273,582,o),
(240,461,q),
(240,51,ls),
(240,0,o),
(188,0,qs),
(137,0,o),
(137,51,qs),
(137,633,ls),
(137,659,o),
(168,684,o),
(193,684,qs),
(234,684,o),
(240,639,q),
(240,631,l),
(291,684,o),
(410,684,qs),
(471,684,o),
(571,651,o),
(641,587,o),
(680,493,o),
(680,432,qs)
);
},
{
closed = 1;
nodes = (
(549,762,o),
(487,762,qs),
(470,762,o),
(416,785,o),
(381,809,qs),
(345,834,o),
(317,834,qs),
(291,834,o),
(229,803,o),
(190,772,q),
(176,758,o),
(156,758,qs),
(102,758,o),
(102,811,qs),
(102,820,o),
(111,839,o),
(119,848,q),
(253,936,o),
(317,936,qs),
(342,936,o),
(391,917,o),
(418,899,qs),
(470,864,o),
(487,864,qs),
(506,864,o),
(570,895,o),
(618,924,q),
(633,938,o),
(653,938,qs),
(705,938,o),
(705,887,qs),
(705,876,o),
(696,857,o),
(688,848,q)
);
}
);
width = 819;
}
);
unicode = 241;
},
{
glyphname = ograve;
layers = (
{
layerId = "F770CFF7-FFB9-4382-B2D4-F3546B3D0D49";
shapes = (
{
closed = 1;
nodes = (
(717,277,o),
(673,154,o),
(592,58,o),
(479,0,o),
(410,0,qs),
(341,0,o),
(228,58,o),
(147,154,o),
(102,277,o),
(102,342,qs),
(102,408,o),
(146,531,o),
(227,627,o),
(340,684,o),
(410,684,qs),
(480,684,o),
(593,626,o),
(673,531,o),
(717,408,o),
(717,342,qs)
);
},
{
closed = 1;
nodes = (
(629,763,o),
(619,744,o),
(604,729,o),
(584,719,o),
(575,719,qs),
(557,719,o),
(541,735,qs),
(307,969,ls),
(291,985,o),
(291,1004,qs),
(291,1024,o),
(324,1057,o),
(344,1057,qs),
(362,1057,o),
(379,1040,qs),
(612,807,ls),
(629,790,o),
(629,772,qs)
);
},
{
closed = 1;
nodes = (
(614,385,o),
(585,470,o),
(532,539,o),
(457,582,o),
(410,582,qs),
(364,582,o),
(289,539,o),
(235,470,o),
(205,384,o),
(205,342,qs),
(205,300,o),
(235,214,o),
(289,145,o),
(364,102,o),
(410,102,qs),
(455,102,o),
(530,146,o),
(584,215,o),
(614,300,o),
(614,342,qs)
);
}
);
width = 819;
}
);
unicode = 242;
},
{
glyphname = oacute;
layers = (
{
layerId = "F770CFF7-FFB9-4382-B2D4-F3546B3D0D49";
shapes = (
{
closed = 1;
nodes = (
(717,277,o),
(673,154,o),
(592,58,o),
(479,0,o),
(410,0,qs),
(341,0,o),
(228,58,o),
(147,154,o),
(102,277,o),
(102,342,qs),
(102,408,o),
(146,531,o),
(227,627,o),
(340,684,o),
(410,684,qs),
(480,684,o),
(593,626,o),
(673,531,o),
(717,408,o),
(717,342,qs)
);
},
{
closed = 1;
nodes = (
(596,985,o),
(580,969,qs),
(346,735,ls),
(330,719,o),
(311,719,qs),
(302,719,o),
(283,729,o),
(268,744,o),
(258,763,o),
(258,772,qs),
(258,791,o),
(274,807,qs),
(508,1040,ls),
(516,1048,o),
(533,1057,o),
(543,1057,qs),
(563,1057,o),
(596,1024,o),
(596,1004,qs)
);
},
{
closed = 1;
nodes = (
(614,385,o),
(585,470,o),
(532,539,o),
(457,582,o),
(410,582,qs),
(364,582,o),
(289,539,o),
(235,470,o),
(205,384,o),
(205,342,qs),
(205,300,o),
(235,214,o),
(289,145,o),
(364,102,o),
(410,102,qs),
(455,102,o),
(530,146,o),
(584,215,o),
(614,300,o),
(614,342,qs)
);
}
);
width = 819;
}
);
unicode = 243;
},
{
glyphname = ocircumflex;
layers = (
{
layerId = "F770CFF7-FFB9-4382-B2D4-F3546B3D0D49";
shapes = (
{
closed = 1;
nodes = (
(717,277,o),
(673,154,o),
(592,58,o),
(479,0,o),
(410,0,qs),
(341,0,o),
(228,58,o),
(147,154,o),
(102,277,o),
(102,342,qs),
(102,408,o),
(146,531,o),
(227,627,o),
(340,684,o),
(410,684,qs),
(480,684,o),
(593,626,o),
(673,531,o),
(717,408,o),
(717,342,qs)
);
},
{
closed = 1;
nodes = (
(713,816,o),
(703,797,o),
(688,782,o),
(668,772,o),
(659,772,qs),
(641,772,o),
(625,788,qs),
(426,987,l),
(229,788,ls),
(213,772,o),
(195,772,qs),
(186,772,o),
(166,782,o),
(151,797,o),
(141,816,o),
(141,825,qs),
(141,835,o),
(150,852,o),
(158,860,qs),
(391,1094,ls),
(407,1110,o),
(426,1110,qs),
(428,1110,ls),
(447,1110,o),
(463,1094,qs),
(696,860,ls),
(704,852,o),
(713,835,o),
(713,825,qs)
);
},
{
closed = 1;
nodes = (
(614,385,o),
(585,470,o),
(532,539,o),
(457,582,o),
(410,582,qs),
(364,582,o),
(289,539,o),
(235,470,o),
(205,384,o),
(205,342,qs),
(205,300,o),
(235,214,o),
(289,145,o),
(364,102,o),
(410,102,qs),
(455,102,o),
(530,146,o),
(584,215,o),
(614,300,o),
(614,342,qs)
);
}
);
width = 819;
}
);
unicode = 244;
},
{
glyphname = otilde;
layers = (
{
layerId = "F770CFF7-FFB9-4382-B2D4-F3546B3D0D49";
shapes = (
{
closed = 1;
nodes = (
(717,277,o),
(673,154,o),
(592,58,o),
(479,0,o),
(410,0,qs),
(341,0,o),
(228,58,o),
(147,154,o),
(102,277,o),
(102,342,qs),
(102,408,o),
(146,531,o),
(227,627,o),
(340,684,o),
(410,684,qs),
(480,684,o),
(593,626,o),
(673,531,o),
(717,408,o),
(717,342,qs)
);
},
{
closed = 1;
nodes = (
(552,762,o),
(494,762,qs),
(477,762,o),
(422,785,o),
(387,809,qs),
(351,834,o),
(324,834,qs),
(272,834,o),
(197,772,qs),
(180,758,o),
(162,758,qs),
(109,758,o),
(109,811,qs),
(109,829,o),
(125,848,q),
(259,936,o),
(324,936,qs),
(370,936,o),
(424,899,qs),
(476,864,o),
(494,864,qs),
(512,864,o),
(577,895,o),
(625,924,q),
(639,938,o),
(659,938,qs),
(711,938,o),
(711,887,qs),
(711,867,o),
(694,848,q)
);
},
{
closed = 1;
nodes = (
(614,385,o),
(585,470,o),
(532,539,o),
(457,582,o),
(410,582,qs),
(364,582,o),
(289,539,o),
(235,470,o),
(205,384,o),
(205,342,qs),
(205,300,o),
(235,214,o),
(289,145,o),
(364,102,o),
(410,102,qs),
(455,102,o),
(530,146,o),
(584,215,o),
(614,300,o),
(614,342,qs)
);
}
);
width = 819;
}
);
unicode = 245;
},
{
glyphname = odieresis;
layers = (
{
layerId = "F770CFF7-FFB9-4382-B2D4-F3546B3D0D49";
shapes = (
{
closed = 1;
nodes = (
(717,277,o),
(673,154,o),
(592,58,o),
(479,0,o),
(410,0,qs),
(341,0,o),
(228,58,o),
(147,154,o),
(102,277,o),
(102,342,qs),
(102,408,o),
(146,531,o),
(227,627,o),
(340,684,o),
(410,684,qs),
(480,684,o),
(593,626,o),
(673,531,o),
(717,408,o),
(717,342,qs)
);
},
{
closed = 1;
nodes = (
(313,793,o),
(252,793,qs),
(188,793,o),
(188,856,qs),
(188,918,o),
(252,918,qs),
(313,918,o),
(313,856,qs)
);
},
{
closed = 1;
nodes = (
(631,793,o),
(567,793,qs),
(506,793,o),
(506,856,qs),
(506,918,o),
(567,918,qs),
(631,918,o),
(631,856,qs)
);
},
{
closed = 1;
nodes = (
(614,385,o),
(585,470,o),
(532,539,o),
(457,582,o),
(410,582,qs),
(364,582,o),
(289,539,o),
(235,470,o),
(205,384,o),
(205,342,qs),
(205,300,o),
(235,214,o),
(289,145,o),
(364,102,o),
(410,102,qs),
(455,102,o),
(530,146,o),
(584,215,o),
(614,300,o),
(614,342,qs)
);
}
);
width = 819;
}
);
unicode = 246;
},
{
glyphname = divide;
layers = (
{
layerId = "F770CFF7-FFB9-4382-B2D4-F3546B3D0D49";
shapes = (
{
closed = 1;
nodes = (
(594,354,o),
(547,305,o),
(512,305,qs),
(477,305,o),
(428,354,o),
(428,389,qs),
(428,424,o),
(477,471,o),
(512,471,qs),
(547,471,o),
(594,424,o),
(594,389,qs)
);
},
{
closed = 1;
nodes = (
(883,662,o),
(857,637,o),
(834,637,qs),
(190,637,ls),
(167,637,o),
(141,662,o),
(139,688,q),
(141,714,o),
(167,739,o),
(190,739,qs),
(834,739,ls),
(857,739,o),
(883,714,o),
(885,688,q)
);
},
{
closed = 1;
nodes = (
(594,954,o),
(547,905,o),
(512,905,qs),
(477,905,o),
(428,954,o),
(428,989,qs),
(428,1024,o),
(477,1071,o),
(512,1071,qs),
(547,1071,o),
(594,1024,o),
(594,989,qs)
);
}
);
width = 1024;
}
);
unicode = 247;
},
{
glyphname = oslash;
layers = (
{
layerId = "F770CFF7-FFB9-4382-B2D4-F3546B3D0D49";
shapes = (
{
closed = 1;
nodes = (
(717,277,o),
(673,154,o),
(592,58,o),
(479,0,o),
(410,0,qs),
(385,0,o),
(336,8,o),
(313,16,q),
(268,-80,l),
(255,-110,o),
(227,-110,qs),
(206,-110,o),
(170,-82,o),
(170,-59,qs),
(170,-49,o),
(176,-37,qs),
(225,68,l),
(102,172,o),
(102,342,qs),
(102,408,o),
(146,531,o),
(227,627,o),
(340,684,o),
(410,684,qs),
(436,684,o),
(483,676,o),
(506,668,q),
(547,754,ls),
(562,784,o),
(588,784,qs),
(609,784,o),
(645,757,o),
(645,735,qs),
(645,730,o),
(643,719,o),
(639,711,qs),
(594,616,l),
(717,516,o),
(717,342,qs)
);
},
{
closed = 1;
nodes = (
(463,573,l),
(449,578,o),
(424,582,o),
(410,582,qs),
(364,582,o),
(289,539,o),
(235,470,o),
(205,384,o),
(205,342,qs),
(205,244,o),
(272,168,q)
);
},
{
closed = 1;
nodes = (
(614,442,o),
(549,516,q),
(358,111,l),
(371,106,o),
(396,102,o),
(410,102,qs),
(455,102,o),
(530,146,o),
(584,215,o),
(614,300,o),
(614,342,qs)
);
}
);
width = 922;
}
);
unicode = 248;
},
{
glyphname = ugrave;
layers = (
{
layerId = "F770CFF7-FFB9-4382-B2D4-F3546B3D0D49";
shapes = (
{
closed = 1;
nodes = (
(645,51,ls),
(645,0,o),
(594,0,qs),
(543,0,o),
(543,51,qs),
(543,53,l),
(487,0,o),
(373,0,qs),
(312,0,o),
(211,33,o),
(141,97,o),
(102,191,o),
(102,252,qs),
(102,631,ls),
(102,679,o),
(154,682,q),
(205,679,o),
(205,631,qs),
(205,223,l),
(226,102,o),
(373,102,qs),
(442,102,o),
(526,163,o),
(543,223,q),
(543,633,ls),
(543,681,o),
(594,684,q),
(645,681,o),
(645,633,qs)
);
},
{
closed = 1;
nodes = (
(543,763,o),
(533,744,o),
(518,729,o),
(498,719,o),
(489,719,qs),
(471,719,o),
(455,735,qs),
(221,969,ls),
(205,985,o),
(205,1004,qs),
(205,1024,o),
(238,1057,o),
(258,1057,qs),
(276,1057,o),
(293,1040,qs),
(526,807,ls),
(543,790,o),
(543,772,qs)
);
}
);
width = 819;
}
);
unicode = 249;
},
{
glyphname = uacute;
layers = (
{
layerId = "F770CFF7-FFB9-4382-B2D4-F3546B3D0D49";
shapes = (
{
closed = 1;
nodes = (
(645,51,ls),
(645,0,o),
(594,0,qs),
(543,0,o),
(543,51,qs),
(543,53,l),
(487,0,o),
(373,0,qs),
(312,0,o),
(211,33,o),
(141,97,o),
(102,191,o),
(102,252,qs),
(102,631,ls),
(102,679,o),
(154,682,q),
(205,679,o),
(205,631,qs),
(205,223,l),
(226,102,o),
(373,102,qs),
(442,102,o),
(526,163,o),
(543,223,q),
(543,633,ls),
(543,681,o),
(594,684,q),
(645,681,o),
(645,633,qs)
);
},
{
closed = 1;
nodes = (
(567,985,o),
(551,969,qs),
(317,735,ls),
(301,719,o),
(283,719,qs),
(274,719,o),
(254,729,o),
(239,744,o),
(229,763,o),
(229,772,qs),
(229,781,o),
(238,799,o),
(246,807,qs),
(479,1040,ls),
(496,1057,o),
(514,1057,qs),
(534,1057,o),
(567,1024,o),
(567,1004,qs)
);
}
);
width = 819;
}
);
unicode = 250;
},
{
glyphname = ucircumflex;
layers = (
{
layerId = "F770CFF7-FFB9-4382-B2D4-F3546B3D0D49";
shapes = (
{
closed = 1;
nodes = (
(659,51,ls),
(659,0,o),
(608,0,qs),
(557,0,o),
(557,51,qs),
(557,53,l),
(501,0,o),
(387,0,qs),
(326,0,o),
(226,33,o),
(155,97,o),
(117,191,o),
(117,252,qs),
(117,631,ls),
(117,679,o),
(168,682,q),
(219,679,o),
(219,631,qs),
(219,223,l),
(230,163,o),
(315,102,o),
(387,102,qs),
(524,102,o),
(557,223,q),
(557,633,ls),
(557,681,o),
(608,684,q),
(659,681,o),
(659,633,qs)
);
},
{
closed = 1;
nodes = (
(674,816,o),
(664,797,o),
(649,782,o),
(630,772,o),
(621,772,qs),
(602,772,o),
(586,788,qs),
(389,987,l),
(190,788,ls),
(174,772,o),
(156,772,qs),
(147,772,o),
(127,782,o),
(112,797,o),
(102,816,o),
(102,825,qs),
(102,835,o),
(111,852,o),
(119,860,qs),
(352,1094,ls),
(368,1110,o),
(387,1110,qs),
(389,1110,ls),
(408,1110,o),
(424,1094,qs),
(657,860,ls),
(665,852,o),
(674,835,o),
(674,825,qs)
);
}
);
width = 819;
}
);
unicode = 251;
},
{
glyphname = udieresis;
layers = (
{
layerId = "F770CFF7-FFB9-4382-B2D4-F3546B3D0D49";
shapes = (
{
closed = 1;
nodes = (
(645,51,ls),
(645,0,o),
(594,0,qs),
(543,0,o),
(543,51,qs),
(543,53,l),
(487,0,o),
(373,0,qs),
(312,0,o),
(211,33,o),
(141,97,o),
(102,191,o),
(102,252,qs),
(102,631,ls),
(102,679,o),
(154,682,q),
(205,679,o),
(205,631,qs),
(205,223,l),
(226,102,o),
(373,102,qs),
(442,102,o),
(526,163,o),
(543,223,q),
(543,633,ls),
(543,681,o),
(594,684,q),
(645,681,o),
(645,633,qs)
);
},
{
closed = 1;
nodes = (
(276,793,o),
(215,793,qs),
(154,793,o),
(154,856,qs),
(154,918,o),
(215,918,qs),
(276,918,o),
(276,856,qs)
);
},
{
closed = 1;
nodes = (
(594,793,o),
(532,793,qs),
(471,793,o),
(471,856,qs),
(471,918,o),
(532,918,qs),
(594,918,o),
(594,856,qs)
);
}
);
width = 819;
}
);
unicode = 252;
},
{
glyphname = ydieresis;
layers = (
{
layerId = "F770CFF7-FFB9-4382-B2D4-F3546B3D0D49";
shapes = (
{
closed = 1;
nodes = (
(197,-633,ls),
(183,-666,o),
(156,-666,qs),
(143,-666,o),
(129,-659,qs),
(83,-638,o),
(102,-592,qs),
(373,51,l),
(137,610,ls),
(119,654,o),
(166,678,q),
(177,682,o),
(189,682,qs),
(220,682,o),
(233,649,qs),
(424,186,l),
(616,649,ls),
(630,682,o),
(661,682,qs),
(673,682,o),
(684,678,qs),
(717,664,o),
(717,629,qs),
(717,621,o),
(715,616,qs)
);
},
{
closed = 1;
nodes = (
(303,821,o),
(240,821,qs),
(178,821,o),
(178,885,qs),
(178,946,o),
(240,946,qs),
(303,946,o),
(303,885,qs)
);
},
{
closed = 1;
nodes = (
(621,821,o),
(557,821,qs),
(496,821,o),
(496,885,qs),
(496,946,o),
(557,946,qs),
(621,946,o),
(621,885,qs)
);
}
);
width = 819;
}
);
unicode = 255;
},
{
glyphname = OE;
layers = (
{
layerId = "F770CFF7-FFB9-4382-B2D4-F3546B3D0D49";
shapes = (
{
closed = 1;
nodes = (
(2067,0,o),
(2019,0,qs),
(1243,0,ls),
(1192,0,o),
(1192,51,qs),
(1192,131,l),
(1012,0,o),
(784,0,qs),
(497,0,o),
(299,199,qs),
(199,299,o),
(102,541,o),
(102,684,qs),
(102,970,o),
(299,1167,qs),
(498,1366,o),
(784,1366,qs),
(1012,1366,o),
(1192,1235,q),
(1192,1280,ls),
(1192,1331,o),
(1243,1331,qs),
(2019,1331,ls),
(2067,1331,o),
(2071,1280,q),
(2067,1229,o),
(2019,1229,qs),
(1294,1229,l),
(1294,735,l),
(1729,735,ls),
(1752,735,o),
(1778,710,o),
(1780,684,q),
(1778,658,o),
(1752,633,o),
(1729,633,qs),
(1294,633,l),
(1294,102,l),
(2019,102,ls),
(2067,102,o),
(2071,51,q)
);
},
{
closed = 1;
nodes = (
(1192,1098,l),
(1107,1179,o),
(905,1262,o),
(784,1262,qs),
(541,1262,o),
(373,1094,qs),
(205,926,o),
(205,682,qs),
(205,438,o),
(373,270,qs),
(541,102,o),
(784,102,qs),
(905,102,o),
(1107,185,o),
(1192,266,q)
);
}
);
width = 2253;
}
);
unicode = 338;
},
{
glyphname = oe;
layers = (
{
layerId = "F770CFF7-FFB9-4382-B2D4-F3546B3D0D49";
shapes = (
{
closed = 1;
nodes = (
(717,342,l),
(717,326,ls),
(717,284,o),
(751,207,o),
(780,172,qs),
(838,102,o),
(922,102,qs),
(1022,102,o),
(1079,186,q),
(1094,218,o),
(1120,218,qs),
(1130,218,o),
(1147,211,qs),
(1195,189,o),
(1174,143,q),
(1073,0,o),
(922,0,qs),
(754,0,o),
(666,154,q),
(573,0,o),
(410,0,qs),
(341,0,o),
(228,58,o),
(147,154,o),
(102,277,o),
(102,342,qs),
(102,408,o),
(146,531,o),
(227,627,o),
(340,684,o),
(410,684,qs),
(576,684,o),
(666,532,q),
(755,684,o),
(922,684,qs),
(991,684,o),
(1104,626,o),
(1185,530,o),
(1229,407,o),
(1229,342,q)
);
},
{
closed = 1;
nodes = (
(614,385,o),
(585,470,o),
(532,539,o),
(457,582,o),
(410,582,qs),
(364,582,o),
(289,539,o),
(235,470,o),
(205,384,o),
(205,342,qs),
(205,300,o),
(235,214,o),
(289,145,o),
(364,102,o),
(410,102,qs),
(455,102,o),
(530,146,o),
(584,215,o),
(614,300,o),
(614,342,qs)
);
},
{
closed = 1;
nodes = (
(1104,444,l),
(1046,582,o),
(922,582,qs),
(797,582,o),
(739,444,q)
);
},
{
closed = 1;
nodes = (
(614,326,l),
(614,358,l)
);
}
);
width = 1331;
}
);
unicode = 339;
},
{
glyphname = Ydieresis;
layers = (
{
layerId = "F770CFF7-FFB9-4382-B2D4-F3546B3D0D49";
shapes = (
{
closed = 1;
nodes = (
(705,467,l),
(705,51,ls),
(705,0,o),
(653,0,qs),
(602,0,o),
(602,51,qs),
(602,463,l),
(233,942,ls),
(221,957,o),
(221,973,qs),
(221,1026,o),
(274,1026,qs),
(287,1026,o),
(307,1014,o),
(315,1004,qs),
(651,567,l),
(989,1004,ls),
(997,1014,o),
(1017,1024,o),
(1028,1024,qs),
(1081,1024,o),
(1081,973,qs),
(1081,959,o),
(1071,942,q)
);
},
{
closed = 1;
nodes = (
(551,1110,o),
(487,1110,qs),
(426,1110,o),
(426,1174,qs),
(426,1235,o),
(487,1235,qs),
(551,1235,o),
(551,1174,qs)
);
},
{
closed = 1;
nodes = (
(868,1110,o),
(805,1110,qs),
(743,1110,o),
(743,1174,qs),
(743,1235,o),
(805,1235,qs),
(868,1235,o),
(868,1174,qs)
);
}
);
width = 1331;
}
);
unicode = 376;
},
{
glyphname = circumflex;
layers = (
{
layerId = "F770CFF7-FFB9-4382-B2D4-F3546B3D0D49";
shapes = (
{
closed = 1;
nodes = (
(670,1128,l),
(547,1128,l),
(336,1331,l),
(123,1128,l),
(0,1128,l),
(258,1475,l),
(412,1475,l)
);
}
);
width = 670;
}
);
unicode = 710;
},
{
glyphname = tilde;
layers = (
{
layerId = "F770CFF7-FFB9-4382-B2D4-F3546B3D0D49";
shapes = (
{
closed = 1;
nodes = (
(711,1423,l),
(699,1378,o),
(659,1296,o),
(601,1235,o),
(523,1198,o),
(473,1198,qs),
(432,1198,o),
(371,1229,o),
(309,1265,o),
(238,1296,o),
(188,1296,qs),
(167,1296,o),
(131,1279,o),
(102,1252,o),
(84,1216,o),
(82,1198,q),
(0,1198,l),
(12,1243,o),
(52,1325,o),
(110,1387,o),
(188,1423,o),
(238,1423,qs),
(279,1423,o),
(339,1392,o),
(400,1356,o),
(470,1325,o),
(520,1325,qs),
(541,1325,o),
(578,1342,o),
(608,1369,o),
(627,1405,o),
(629,1423,q)
);
}
);
width = 711;
}
);
unicode = 732;
},
{
glyphname = uni1200;
layers = (
{
layerId = "F770CFF7-FFB9-4382-B2D4-F3546B3D0D49";
shapes = (
{
closed = 1;
nodes = (
(0,232,l),
(0,155,o),
(26,108,qs),
(51,61,o),
(95,36,qs),
(138,11,o),
(196,4,q),
(197,4,o),
(198,4,q),
(219,1,o),
(239,0,q),
(312,8,l),
(346,16,o),
(377,28,qs),
(397,36,o),
(416,46,qs),
(509,95,o),
(570,195,qs),
(630,296,o),
(658,449,q),
(658,449,o),
(669,587,o),
(681,960,o),
(684,1288,q),
(684,1305,o),
(673,1314,qs),
(662,1323,o),
(649,1323,qs),
(635,1323,o),
(624,1314,qs),
(613,1305,o),
(614,1287,q),
(614,1287,o),
(602,521,o),
(592,462,qs),
(568,320,o),
(517,232,qs),
(466,145,o),
(387,106,qs),
(354,89,o),
(317,80,qs),
(303,76,o),
(287,74,q),
(267,70,o),
(245,72,q),
(245,72,l),
(224,73,o),
(205,76,qs),
(157,83,o),
(127,104,qs),
(97,125,o),
(84,163,qs),
(70,201,o),
(70,263,qs),
(70,1288,ls),
(70,1302,o),
(60,1312,qs),
(50,1323,o),
(35,1323,qs),
(21,1323,o),
(10,1312,qs),
(0,1302,o),
(0,1288,qs)
);
}
);
width = 707;
}
);
unicode = 4608;
},
{
glyphname = uni1201;
layers = (
{
layerId = "F770CFF7-FFB9-4382-B2D4-F3546B3D0D49";
shapes = (
{
closed = 1;
nodes = (
(1068,736,l),
(1068,750,o),
(1058,760,qs),
(1047,770,o),
(1033,770,qs),
(676,770,l),
(684,1288,l),
(684,1305,o),
(673,1314,qs),
(662,1323,o),
(649,1323,qs),
(635,1323,o),
(624,1314,qs),
(613,1305,o),
(614,1287,q),
(614,1287,o),
(602,521,o),
(592,462,qs),
(568,320,o),
(517,232,qs),
(466,145,o),
(387,106,qs),
(354,89,o),
(317,80,qs),
(303,76,o),
(287,74,q),
(267,70,o),
(245,72,q),
(245,72,l),
(224,73,o),
(205,76,qs),
(157,83,o),
(127,104,qs),
(97,125,o),
(84,163,qs),
(70,201,o),
(70,263,qs),
(70,1288,ls),
(70,1302,o),
(60,1312,qs),
(50,1323,o),
(35,1323,qs),
(21,1323,o),
(10,1312,qs),
(0,1302,o),
(0,1288,qs),
(0,232,ls),
(0,155,o),
(26,108,qs),
(51,61,o),
(95,36,qs),
(138,11,o),
(196,4,q),
(197,4,o),
(198,4,q),
(219,1,o),
(239,0,q),
(312,8,l),
(346,16,o),
(377,28,qs),
(397,36,o),
(416,46,qs),
(509,95,o),
(570,195,qs),
(630,296,o),
(658,449,qs),
(667,498,o),
(674,700,q),
(1033,700,ls),
(1047,700,o),
(1058,710,q),
(1068,721,o),
(1068,735,q)
);
}
);
width = 1082;
}
);
unicode = 4609;
},
{
glyphname = uni1202;
layers = (
{
layerId = "F770CFF7-FFB9-4382-B2D4-F3546B3D0D49";
shapes = (
{
closed = 1;
nodes = (
(779,50,o),
(768,61,qs),
(763,66,o),
(757,68,qs),
(751,71,o),
(744,71,q),
(355,72,l),
(648,1282,ls),
(653,1302,o),
(641,1312,qs),
(629,1323,o),
(614,1323,qs),
(603,1323,o),
(593,1316,qs),
(583,1309,o),
(579,1295,qs),
(491,943,l),
(472,894,o),
(449,859,qs),
(425,824,o),
(394,802,qs),
(362,780,o),
(322,770,qs),
(281,760,o),
(230,760,qs),
(183,760,o),
(152,780,qs),
(121,801,o),
(103,834,qs),
(84,868,o),
(77,910,qs),
(69,953,o),
(70,997,qs),
(73,1250,l),
(74,1267,o),
(63,1276,qs),
(52,1285,o),
(38,1285,qs),
(25,1285,o),
(14,1276,qs),
(3,1267,o),
(3,1250,q),
(0,998,ls),
(-1,937,o),
(12,881,qs),
(24,826,o),
(52,783,qs),
(79,741,o),
(123,715,qs),
(167,690,o),
(230,690,qs),
(296,690,o),
(350,708,qs),
(404,727,o),
(446,761,q),
(275,41,ls),
(270,21,o),
(282,10,qs),
(293,0,o),
(308,0,qs),
(744,0,ls),
(758,0,o),
(768,11,q),
(779,21,o),
(779,36,qs)
);
}
);
width = 793;
}
);
unicode = 4610;
},
{
glyphname = uni1203;
layers = (
{
layerId = "F770CFF7-FFB9-4382-B2D4-F3546B3D0D49";
shapes = (
{
closed = 1;
nodes = (
(653,1302,o),
(648,1282,qs),
(344,28,l),
(340,14,o),
(330,7,qs),
(319,0,o),
(308,0,qs),
(293,0,o),
(282,10,qs),
(270,21,o),
(275,41,qs),
(446,761,l),
(404,727,o),
(350,708,qs),
(296,690,o),
(230,690,qs),
(167,690,o),
(123,715,qs),
(79,741,o),
(52,783,qs),
(24,826,o),
(12,881,qs),
(-1,937,o),
(0,998,qs),
(3,1250,l),
(3,1267,o),
(14,1276,qs),
(25,1285,o),
(38,1285,qs),
(52,1285,o),
(63,1276,qs),
(74,1267,o),
(73,1250,q),
(70,997,ls),
(69,953,o),
(77,910,qs),
(84,868,o),
(103,834,qs),
(121,801,o),
(152,780,qs),
(183,760,o),
(230,760,qs),
(281,760,o),
(322,770,qs),
(362,780,o),
(394,802,qs),
(425,824,o),
(449,859,qs),
(472,894,o),
(491,943,q),
(579,1295,ls),
(583,1309,o),
(593,1316,qs),
(603,1323,o),
(614,1323,qs),
(629,1323,o),
(641,1312,qs)
);
}
);
width = 668;
}
);
unicode = 4611;
},
{
glyphname = uni1204;
layers = (
{
layerId = "F770CFF7-FFB9-4382-B2D4-F3546B3D0D49";
shapes = (
{
closed = 1;
nodes = (
(778,239,o),
(778,191,qs),
(778,147,o),
(759,111,qs),
(740,76,o),
(709,51,qs),
(679,26,o),
(639,13,qs),
(599,0,o),
(558,0,qs),
(308,0,ls),
(293,0,o),
(282,10,qs),
(270,21,o),
(275,41,qs),
(446,761,l),
(404,727,o),
(350,708,qs),
(296,690,o),
(230,690,qs),
(167,690,o),
(123,715,qs),
(79,741,o),
(52,783,qs),
(24,826,o),
(12,881,qs),
(-1,937,o),
(0,998,qs),
(3,1250,l),
(3,1267,o),
(14,1276,qs),
(25,1285,o),
(38,1285,qs),
(52,1285,o),
(63,1276,qs),
(74,1267,o),
(73,1250,q),
(70,997,ls),
(69,953,o),
(77,910,qs),
(84,868,o),
(103,834,qs),
(121,801,o),
(152,780,qs),
(183,760,o),
(230,760,qs),
(281,760,o),
(322,770,qs),
(362,780,o),
(394,802,qs),
(425,824,o),
(449,859,qs),
(472,894,o),
(491,943,q),
(579,1295,ls),
(583,1309,o),
(593,1316,qs),
(603,1323,o),
(614,1323,qs),
(629,1323,o),
(641,1312,qs),
(653,1302,o),
(648,1282,qs),
(438,413,l),
(565,413,ls),
(613,413,o),
(652,396,qs),
(692,379,o),
(720,349,qs),
(748,319,o),
(763,279,q)
);
},
{
closed = 1;
nodes = (
(712,161,o),
(712,191,qs),
(712,225,o),
(702,254,q),
(691,282,o),
(672,303,qs),
(653,324,o),
(625,336,qs),
(598,348,o),
(565,348,qs),
(422,348,l),
(354,67,l),
(558,66,l),
(586,66,o),
(613,74,qs),
(641,82,o),
(662,98,qs),
(684,114,o),
(698,137,qs)
);
}
);
width = 799;
}
);
unicode = 4612;
},
{
glyphname = uni1205;
layers = (
{
layerId = "F770CFF7-FFB9-4382-B2D4-F3546B3D0D49";
shapes = (
{
closed = 1;
nodes = (
(824,449,o),
(835,587,o),
(847,960,o),
(850,1288,q),
(850,1305,o),
(839,1314,qs),
(828,1323,o),
(815,1323,qs),
(801,1323,o),
(790,1314,qs),
(779,1305,o),
(780,1287,q),
(780,1287,o),
(768,521,o),
(758,462,qs),
(734,320,o),
(683,232,qs),
(632,145,o),
(553,106,q),
(521,89,o),
(484,80,qs),
(469,76,o),
(453,74,q),
(433,70,o),
(412,72,q),
(411,72,l),
(390,73,o),
(371,76,qs),
(323,83,o),
(293,104,qs),
(263,125,o),
(250,163,q),
(236,200,o),
(236,263,qs),
(236,888,ls),
(236,917,o),
(195,958,o),
(166,958,qs),
(70,958,l),
(70,1288,ls),
(70,1302,o),
(60,1312,qs),
(49,1323,o),
(35,1323,q),
(34,1323,l),
(20,1323,o),
(10,1312,qs),
(0,1302,o),
(0,1288,qs),
(0,959,ls),
(0,929,o),
(41,888,o),
(71,888,qs),
(166,888,l),
(166,232,ls),
(166,155,o),
(192,108,qs),
(217,61,o),
(261,36,qs),
(304,11,o),
(362,4,q),
(363,4,o),
(364,4,q),
(385,1,o),
(406,0,q),
(478,8,l),
(512,16,o),
(543,28,qs),
(563,36,o),
(582,46,qs),
(675,95,o),
(736,195,qs),
(796,296,o),
(824,449,q)
);
}
);
width = 875;
}
);
unicode = 4613;
},
{
glyphname = uni1206;
layers = (
{
layerId = "F770CFF7-FFB9-4382-B2D4-F3546B3D0D49";
shapes = (
{
closed = 1;
nodes = (
(1097,1148,o),
(1097,1100,qs),
(1097,1056,o),
(1078,1021,qs),
(1059,985,o),
(1028,960,qs),
(997,936,o),
(958,922,q),
(918,909,o),
(877,909,qs),
(680,909,l),
(680,909,o),
(665,484,o),
(658,449,qs),
(630,296,o),
(570,195,qs),
(509,95,o),
(416,46,qs),
(397,36,o),
(377,28,qs),
(346,16,o),
(312,8,q),
(239,0,l),
(219,1,o),
(198,4,q),
(197,4,o),
(196,4,q),
(138,11,o),
(95,36,qs),
(51,61,o),
(26,108,qs),
(0,155,o),
(0,232,qs),
(0,1288,ls),
(0,1302,o),
(10,1312,qs),
(21,1323,o),
(35,1323,qs),
(50,1323,o),
(60,1312,qs),
(70,1302,o),
(70,1288,qs),
(70,263,ls),
(70,201,o),
(84,163,qs),
(97,125,o),
(127,104,qs),
(157,83,o),
(205,76,qs),
(224,73,o),
(245,72,q),
(245,72,l),
(267,70,o),
(287,74,q),
(303,76,o),
(317,80,qs),
(354,89,o),
(387,106,qs),
(466,145,o),
(517,232,qs),
(568,320,o),
(592,462,q),
(592,462,o),
(602,595,o),
(611,962,o),
(614,1287,q),
(613,1305,o),
(624,1314,qs),
(631,1320,o),
(640,1322,q),
(641,1322,o),
(642,1322,q),
(646,1323,o),
(649,1323,qs),
(883,1323,ls),
(932,1323,o),
(971,1306,qs),
(1011,1289,o),
(1039,1259,qs),
(1067,1229,o),
(1082,1188,q)
);
},
{
closed = 1;
nodes = (
(1031,1070,o),
(1031,1100,qs),
(1031,1134,o),
(1020,1163,qs),
(1010,1192,o),
(991,1212,qs),
(972,1233,o),
(944,1245,qs),
(917,1257,o),
(883,1257,qs),
(684,1257,l),
(684,976,l),
(877,976,ls),
(904,976,o),
(932,984,qs),
(959,992,o),
(981,1007,qs),
(1003,1023,o),
(1017,1047,q)
);
}
);
width = 1110;
}
);
unicode = 4614;
},
{
glyphname = uni1207;
layers = (
{
layerId = "F770CFF7-FFB9-4382-B2D4-F3546B3D0D49";
shapes = (
{
closed = 1;
nodes = (
(1473,1148,o),
(1473,1100,qs),
(1473,1056,o),
(1454,1021,q),
(1436,985,o),
(1405,960,qs),
(1374,936,o),
(1334,922,qs),
(1295,909,o),
(1254,909,qs),
(1056,909,l),
(1056,909,o),
(1041,484,o),
(1035,449,qs),
(1007,296,o),
(946,195,qs),
(885,95,o),
(792,46,qs),
(774,36,o),
(753,28,qs),
(723,16,o),
(688,8,q),
(616,0,l),
(595,1,o),
(574,4,q),
(574,4,o),
(572,4,q),
(515,11,o),
(471,36,qs),
(427,61,o),
(402,108,qs),
(376,155,o),
(376,232,qs),
(376,735,l),
(35,735,ls),
(21,735,o),
(11,745,qs),
(0,756,o),
(0,770,q),
(0,771,l),
(0,785,o),
(11,795,qs),
(21,805,o),
(35,805,qs),
(376,805,l),
(376,1288,ls),
(376,1302,o),
(387,1312,qs),
(398,1323,o),
(411,1323,qs),
(426,1323,o),
(436,1312,qs),
(446,1302,o),
(446,1288,qs),
(446,263,ls),
(446,201,o),
(460,163,qs),
(473,125,o),
(503,104,qs),
(533,83,o),
(581,76,qs),
(600,73,o),
(622,72,q),
(622,72,l),
(644,70,o),
(664,74,q),
(679,76,o),
(694,80,qs),
(731,89,o),
(764,106,qs),
(843,145,o),
(894,232,qs),
(945,320,o),
(969,462,q),
(969,462,o),
(978,595,o),
(988,962,o),
(991,1287,q),
(990,1305,o),
(1001,1314,qs),
(1008,1320,o),
(1017,1322,q),
(1018,1322,o),
(1019,1322,q),
(1022,1323,o),
(1026,1323,qs),
(1260,1323,ls),
(1308,1323,o),
(1348,1306,qs),
(1387,1289,o),
(1415,1259,qs),
(1443,1229,o),
(1458,1188,q)
);
},
{
closed = 1;
nodes = (
(1407,1070,o),
(1407,1100,qs),
(1407,1134,o),
(1397,1163,qs),
(1387,1192,o),
(1367,1212,q),
(1348,1233,o),
(1321,1245,qs),
(1293,1257,o),
(1260,1257,qs),
(1061,1257,l),
(1061,976,l),
(1254,976,ls),
(1281,976,o),
(1308,984,qs),
(1336,992,o),
(1358,1007,q),
(1379,1023,o),
(1393,1047,q)
);
}
);
width = 1484;
}
);
unicode = 4615;
},
{
glyphname = uni1208;
layers = (
{
layerId = "F770CFF7-FFB9-4382-B2D4-F3546B3D0D49";
shapes = (
{
closed = 1;
nodes = (
(722,35,ls),
(722,21,o),
(701,0,o),
(687,0,qs),
(672,0,o),
(652,21,o),
(652,35,qs),
(652,800,ls),
(652,868,o),
(607,994,o),
(580,1044,qs),
(548,1102,o),
(508,1153,q),
(406,1097,o),
(270,984,o),
(185,850,o),
(142,686,o),
(124,475,o),
(121,207,o),
(120,35,q),
(120,21,o),
(99,0,o),
(85,0,qs),
(71,0,o),
(50,21,o),
(50,35,q),
(51,197,o),
(52,466,o),
(71,689,o),
(116,871,o),
(209,1023,o),
(357,1149,o),
(469,1205,q),
(460,1221,o),
(448,1240,qs),
(437,1257,o),
(408,1300,o),
(388,1325,qs),
(379,1336,o),
(383,1365,o),
(394,1374,qs),
(404,1382,o),
(415,1382,qs),
(432,1382,o),
(443,1368,qs),
(506,1289,o),
(609,1134,o),
(682,994,o),
(722,876,o),
(722,835,qs)
);
}
);
width = 822;
}
);
unicode = 4616;
},
{
glyphname = uni1209;
layers = (
{
layerId = "F770CFF7-FFB9-4382-B2D4-F3546B3D0D49";
shapes = (
{
closed = 1;
nodes = (
(1154,710,l),
(1156,695,o),
(1136,674,o),
(1122,672,q),
(726,636,l),
(722,35,l),
(722,21,o),
(701,0,o),
(687,0,qs),
(672,0,o),
(652,21,o),
(652,35,qs),
(652,800,ls),
(652,868,o),
(607,994,o),
(580,1044,qs),
(548,1102,o),
(508,1153,q),
(406,1097,o),
(270,984,o),
(185,850,o),
(142,686,o),
(124,475,o),
(121,207,o),
(120,35,q),
(120,21,o),
(99,0,o),
(85,0,qs),
(71,0,o),
(50,21,o),
(50,35,q),
(51,197,o),
(52,466,o),
(71,689,o),
(116,871,o),
(209,1023,o),
(357,1149,o),
(469,1205,q),
(460,1221,o),
(448,1240,qs),
(437,1257,o),
(408,1300,o),
(388,1325,qs),
(379,1336,o),
(383,1365,o),
(394,1374,qs),
(404,1382,o),
(415,1382,qs),
(432,1382,o),
(443,1368,qs),
(506,1289,o),
(610,1134,o),
(683,994,o),
(723,876,o),
(722,835,qs),
(720,707,l),
(1116,742,ls),
(1130,743,o),
(1152,725,o),
(1154,711,q)
);
}
);
width = 1254;
}
);
unicode = 4617;
},
{
glyphname = uni120A;
layers = (
{
layerId = "F770CFF7-FFB9-4382-B2D4-F3546B3D0D49";
shapes = (
{
closed = 1;
nodes = (
(1154,21,o),
(1134,0,o),
(1119,0,qs),
(685,0,ls),
(671,0,o),
(651,21,o),
(651,35,qs),
(651,800,ls),
(651,868,o),
(606,994,o),
(580,1044,q),
(548,1102,o),
(508,1153,q),
(406,1097,o),
(270,984,o),
(185,850,o),
(142,686,o),
(124,475,o),
(121,207,o),
(120,35,q),
(120,21,o),
(99,0,o),
(85,0,qs),
(71,0,o),
(50,21,o),
(50,35,q),
(51,197,o),
(52,466,o),
(71,689,o),
(116,871,o),
(209,1023,o),
(357,1149,o),
(469,1205,q),
(460,1221,o),
(448,1240,qs),
(437,1257,o),
(407,1300,o),
(387,1325,qs),
(378,1336,o),
(382,1365,o),
(393,1374,qs),
(403,1382,o),
(414,1382,qs),
(431,1382,o),
(442,1368,qs),
(505,1289,o),
(608,1134,o),
(681,994,o),
(721,876,o),
(721,835,qs),
(721,70,l),
(1119,70,ls),
(1133,70,o),
(1154,49,o),
(1154,35,qs)
);
}
);
width = 1254;
}
);
unicode = 4618;
},
{
glyphname = uni120B;
layers = (
{
layerId = "F770CFF7-FFB9-4382-B2D4-F3546B3D0D49";
shapes = (
{
closed = 1;
nodes = (
(719,35,ls),
(719,21,o),
(698,0,o),
(684,0,qs),
(669,0,o),
(649,21,o),
(649,35,qs),
(649,800,ls),
(649,868,o),
(604,994,o),
(577,1044,qs),
(545,1102,o),
(505,1153,q),
(423,1108,o),
(304,1017,o),
(220,916,o),
(167,800,o),
(136,659,o),
(123,488,o),
(121,383,q),
(120,369,o),
(100,348,o),
(86,348,qs),
(72,348,o),
(50,372,o),
(50,386,q),
(53,542,o),
(83,786,o),
(170,982,o),
(332,1138,o),
(466,1205,q),
(457,1221,o),
(445,1240,qs),
(434,1257,o),
(405,1300,o),
(385,1325,qs),
(376,1336,o),
(380,1365,o),
(391,1374,qs),
(401,1382,o),
(412,1382,qs),
(429,1382,o),
(440,1368,qs),
(503,1289,o),
(606,1134,o),
(679,994,o),
(719,876,o),
(719,835,qs)
);
}
);
width = 819;
}
);
unicode = 4619;
},
{
glyphname = uni120C;
layers = (
{
layerId = "F770CFF7-FFB9-4382-B2D4-F3546B3D0D49";
shapes = (
{
closed = 1;
nodes = (
(1122,268,o),
(1122,224,qs),
(1122,176,o),
(1107,135,qs),
(1092,95,o),
(1064,65,qs),
(1035,35,o),
(996,18,qs),
(957,1,o),
(908,1,qs),
(665,1,l),
(656,3,o),
(649,10,qs),
(639,21,o),
(639,35,qs),
(639,800,ls),
(639,868,o),
(617,931,qs),
(594,994,o),
(567,1044,qs),
(535,1102,o),
(495,1153,q),
(393,1097,o),
(325,1040,qs),
(257,984,o),
(215,917,qs),
(172,850,o),
(151,768,qs),
(129,686,o),
(120,580,qs),
(111,476,o),
(109,341,q),
(108,203,o),
(107,35,q),
(107,21,o),
(97,10,q),
(86,0,o),
(72,0,qs),
(58,0,o),
(47,10,q),
(37,21,o),
(37,35,q),
(38,179,o),
(39,332,q),
(39,466,o),
(49,578,qs),
(58,689,o),
(81,780,qs),
(103,871,o),
(149,947,qs),
(196,1023,o),
(270,1086,qs),
(344,1149,o),
(456,1205,q),
(447,1221,o),
(435,1240,qs),
(424,1257,o),
(409,1278,qs),
(395,1299,o),
(375,1325,qs),
(366,1336,o),
(368,1350,qs),
(370,1365,o),
(381,1374,qs),
(391,1382,o),
(402,1382,qs),
(419,1382,o),
(430,1368,qs),
(493,1289,o),
(545,1212,qs),
(596,1134,o),
(633,1064,qs),
(669,994,o),
(689,935,qs),
(709,876,o),
(709,835,qs),
(709,415,l),
(902,415,ls),
(943,415,o),
(983,401,qs),
(1022,388,o),
(1053,363,qs),
(1084,339,o),
(1103,303,q)
);
},
{
closed = 1;
nodes = (
(1055,189,o),
(1055,224,qs),
(1055,254,o),
(1042,277,qs),
(1028,301,o),
(1006,316,qs),
(984,332,o),
(956,340,qs),
(929,348,o),
(902,348,qs),
(709,348,l),
(709,67,l),
(908,67,ls),
(942,67,o),
(969,79,qs),
(996,90,o),
(1016,111,qs),
(1035,132,o),
(1045,161,q)
);
}
);
width = 1155;
}
);
unicode = 4620;
},
{
glyphname = uni120D;
layers = (
{
layerId = "F770CFF7-FFB9-4382-B2D4-F3546B3D0D49";
shapes = (
{
closed = 1;
nodes = (
(721,876,o),
(721,835,qs),
(721,35,ls),
(721,21,o),
(711,10,q),
(700,0,o),
(686,0,qs),
(671,0,o),
(661,10,qs),
(651,21,o),
(651,35,qs),
(651,800,ls),
(651,868,o),
(629,931,qs),
(606,994,o),
(579,1044,qs),
(547,1102,o),
(507,1153,q),
(405,1097,o),
(337,1040,qs),
(269,984,o),
(227,917,qs),
(184,850,o),
(163,768,qs),
(141,686,o),
(132,580,qs),
(125,504,o),
(123,413,q),
(265,413,ls),
(306,413,o),
(346,400,qs),
(385,387,o),
(416,362,qs),
(447,338,o),
(466,302,qs),
(485,267,o),
(485,222,qs),
(485,175,o),
(470,134,qs),
(455,94,o),
(427,64,qs),
(399,34,o),
(359,17,qs),
(320,0,o),
(271,0,qs),
(84,0,ls),
(70,0,o),
(59,10,q),
(49,21,o),
(49,35,qs),
(49,40,o),
(49,50,qs),
(49,60,o),
(49,66,q),
(50,210,o),
(51,332,q),
(51,337,o),
(51,347,qs),
(51,379,o),
(52,413,qs),
(54,500,o),
(61,578,qs),
(70,689,o),
(93,780,qs),
(115,871,o),
(161,947,qs),
(208,1023,o),
(282,1086,qs),
(356,1149,o),
(468,1205,q),
(459,1221,o),
(447,1240,qs),
(436,1257,o),
(421,1278,qs),
(407,1299,o),
(387,1325,qs),
(378,1336,o),
(380,1350,qs),
(382,1365,o),
(393,1374,qs),
(403,1382,o),
(414,1382,qs),
(431,1382,o),
(442,1368,qs),
(505,1289,o),
(557,1212,qs),
(608,1134,o),
(645,1064,qs),
(681,994,o),
(701,935,q)
);
},
{
closed = 1;
nodes = (
(122,347,l),
(122,346,o),
(122,344,qs),
(122,342,o),
(121,341,q),
(120,224,o),
(119,66,q),
(271,66,ls),
(305,66,o),
(332,78,qs),
(359,89,o),
(379,110,qs),
(398,131,o),
(408,160,q),
(419,188,o),
(419,222,qs),
(419,253,o),
(405,276,qs),
(391,300,o),
(369,315,qs),
(347,331,o),
(320,339,qs),
(292,347,o),
(265,347,q)
);
}
);
width = 822;
}
);
unicode = 4621;
},
{
glyphname = uni120E;
layers = (
{
layerId = "F770CFF7-FFB9-4382-B2D4-F3546B3D0D49";
shapes = (
{
closed = 1;
nodes = (
(1408,699,o),
(1408,651,qs),
(1408,607,o),
(1389,571,qs),
(1370,536,o),
(1339,511,qs),
(1308,487,o),
(1269,473,q),
(1229,460,o),
(1188,460,qs),
(1103,460,ls),
(1053,460,o),
(969,510,o),
(919,594,o),
(919,644,qs),
(919,804,l),
(721,804,l),
(721,35,ls),
(721,21,o),
(711,10,q),
(700,0,o),
(686,0,qs),
(671,0,o),
(661,10,qs),
(651,21,o),
(651,35,qs),
(651,800,ls),
(651,868,o),
(629,931,qs),
(606,994,o),
(579,1044,qs),
(547,1102,o),
(507,1153,q),
(405,1097,o),
(337,1040,qs),
(269,984,o),
(227,917,qs),
(184,850,o),
(163,768,qs),
(141,686,o),
(132,580,qs),
(123,476,o),
(121,341,q),
(120,203,o),
(119,35,q),
(119,21,o),
(109,10,q),
(98,0,o),
(84,0,qs),
(70,0,o),
(59,10,q),
(49,21,o),
(49,35,q),
(50,179,o),
(51,332,q),
(51,466,o),
(61,578,qs),
(70,689,o),
(93,780,qs),
(115,871,o),
(161,947,qs),
(208,1023,o),
(282,1086,qs),
(356,1149,o),
(468,1205,q),
(459,1221,o),
(447,1240,qs),
(436,1257,o),
(421,1278,qs),
(407,1299,o),
(387,1325,qs),
(378,1336,o),
(380,1350,qs),
(382,1365,o),
(393,1374,qs),
(403,1382,o),
(414,1382,qs),
(431,1382,o),
(442,1368,qs),
(505,1289,o),
(557,1212,qs),
(608,1134,o),
(645,1064,qs),
(681,994,o),
(701,935,qs),
(712,901,o),
(717,874,q),
(1195,874,ls),
(1243,874,o),
(1282,856,q),
(1322,840,o),
(1350,810,qs),
(1378,780,o),
(1393,739,q)
);
},
{
closed = 1;
nodes = (
(1342,621,o),
(1342,651,qs),
(1342,685,o),
(1332,714,q),
(1321,742,o),
(1302,763,qs),
(1283,784,o),
(1255,796,qs),
(1228,808,o),
(1195,808,qs),
(985,808,l),
(985,643,ls),
(985,600,o),
(1050,532,o),
(1092,525,qs),
(1099,524,o),
(1109,524,qs),
(1166,524,ls),
(1200,524,o),
(1229,531,q),
(1236,532,o),
(1243,534,qs),
(1270,542,o),
(1292,558,qs),
(1314,574,o),
(1328,597,q)
);
}
);
width = 1457;
}
);
unicode = 4622;
},
{
glyphname = uni120F;
layers = (
{
layerId = "F770CFF7-FFB9-4382-B2D4-F3546B3D0D49";
shapes = (
{
closed = 1;
nodes = (
(1139,35,l),
(1139,21,o),
(1128,10,qs),
(1118,0,o),
(1104,0,q),
(303,1,l),
(289,1,o),
(278,12,qs),
(268,22,o),
(268,36,q),
(268,37,l),
(268,51,o),
(278,61,qs),
(289,71,o),
(303,71,qs),
(645,71,l),
(645,800,ls),
(645,868,o),
(622,931,qs),
(600,994,o),
(573,1044,qs),
(541,1102,o),
(501,1153,q),
(419,1108,o),
(360,1063,qs),
(300,1017,o),
(258,967,qs),
(216,916,o),
(190,858,qs),
(163,800,o),
(148,730,qs),
(132,659,o),
(126,574,qs),
(119,488,o),
(117,383,q),
(116,369,o),
(106,359,qs),
(96,348,o),
(82,348,qs),
(68,348,o),
(57,360,qs),
(46,372,o),
(46,386,q),
(48,490,o),
(55,579,qs),
(62,667,o),
(78,743,qs),
(95,820,o),
(124,884,qs),
(152,949,o),
(198,1006,qs),
(243,1062,o),
(308,1112,qs),
(373,1161,o),
(462,1205,q),
(453,1221,o),
(441,1240,qs),
(431,1256,o),
(416,1279,qs),
(401,1300,o),
(381,1325,qs),
(372,1336,o),
(374,1351,qs),
(376,1365,o),
(387,1374,qs),
(398,1383,o),
(412,1382,qs),
(426,1380,o),
(436,1368,qs),
(499,1289,o),
(550,1212,qs),
(602,1134,o),
(638,1064,qs),
(675,994,o),
(695,935,qs),
(715,876,o),
(715,835,qs),
(715,70,l),
(1104,70,ls),
(1118,70,o),
(1128,60,qs),
(1139,50,o),
(1139,36,q)
);
}
);
width = 1188;
}
);
unicode = 4623;
},
{
glyphname = uni1210;
layers = (
{
layerId = "F770CFF7-FFB9-4382-B2D4-F3546B3D0D49";
shapes = (
{
closed = 1;
nodes = (
(533,778,l),
(426,778,o),
(268,700,o),
(166,525,o),
(118,241,o),
(120,35,q),
(121,17,o),
(99,-1,o),
(85,-1,qs),
(72,-1,o),
(50,17,o),
(50,34,q),
(48,243,o),
(104,549,o),
(225,750,o),
(412,848,o),
(539,848,q),
(584,1370,l),
(586,1384,o),
(608,1403,o),
(622,1401,q),
(623,1401,l),
(637,1400,o),
(657,1377,o),
(655,1363,q),
(610,841,l),
(694,845,ls),
(761,848,o),
(879,834,o),
(967,784,o),
(1018,690,o),
(1018,613,qs),
(1018,35,ls),
(1018,21,o),
(997,0,o),
(983,0,qs),
(968,0,o),
(948,21,o),
(948,35,qs),
(948,582,ls),
(948,644,o),
(921,720,o),
(861,762,o),
(765,776,o),
(696,774,qs),
(603,772,l),
(539,34,l),
(537,20,o),
(515,1,o),
(501,3,q),
(500,3,l),
(486,4,o),
(467,27,o),
(468,41,qs)
);
}
);
width = 1118;
}
);
unicode = 4624;
},
{
glyphname = uni1211;
layers = (
{
layerId = "F770CFF7-FFB9-4382-B2D4-F3546B3D0D49";
shapes = (
{
closed = 1;
nodes = (
(533,778,l),
(426,778,o),
(268,700,o),
(166,525,o),
(118,241,o),
(120,35,q),
(121,17,o),
(99,-1,o),
(85,-1,qs),
(72,-1,o),
(50,17,o),
(50,34,q),
(48,243,o),
(104,549,o),
(225,750,o),
(412,848,o),
(539,848,q),
(584,1370,l),
(586,1384,o),
(608,1403,o),
(622,1401,q),
(623,1401,l),
(637,1400,o),
(657,1377,o),
(655,1363,q),
(610,841,l),
(694,845,ls),
(761,848,o),
(879,834,o),
(967,784,o),
(1018,690,o),
(1018,613,qs),
(1018,538,l),
(1416,538,ls),
(1430,538,o),
(1451,518,o),
(1451,504,q),
(1451,503,l),
(1451,488,o),
(1430,468,o),
(1416,468,q),
(1018,467,l),
(1018,35,ls),
(1018,21,o),
(997,0,o),
(983,0,qs),
(968,0,o),
(948,21,o),
(948,35,qs),
(948,582,ls),
(948,644,o),
(921,720,o),
(861,762,o),
(765,776,o),
(696,774,qs),
(603,772,l),
(539,34,l),
(537,20,o),
(515,1,o),
(501,3,q),
(500,3,l),
(486,4,o),
(467,27,o),
(468,41,qs)
);
}
);
width = 1551;
}
);
unicode = 4625;
},
{
glyphname = uni1212;
layers = (
{
layerId = "F770CFF7-FFB9-4382-B2D4-F3546B3D0D49";
shapes = (
{
closed = 1;
nodes = (
(533,778,l),
(426,778,o),
(268,700,o),
(166,525,o),
(118,241,o),
(120,35,q),
(121,17,o),
(99,-1,o),
(85,-1,qs),
(72,-1,o),
(50,17,o),
(50,34,q),
(48,243,o),
(104,549,o),
(225,750,o),
(412,848,o),
(539,848,q),
(584,1370,l),
(586,1384,o),
(608,1403,o),
(622,1401,q),
(623,1401,l),
(637,1400,o),
(657,1377,o),
(655,1363,q),
(610,841,l),
(694,845,ls),
(761,848,o),
(879,834,o),
(967,784,o),
(1018,690,o),
(1018,613,qs),
(1018,70,l),
(1416,70,ls),
(1430,70,o),
(1451,50,o),
(1451,35,qs),
(1451,21,o),
(1430,0,o),
(1416,0,qs),
(982,0,ls),
(967,0,o),
(948,21,o),
(948,35,qs),
(948,582,ls),
(948,644,o),
(921,720,o),
(861,762,o),
(765,776,o),
(696,774,qs),
(603,772,l),
(539,34,l),
(537,20,o),
(515,1,o),
(501,3,q),
(500,3,l),
(486,4,o),
(467,27,o),
(468,41,qs)
);
}
);
width = 1551;
}
);
unicode = 4626;
},
{
glyphname = uni1213;
layers = (
{
layerId = "F770CFF7-FFB9-4382-B2D4-F3546B3D0D49";
shapes = (
{
closed = 1;
nodes = (
(113,407,o),
(93,392,o),
(82,392,qs),
(67,392,o),
(45,418,o),
(53,447,q),
(100,652,o),
(324,848,o),
(505,848,q),
(551,1370,ls),
(552,1384,o),
(575,1404,o),
(589,1402,q),
(590,1402,l),
(604,1400,o),
(623,1378,o),
(621,1364,q),
(576,842,l),
(676,845,ls),
(743,847,o),
(861,833,o),
(949,783,o),
(1000,690,o),
(1000,613,qs),
(1000,35,ls),
(1000,21,o),
(979,0,o),
(965,0,qs),
(950,0,o),
(930,21,o),
(930,35,qs),
(930,582,ls),
(930,644,o),
(903,720,o),
(843,762,o),
(747,775,o),
(678,774,qs),
(570,772,l),
(536,389,l),
(534,375,o),
(512,355,o),
(498,357,q),
(497,357,l),
(483,359,o),
(464,381,o),
(465,395,qs),
(499,778,l),
(422,778,o),
(298,739,o),
(202,654,o),
(135,518,o),
(115,422,q)
);
}
);
width = 1100;
}
);
unicode = 4627;
},
{
glyphname = uni1214;
layers = (
{
layerId = "F770CFF7-FFB9-4382-B2D4-F3546B3D0D49";
shapes = (
{
closed = 1;
nodes = (
(1424,268,o),
(1424,224,qs),
(1424,176,o),
(1409,135,qs),
(1394,95,o),
(1366,65,qs),
(1338,35,o),
(1298,18,qs),
(1259,1,o),
(1210,1,qs),
(974,1,l),
(960,2,o),
(951,11,qs),
(941,22,o),
(941,36,qs),
(941,583,ls),
(941,645,o),
(928,683,qs),
(914,721,o),
(884,742,qs),
(854,763,o),
(806,770,qs),
(758,777,o),
(689,775,qs),
(596,773,l),
(532,35,l),
(530,21,o),
(519,11,qs),
(508,2,o),
(494,4,q),
(493,4,l),
(479,5,o),
(470,17,q),
(460,28,o),
(461,42,qs),
(526,779,l),
(419,779,o),
(340,740,qs),
(261,701,o),
(210,613,qs),
(159,526,o),
(135,384,qs),
(111,242,o),
(113,36,q),
(114,18,o),
(103,9,qs),
(92,0,o),
(78,0,qs),
(65,0,o),
(54,9,qs),
(43,18,o),
(43,35,q),
(42,140,o),
(55,321,o),
(69,397,qs),
(97,550,o),
(158,651,qs),
(218,751,o),
(312,800,qs),
(405,849,o),
(532,849,q),
(577,1371,l),
(579,1385,o),
(590,1395,qs),
(601,1404,o),
(615,1402,q),
(616,1402,l),
(630,1401,o),
(640,1389,qs),
(650,1378,o),
(648,1364,q),
(603,842,l),
(687,846,ls),
(754,849,o),
(813,842,qs),
(872,835,o),
(916,810,qs),
(960,785,o),
(986,738,qs),
(1011,691,o),
(1011,614,qs),
(1011,415,l),
(1204,415,ls),
(1245,415,o),
(1285,401,qs),
(1324,388,o),
(1355,363,qs),
(1386,339,o),
(1405,303,q)
);
},
{
closed = 1;
nodes = (
(1358,189,o),
(1358,224,qs),
(1358,254,o),
(1344,277,qs),
(1330,301,o),
(1308,316,qs),
(1286,332,o),
(1259,340,qs),
(1231,348,o),
(1204,348,qs),
(1011,348,l),
(1011,67,l),
(1210,67,ls),
(1244,67,o),
(1271,79,qs),
(1298,90,o),
(1318,111,qs),
(1337,132,o),
(1347,161,q)
);
}
);
width = 1444;
}
);
unicode = 4628;
},
{
glyphname = uni1215;
layers = (
{
layerId = "F770CFF7-FFB9-4382-B2D4-F3546B3D0D49";
shapes = (
{
closed = 1;
nodes = (
(1014,614,ls),
(1014,691,o),
(989,738,qs),
(963,785,o),
(919,810,qs),
(875,835,o),
(816,842,qs),
(757,849,o),
(690,846,qs),
(606,842,l),
(627,1113,l),
(629,1127,o),
(619,1138,qs),
(609,1149,o),
(595,1151,q),
(594,1151,l),
(350,1152,l),
(369,1367,ls),
(370,1381,o),
(361,1392,qs),
(351,1404,o),
(337,1405,q),
(336,1405,l),
(322,1407,o),
(311,1397,qs),
(300,1388,o),
(298,1374,q),
(298,1374,o),
(279,1153,q),
(279,1153,l),
(277,1125,o),
(314,1084,o),
(342,1084,qs),
(344,1084,l),
(553,1085,l),
(535,849,l),
(408,849,o),
(315,800,qs),
(221,751,o),
(161,651,qs),
(100,550,o),
(72,397,qs),
(58,321,o),
(45,140,o),
(46,35,q),
(46,18,o),
(57,9,qs),
(68,0,o),
(81,0,qs),
(95,0,o),
(106,9,qs),
(117,18,o),
(116,36,q),
(114,242,o),
(138,384,qs),
(162,526,o),
(213,613,qs),
(264,701,o),
(343,740,qs),
(422,779,o),
(529,779,q),
(464,42,ls),
(463,28,o),
(473,17,q),
(482,5,o),
(496,4,q),
(497,4,l),
(511,2,o),
(522,11,qs),
(533,21,o),
(535,35,q),
(599,773,l),
(692,775,ls),
(761,777,o),
(809,770,qs),
(857,763,o),
(887,742,qs),
(917,721,o),
(931,683,qs),
(944,645,o),
(944,583,qs),
(944,36,ls),
(944,22,o),
(954,11,qs),
(964,1,o),
(979,1,qs),
(993,1,o),
(1004,11,q),
(1014,22,o),
(1014,36,qs)
);
}
);
width = 1075;
}
);
unicode = 4629;
},
{
glyphname = uni1216;
layers = (
{
layerId = "F770CFF7-FFB9-4382-B2D4-F3546B3D0D49";
shapes = (
{
closed = 1;
nodes = (
(533,778,l),
(426,778,o),
(268,701,o),
(166,525,o),
(118,242,o),
(120,36,q),
(121,18,o),
(99,0,o),
(85,0,qs),
(72,0,o),
(50,18,o),
(50,35,q),
(48,244,o),
(104,550,o),
(225,751,o),
(412,848,o),
(539,848,q),
(584,1370,l),
(586,1384,o),
(608,1404,o),
(622,1402,q),
(623,1402,l),
(637,1400,o),
(657,1378,o),
(655,1364,q),
(610,842,l),
(709,845,ls),
(777,847,o),
(895,833,o),
(982,783,o),
(1033,690,o),
(1033,613,qs),
(1033,385,ls),
(1033,371,o),
(1012,350,o),
(998,350,qs),
(983,350,o),
(963,371,o),
(963,385,qs),
(963,582,ls),
(963,644,o),
(936,720,o),
(876,762,o),
(780,775,o),
(711,774,qs),
(603,772,l),
(569,384,ls),
(568,370,o),
(545,350,o),
(531,352,qs),
(517,354,o),
(497,376,o),
(499,390,q)
);
}
);
width = 1133;
}
);
unicode = 4630;
},
{
glyphname = uni1217;
layers = (
{
layerId = "F770CFF7-FFB9-4382-B2D4-F3546B3D0D49";
shapes = (
{
closed = 1;
nodes = (
(1401,35,l),
(1401,21,o),
(1390,10,qs),
(1380,0,o),
(1366,0,q),
(565,1,l),
(551,1,o),
(540,12,qs),
(530,22,o),
(530,36,q),
(530,37,l),
(530,51,o),
(540,61,qs),
(551,71,o),
(565,71,qs),
(907,71,l),
(908,585,l),
(908,647,o),
(894,685,qs),
(880,723,o),
(850,744,qs),
(820,765,o),
(772,771,qs),
(724,778,o),
(655,777,qs),
(547,775,l),
(514,392,l),
(512,378,o),
(501,369,qs),
(490,360,o),
(476,360,q),
(475,360,l),
(461,360,o),
(451,372,qs),
(441,384,o),
(443,398,q),
(476,781,l),
(399,781,o),
(337,761,qs),
(275,742,o),
(227,699,qs),
(179,657,o),
(145,589,qs),
(112,521,o),
(93,424,qs),
(90,408,o),
(77,401,q),
(65,393,o),
(52,395,q),
(40,398,o),
(32,411,qs),
(24,425,o),
(30,450,qs),
(80,655,o),
(190,753,qs),
(301,851,o),
(483,851,q),
(528,1373,l),
(530,1387,o),
(541,1396,qs),
(552,1405,o),
(566,1405,q),
(567,1405,l),
(581,1405,o),
(591,1393,qs),
(601,1381,o),
(599,1367,q),
(553,845,l),
(653,848,ls),
(721,850,o),
(780,843,qs),
(839,836,o),
(883,811,qs),
(927,786,o),
(952,739,qs),
(977,693,o),
(977,616,qs),
(977,70,l),
(1366,70,ls),
(1380,70,o),
(1390,60,qs),
(1401,50,o),
(1401,36,q)
);
}
);
width = 1437;
}
);
unicode = 4631;
},
{
glyphname = uni1218;
layers = (
{
layerId = "F770CFF7-FFB9-4382-B2D4-F3546B3D0D49";
shapes = (
{
closed = 1;
nodes = (
(580,1025,l),
(478,1019,o),
(309,966,o),
(187,864,o),
(120,710,o),
(120,603,qs),
(120,572,o),
(149,521,o),
(200,484,o),
(273,463,o),
(316,463,qs),
(331,463,o),
(380,465,o),
(427,476,o),
(464,497,o),
(468,515,qs)
);
},
{
closed = 1;
nodes = (
(1151,925,o),
(1111,998,o),
(1045,1032,o),
(959,1038,o),
(912,1038,qs),
(888,1038,o),
(839,1039,o),
(816,1041,q),
(822,543,l),
(822,525,o),
(863,510,o),
(914,505,o),
(961,508,o),
(968,508,q),
(1021,511,o),
(1091,574,o),
(1133,672,o),
(1151,795,o),
(1151,859,qs)
);
},
{
closed = 1;
nodes = (
(1221,780,o),
(1192,632,o),
(1132,516,o),
(1038,443,o),
(973,439,qs),
(945,437,o),
(869,438,o),
(801,459,o),
(754,508,o),
(753,555,qs),
(744,1035,l),
(654,1028,l),
(531,474,ls),
(527,456,o),
(488,425,o),
(431,404,o),
(361,392,o),
(326,392,qs),
(277,392,o),
(178,416,o),
(99,467,o),
(50,547,o),
(50,604,qs),
(50,724,o),
(121,890,o),
(240,1000,o),
(398,1063,o),
(571,1094,o),
(749,1104,o),
(830,1106,qs),
(857,1107,o),
(916,1109,o),
(945,1109,qs),
(997,1109,o),
(1096,1093,o),
(1174,1041,o),
(1221,942,o),
(1221,859,qs)
);
}
);
width = 1321;
}
);
unicode = 4632;
},
{
glyphname = uni1219;
layers = (
{
layerId = "F770CFF7-FFB9-4382-B2D4-F3546B3D0D49";
shapes = (
{
closed = 1;
nodes = (
(580,1025,l),
(478,1019,o),
(309,966,o),
(187,864,o),
(120,710,o),
(120,603,qs),
(120,572,o),
(149,521,o),
(200,484,o),
(273,463,o),
(316,463,qs),
(331,463,o),
(380,465,o),
(427,476,o),
(464,497,o),
(468,515,qs)
);
},
{
closed = 1;
nodes = (
(1151,925,o),
(1111,998,o),
(1045,1032,o),
(959,1038,o),
(912,1038,qs),
(888,1038,o),
(839,1039,o),
(816,1041,q),
(822,543,l),
(822,525,o),
(863,510,o),
(914,505,o),
(961,508,o),
(968,508,q),
(1021,511,o),
(1091,574,o),
(1133,672,o),
(1151,795,o),
(1151,859,qs)
);
},
{
closed = 1;
nodes = (
(1654,789,o),
(1633,768,o),
(1619,768,qs),
(1216,768,l),
(1209,703,o),
(1173,586,o),
(1113,497,o),
(1029,442,o),
(973,439,qs),
(945,437,o),
(869,438,o),
(801,459,o),
(754,508,o),
(753,555,qs),
(744,1035,l),
(654,1028,l),
(531,474,ls),
(527,456,o),
(488,425,o),
(431,404,o),
(361,392,o),
(326,392,qs),
(277,392,o),
(178,416,o),
(99,467,o),
(50,547,o),
(50,604,qs),
(50,724,o),
(121,890,o),
(240,1000,o),
(398,1063,o),
(571,1094,o),
(749,1104,o),
(830,1106,q),
(859,1108,o),
(918,1110,o),
(949,1110,qs),
(1000,1110,o),
(1098,1093,o),
(1175,1040,o),
(1221,941,o),
(1221,859,qs),
(1221,838,l),
(1619,838,ls),
(1633,838,o),
(1654,818,o),
(1654,803,qs)
);
}
);
width = 1754;
}
);
unicode = 4633;
},
{
glyphname = uni121A;
layers = (
{
layerId = "F770CFF7-FFB9-4382-B2D4-F3546B3D0D49";
shapes = (
{
closed = 1;
nodes = (
(1405,50,o),
(1405,36,qs),
(1405,21,o),
(1395,11,qs),
(1384,0,o),
(1370,0,q),
(937,1,l),
(923,1,o),
(912,11,qs),
(901,21,o),
(901,36,q),
(1072,721,l),
(1055,711,o),
(1038,705,qs),
(1013,696,o),
(986,693,qs),
(958,689,o),
(926,689,qs),
(898,689,o),
(868,693,qs),
(838,697,o),
(813,710,qs),
(788,723,o),
(772,746,qs),
(756,769,o),
(755,807,qs),
(746,1287,l),
(656,1280,l),
(533,726,ls),
(529,708,o),
(510,693,qs),
(490,678,o),
(462,667,qs),
(433,656,o),
(398,650,qs),
(363,644,o),
(328,644,qs),
(279,644,o),
(230,656,qs),
(180,668,o),
(140,693,q),
(101,719,o),
(76,759,qs),
(52,799,o),
(52,856,qs),
(52,976,o),
(88,1059,qs),
(123,1142,o),
(182,1197,qs),
(242,1252,o),
(321,1283,qs),
(400,1315,o),
(486,1331,qs),
(573,1346,o),
(662,1351,qs),
(752,1356,o),
(832,1358,q),
(861,1360,o),
(890,1361,qs),
(919,1362,o),
(951,1362,qs),
(1002,1362,o),
(1051,1354,qs),
(1100,1346,o),
(1138,1319,qs),
(1176,1293,o),
(1200,1244,qs),
(1223,1195,o),
(1223,1113,q),
(1222,1107,o),
(1221,1095,qs),
(1217,1045,o),
(1215,1020,q),
(981,72,l),
(1370,71,l),
(1377,71,o),
(1383,68,qs),
(1389,66,o),
(1395,61,q)
);
},
{
closed = 1;
nodes = (
(582,1278,l),
(480,1272,o),
(396,1245,qs),
(311,1219,o),
(250,1168,qs),
(189,1117,o),
(156,1040,qs),
(122,963,o),
(122,855,qs),
(122,824,o),
(136,799,qs),
(151,773,o),
(176,755,qs),
(202,736,o),
(238,725,q),
(275,715,o),
(318,715,qs),
(333,715,o),
(358,716,qs),
(382,717,o),
(406,723,qs),
(429,728,o),
(448,739,qs),
(466,749,o),
(470,767,qs)
);
},
{
closed = 1;
nodes = (
(1066,799,o),
(1086,827,qs),
(1107,856,o),
(1120,893,qs),
(1133,929,o),
(1140,967,qs),
(1148,1005,o),
(1150,1043,q),
(1153,1080,o),
(1153,1111,qs),
(1153,1177,o),
(1133,1213,qs),
(1113,1250,o),
(1080,1267,qs),
(1047,1284,o),
(1004,1287,qs),
(961,1290,o),
(914,1290,qs),
(889,1290,o),
(866,1291,q),
(841,1291,o),
(818,1293,q),
(824,795,l),
(824,784,o),
(833,777,qs),
(842,770,o),
(856,766,qs),
(870,762,o),
(887,761,qs),
(904,759,o),
(920,759,qs),
(937,759,o),
(951,760,qs),
(965,761,o),
(970,761,q),
(1009,763,o),
(1038,781,qs)
);
}
);
width = 1441;
}
);
unicode = 4634;
},
{
glyphname = uni121B;
layers = (
{
layerId = "F770CFF7-FFB9-4382-B2D4-F3546B3D0D49";
shapes = (
{
closed = 1;
nodes = (
(1171,1195,o),
(1171,1113,q),
(1168,1085,o),
(1164,1030,q),
(1162,1013,o),
(1161,1005,q),
(918,28,ls),
(914,14,o),
(904,7,qs),
(893,0,o),
(882,0,qs),
(867,0,o),
(856,10,qs),
(844,21,o),
(849,41,qs),
(1018,721,l),
(1003,711,o),
(986,705,qs),
(961,696,o),
(934,693,qs),
(906,689,o),
(874,689,qs),
(846,689,o),
(816,693,qs),
(786,697,o),
(761,710,qs),
(736,723,o),
(720,746,qs),
(704,769,o),
(703,807,qs),
(694,1287,l),
(604,1280,l),
(481,726,ls),
(477,708,o),
(458,693,qs),
(438,678,o),
(410,667,qs),
(381,656,o),
(346,650,qs),
(311,644,o),
(276,644,qs),
(227,644,o),
(178,656,qs),
(128,668,o),
(88,693,q),
(49,719,o),
(24,759,qs),
(0,799,o),
(0,856,qs),
(0,976,o),
(36,1059,qs),
(71,1142,o),
(130,1197,qs),
(190,1252,o),
(269,1283,qs),
(348,1315,o),
(434,1331,qs),
(521,1346,o),
(610,1351,qs),
(700,1356,o),
(780,1358,q),
(809,1360,o),
(838,1361,qs),
(867,1362,o),
(899,1362,qs),
(950,1362,o),
(999,1354,qs),
(1048,1346,o),
(1086,1319,qs),
(1124,1293,o),
(1148,1244,qs)
);
},
{
closed = 1;
nodes = (
(530,1278,l),
(428,1272,o),
(344,1245,qs),
(259,1219,o),
(198,1168,qs),
(137,1117,o),
(104,1040,qs),
(70,963,o),
(70,855,qs),
(70,824,o),
(84,799,qs),
(99,773,o),
(124,755,qs),
(150,736,o),
(186,725,q),
(223,715,o),
(266,715,qs),
(281,715,o),
(306,716,qs),
(330,717,o),
(354,723,qs),
(377,728,o),
(396,739,qs),
(414,749,o),
(418,767,qs)
);
},
{
closed = 1;
nodes = (
(1101,1080,o),
(1101,1111,qs),
(1101,1177,o),
(1081,1213,qs),
(1061,1250,o),
(1028,1267,qs),
(995,1284,o),
(952,1287,qs),
(909,1290,o),
(862,1290,qs),
(837,1290,o),
(814,1291,q),
(789,1291,o),
(766,1293,q),
(772,795,l),
(772,784,o),
(781,777,qs),
(790,770,o),
(804,766,qs),
(818,762,o),
(835,761,qs),
(852,759,o),
(868,759,qs),
(885,759,o),
(899,760,qs),
(913,761,o),
(918,761,q),
(957,763,o),
(986,781,qs),
(1014,799,o),
(1034,827,qs),
(1055,856,o),
(1068,893,qs),
(1081,929,o),
(1088,967,qs),
(1096,1005,o),
(1098,1043,q)
);
}
);
width = 1217;
}
);
unicode = 4635;
},
{
glyphname = uni121C;
layers = (
{
layerId = "F770CFF7-FFB9-4382-B2D4-F3546B3D0D49";
shapes = (
{
closed = 1;
nodes = (
(1383,267,o),
(1383,222,qs),
(1383,175,o),
(1368,134,qs),
(1353,94,o),
(1325,64,qs),
(1297,34,o),
(1258,17,qs),
(1218,0,o),
(1170,0,qs),
(882,0,ls),
(867,0,o),
(856,10,qs),
(844,21,o),
(849,41,qs),
(855,66,l),
(925,347,l),
(942,413,l),
(1018,721,l),
(1003,711,o),
(986,705,qs),
(961,696,o),
(934,693,qs),
(906,689,o),
(874,689,qs),
(846,689,o),
(816,693,qs),
(786,697,o),
(761,710,qs),
(736,723,o),
(720,746,qs),
(704,769,o),
(703,807,qs),
(694,1287,l),
(604,1280,l),
(481,726,ls),
(477,708,o),
(458,693,qs),
(438,678,o),
(410,667,qs),
(381,656,o),
(346,650,qs),
(311,644,o),
(276,644,qs),
(227,644,o),
(178,656,qs),
(128,668,o),
(88,693,q),
(49,719,o),
(24,759,qs),
(0,799,o),
(0,856,qs),
(0,976,o),
(36,1059,qs),
(71,1142,o),
(130,1197,qs),
(190,1252,o),
(269,1283,qs),
(348,1315,o),
(434,1331,qs),
(521,1346,o),
(610,1351,qs),
(700,1356,o),
(780,1358,q),
(809,1360,o),
(838,1361,qs),
(867,1362,o),
(899,1362,qs),
(950,1362,o),
(999,1354,qs),
(1048,1346,o),
(1086,1319,qs),
(1124,1293,o),
(1148,1244,qs),
(1171,1195,o),
(1171,1113,q),
(1168,1085,o),
(1164,1030,q),
(1162,1013,o),
(1161,1005,q),
(1014,413,l),
(1164,413,ls),
(1205,413,o),
(1244,400,qs),
(1284,387,o),
(1315,362,qs),
(1346,338,o),
(1364,302,q)
);
},
{
closed = 1;
nodes = (
(530,1278,l),
(428,1272,o),
(344,1245,qs),
(259,1219,o),
(198,1168,qs),
(137,1117,o),
(104,1040,qs),
(70,963,o),
(70,855,qs),
(70,824,o),
(84,799,qs),
(99,773,o),
(124,755,qs),
(150,736,o),
(186,725,q),
(223,715,o),
(266,715,qs),
(281,715,o),
(306,716,qs),
(330,717,o),
(354,723,qs),
(377,728,o),
(396,739,qs),
(414,749,o),
(418,767,qs)
);
},
{
closed = 1;
nodes = (
(1014,799,o),
(1034,827,qs),
(1055,856,o),
(1068,893,qs),
(1081,929,o),
(1088,967,qs),
(1096,1005,o),
(1098,1043,q),
(1101,1080,o),
(1101,1111,qs),
(1101,1177,o),
(1081,1213,qs),
(1061,1250,o),
(1028,1267,qs),
(995,1284,o),
(952,1287,qs),
(909,1290,o),
(862,1290,qs),
(837,1290,o),
(814,1291,q),
(789,1291,o),
(766,1293,q),
(772,795,l),
(772,784,o),
(781,777,qs),
(790,770,o),
(804,766,qs),
(818,762,o),
(835,761,qs),
(852,759,o),
(868,759,qs),
(885,759,o),
(899,760,qs),
(913,761,o),
(918,761,q),
(957,763,o),
(986,781,qs)
);
},
{
closed = 1;
nodes = (
(1317,188,o),
(1317,222,qs),
(1317,253,o),
(1303,276,q),
(1290,300,o),
(1268,315,qs),
(1246,331,o),
(1218,339,qs),
(1191,347,o),
(1164,347,qs),
(998,347,l),
(928,66,l),
(1170,66,ls),
(1203,66,o),
(1231,78,qs),
(1258,89,o),
(1277,110,qs),
(1297,131,o),
(1307,160,q)
);
}
);
width = 1416;
}
);
unicode = 4636;
},
{
glyphname = uni121D;
layers = (
{
layerId = "F770CFF7-FFB9-4382-B2D4-F3546B3D0D49";
shapes = (
{
closed = 1;
nodes = (
(1385,1186,o),
(1385,1104,qs),
(1385,1025,o),
(1370,951,qs),
(1356,877,o),
(1326,819,qs),
(1296,761,o),
(1249,724,qs),
(1202,688,o),
(1137,684,qs),
(1108,682,o),
(1071,682,q),
(1033,683,o),
(1000,693,qs),
(966,704,o),
(942,728,qs),
(918,753,o),
(917,800,qs),
(908,1280,l),
(818,1273,l),
(714,806,l),
(714,806,o),
(692,711,q),
(692,711,l),
(567,243,l),
(546,152,o),
(500,96,qs),
(493,88,o),
(485,80,qs),
(431,27,o),
(352,20,qs),
(155,3,o),
(36,0,qs),
(18,-1,o),
(9,10,qs),
(1,21,o),
(0,34,qs),
(-1,47,o),
(8,58,qs),
(17,70,o),
(34,70,q),
(180,74,o),
(286,83,qs),
(317,86,o),
(344,89,qs),
(389,93,o),
(424,122,q),
(424,122,l),
(456,147,o),
(473,183,qs),
(490,218,o),
(500,263,q),
(605,652,l),
(577,645,o),
(500,637,o),
(486,637,q),
(437,638,o),
(389,650,qs),
(341,662,o),
(302,687,qs),
(263,713,o),
(238,752,q),
(214,792,o),
(214,849,qs),
(214,969,o),
(249,1052,qs),
(285,1135,o),
(344,1190,qs),
(404,1245,o),
(483,1276,qs),
(562,1308,o),
(648,1323,qs),
(735,1339,o),
(824,1344,qs),
(916,1349,o),
(994,1351,q),
(1023,1353,o),
(1052,1354,qs),
(1079,1355,o),
(1113,1355,qs),
(1164,1355,o),
(1213,1346,qs),
(1262,1338,o),
(1300,1311,q),
(1339,1285,o),
(1362,1235,qs)
);
},
{
closed = 1;
nodes = (
(744,1271,l),
(641,1265,o),
(557,1238,qs),
(473,1212,o),
(412,1161,qs),
(352,1110,o),
(318,1033,qs),
(284,956,o),
(284,848,qs),
(284,817,o),
(298,791,q),
(313,766,o),
(338,747,q),
(364,729,o),
(400,718,q),
(437,708,o),
(480,708,qs),
(495,708,o),
(519,709,qs),
(544,710,o),
(567,715,qs),
(591,721,o),
(609,731,qs),
(622,739,o),
(628,750,qs),
(631,755,o),
(632,760,qs),
(648,835,l)
);
},
{
closed = 1;
nodes = (
(1315,1040,o),
(1315,1104,qs),
(1315,1170,o),
(1295,1206,qs),
(1275,1243,o),
(1242,1260,qs),
(1209,1277,o),
(1166,1280,qs),
(1123,1283,o),
(1077,1283,qs),
(1055,1283,o),
(1028,1283,q),
(1004,1284,o),
(981,1286,q),
(986,788,l),
(986,777,o),
(995,770,qs),
(1004,763,o),
(1019,759,qs),
(1033,755,o),
(1050,753,qs),
(1066,752,o),
(1083,752,qs),
(1100,752,o),
(1114,753,qs),
(1127,754,o),
(1133,754,q),
(1185,757,o),
(1220,788,qs),
(1255,819,o),
(1276,868,qs),
(1297,917,o),
(1306,978,qs)
);
}
);
width = 1423;
}
);
unicode = 4637;
},
{
glyphname = uni121E;
layers = (
{
layerId = "F770CFF7-FFB9-4382-B2D4-F3546B3D0D49";
shapes = (
{
closed = 1;
nodes = (
(580,1279,l),
(544,1276,l),
(451,1271,o),
(316,1222,o),
(222,1151,o),
(164,1063,o),
(131,973,o),
(120,889,o),
(120,856,qs),
(120,825,o),
(149,774,o),
(200,737,o),
(273,716,o),
(316,716,qs),
(331,716,o),
(380,718,o),
(427,729,o),
(464,750,o),
(468,768,qs)
);
},
{
closed = 1;
nodes = (
(1151,1178,o),
(1111,1251,o),
(1045,1285,o),
(959,1291,o),
(912,1291,qs),
(888,1291,o),
(839,1292,o),
(816,1294,q),
(822,796,l),
(822,785,o),
(840,771,o),
(868,763,o),
(902,760,o),
(918,760,qs),
(935,760,o),
(963,762,o),
(968,762,q),
(1021,765,o),
(1091,827,o),
(1133,925,o),
(1151,1048,o),
(1151,1112,qs)
);
},
{
closed = 1;
nodes = (
(1221,1033,o),
(1192,885,o),
(1132,769,o),
(1038,696,o),
(973,692,qs),
(945,690,o),
(869,691,o),
(801,712,o),
(754,761,o),
(753,808,qs),
(744,1288,l),
(654,1281,l),
(392,28,ls),
(389,14,o),
(366,-3,o),
(351,0,qs),
(337,3,o),
(321,27,o),
(323,41,q),
(450,664,l),
(424,656,o),
(361,645,o),
(329,645,qs),
(280,645,o),
(180,668,o),
(100,719,o),
(50,800,o),
(50,857,qs),
(50,937,o),
(103,1106,o),
(218,1246,o),
(403,1340,o),
(535,1346,qs),
(830,1359,l),
(859,1361,o),
(918,1363,o),
(949,1363,qs),
(1000,1363,o),
(1098,1346,o),
(1175,1293,o),
(1221,1194,o),
(1221,1112,qs)
);
}
);
width = 1321;
}
);
unicode = 4638;
},
{
glyphname = uni121F;
layers = (
{
layerId = "F770CFF7-FFB9-4382-B2D4-F3546B3D0D49";
shapes = (
{
closed = 1;
nodes = (
(1352,50,o),
(1352,36,q),
(1352,35,l),
(1352,21,o),
(1341,10,qs),
(1331,0,o),
(1317,0,q),
(516,1,l),
(502,1,o),
(491,12,qs),
(481,22,o),
(481,36,q),
(481,37,l),
(481,51,o),
(491,61,qs),
(502,71,o),
(516,71,qs),
(857,71,l),
(1018,721,l),
(1003,711,o),
(986,705,qs),
(961,696,o),
(934,693,qs),
(906,689,o),
(874,689,qs),
(846,689,o),
(816,693,qs),
(786,697,o),
(761,710,qs),
(736,723,o),
(720,746,qs),
(704,769,o),
(703,807,qs),
(694,1287,l),
(604,1280,l),
(481,726,ls),
(477,708,o),
(458,693,qs),
(438,678,o),
(410,667,qs),
(381,656,o),
(346,650,qs),
(311,644,o),
(276,644,qs),
(227,644,o),
(178,656,qs),
(128,668,o),
(88,693,q),
(49,719,o),
(24,759,qs),
(0,799,o),
(0,856,qs),
(0,976,o),
(36,1059,qs),
(71,1142,o),
(130,1197,qs),
(190,1252,o),
(269,1283,qs),
(348,1315,o),
(434,1331,qs),
(521,1346,o),
(610,1351,qs),
(700,1356,o),
(780,1358,q),
(809,1360,o),
(838,1361,qs),
(867,1362,o),
(899,1362,qs),
(950,1362,o),
(999,1354,qs),
(1048,1346,o),
(1086,1319,qs),
(1124,1293,o),
(1148,1244,qs),
(1171,1195,o),
(1171,1113,q),
(1168,1085,o),
(1164,1030,q),
(1162,1013,o),
(1161,1005,q),
(929,70,l),
(1317,70,ls),
(1331,70,o),
(1341,60,qs)
);
},
{
closed = 1;
nodes = (
(530,1278,l),
(428,1272,o),
(344,1245,qs),
(259,1219,o),
(198,1168,qs),
(137,1117,o),
(104,1040,qs),
(70,963,o),
(70,855,qs),
(70,824,o),
(84,799,qs),
(99,773,o),
(124,755,qs),
(150,736,o),
(186,725,q),
(223,715,o),
(266,715,qs),
(281,715,o),
(306,716,qs),
(330,717,o),
(354,723,qs),
(377,728,o),
(396,739,qs),
(414,749,o),
(418,767,qs)
);
},
{
closed = 1;
nodes = (
(1014,799,o),
(1034,827,qs),
(1055,856,o),
(1068,893,qs),
(1081,929,o),
(1088,967,qs),
(1096,1005,o),
(1098,1043,q),
(1101,1080,o),
(1101,1111,qs),
(1101,1177,o),
(1081,1213,qs),
(1061,1250,o),
(1028,1267,qs),
(995,1284,o),
(952,1287,qs),
(909,1290,o),
(862,1290,qs),
(837,1290,o),
(814,1291,q),
(789,1291,o),
(766,1293,q),
(772,795,l),
(772,784,o),
(781,777,qs),
(790,770,o),
(804,766,qs),
(818,762,o),
(835,761,qs),
(852,759,o),
(868,759,qs),
(885,759,o),
(899,760,qs),
(913,761,o),
(918,761,q),
(957,763,o),
(986,781,qs)
);
}
);
width = 1378;
}
);
unicode = 4639;
},
{
glyphname = uni1220;
layers = (
{
layerId = "F770CFF7-FFB9-4382-B2D4-F3546B3D0D49";
shapes = (
{
closed = 1;
nodes = (
(1269,1050,o),
(1242,866,o),
(1193,773,qs),
(1170,730,o),
(1105,677,o),
(1027,646,o),
(938,632,o),
(892,628,qs),
(852,625,o),
(790,643,o),
(743,681,o),
(710,734,o),
(699,765,q),
(687,720,o),
(655,628,o),
(634,583,qs),
(613,537,o),
(530,465,o),
(426,415,o),
(310,390,o),
(256,390,qs),
(209,390,o),
(128,410,o),
(71,450,o),
(45,513,o),
(54,555,qs),
(160,1058,ls),
(163,1072,o),
(183,1086,o),
(194,1086,qs),
(209,1086,o),
(234,1064,o),
(229,1044,q),
(122,539,ls),
(114,499,o),
(190,460,o),
(251,460,qs),
(295,460,o),
(393,480,o),
(483,519,o),
(554,575,o),
(571,612,qs),
(585,644,o),
(616,749,o),
(643,882,o),
(664,1033,o),
(667,1109,qs),
(668,1126,o),
(690,1144,o),
(703,1144,qs),
(716,1144,o),
(737,1126,o),
(737,1109,qs),
(737,1082,o),
(732,1000,o),
(733,908,o),
(744,816,o),
(774,743,o),
(828,697,o),
(873,697,qs),
(877,697,o),
(883,698,o),
(887,698,q),
(922,701,o),
(994,711,o),
(1060,734,o),
(1114,774,o),
(1130,807,qs),
(1154,854,o),
(1181,941,o),
(1193,1024,o),
(1192,1105,o),
(1187,1145,qs),
(1185,1164,o),
(1207,1184,o),
(1221,1184,qs),
(1233,1184,o),
(1254,1169,o),
(1256,1153,qs)
);
}
);
width = 1287;
}
);
unicode = 4640;
},
{
glyphname = uni1221;
layers = (
{
layerId = "F770CFF7-FFB9-4382-B2D4-F3546B3D0D49";
shapes = (
{
closed = 1;
nodes = (
(1621,890,l),
(1621,875,o),
(1600,855,o),
(1586,855,q),
(1203,854,l),
(1197,834,o),
(1179,795,o),
(1168,773,qs),
(1145,730,o),
(1080,677,o),
(1002,646,o),
(913,632,o),
(867,628,qs),
(827,625,o),
(765,643,o),
(718,681,o),
(685,734,o),
(674,765,q),
(662,720,o),
(630,628,o),
(609,583,qs),
(588,537,o),
(505,465,o),
(401,415,o),
(285,390,o),
(231,390,qs),
(184,390,o),
(103,410,o),
(46,450,o),
(20,513,o),
(29,555,qs),
(135,1058,ls),
(138,1072,o),
(158,1086,o),
(169,1086,qs),
(184,1086,o),
(209,1064,o),
(204,1044,q),
(97,539,ls),
(89,499,o),
(165,460,o),
(226,460,qs),
(270,460,o),
(368,480,o),
(458,519,o),
(529,575,o),
(546,612,qs),
(560,644,o),
(592,755,o),
(620,892,o),
(640,1040,o),
(642,1109,qs),
(643,1126,o),
(664,1144,o),
(678,1144,qs),
(691,1144,o),
(712,1126,o),
(712,1109,qs),
(712,1082,o),
(707,1000,o),
(708,908,o),
(719,816,o),
(749,743,o),
(803,697,o),
(848,697,qs),
(852,697,o),
(858,698,o),
(862,698,q),
(897,701,o),
(969,711,o),
(1035,734,o),
(1089,774,o),
(1105,807,qs),
(1129,854,o),
(1156,941,o),
(1168,1024,o),
(1167,1105,o),
(1162,1145,qs),
(1160,1164,o),
(1182,1184,o),
(1196,1184,qs),
(1208,1184,o),
(1229,1169,o),
(1231,1153,qs),
(1234,1125,o),
(1234,1063,o),
(1230,1002,o),
(1223,947,o),
(1220,925,q),
(1586,925,ls),
(1600,925,o),
(1621,905,o),
(1621,891,q)
);
}
);
width = 1655;
}
);
unicode = 4641;
},
{
glyphname = uni1222;
layers = (
{
layerId = "F770CFF7-FFB9-4382-B2D4-F3546B3D0D49";
shapes = (
{
closed = 1;
nodes = (
(1238,19,o),
(1217,-2,o),
(1203,-2,q),
(770,-1,l),
(756,-1,o),
(734,19,o),
(734,34,q),
(913,760,l),
(879,755,o),
(844,751,qs),
(814,747,o),
(743,740,o),
(710,738,qs),
(629,734,o),
(541,805,o),
(518,867,q),
(506,822,o),
(478,738,o),
(458,693,qs),
(441,656,o),
(390,602,o),
(329,566,o),
(260,549,o),
(226,549,qs),
(181,549,o),
(98,578,o),
(39,634,o),
(13,716,o),
(24,768,qs),
(115,1186,ls),
(118,1200,o),
(137,1213,o),
(148,1213,qs),
(164,1213,o),
(188,1191,o),
(183,1171,q),
(92,752,ls),
(86,724,o),
(106,676,o),
(148,642,o),
(206,623,o),
(237,623,qs),
(283,623,o),
(370,669,o),
(394,722,qs),
(408,754,o),
(441,861,o),
(469,995,o),
(489,1145,o),
(490,1219,q),
(490,1236,o),
(512,1254,o),
(525,1254,qs),
(539,1254,o),
(560,1236,o),
(560,1219,qs),
(560,1191,o),
(555,1107,o),
(556,1016,o),
(567,925,o),
(599,853,o),
(656,808,o),
(703,808,qs),
(729,808,o),
(788,812,o),
(848,819,o),
(907,829,o),
(932,836,q),
(1039,1263,ls),
(1043,1277,o),
(1067,1292,o),
(1081,1289,qs),
(1091,1287,o),
(1109,1272,o),
(1107,1263,qs),
(814,70,l),
(1203,69,l),
(1217,69,o),
(1238,48,o),
(1238,34,qs)
);
}
);
width = 1300;
}
);
unicode = 4642;
},
{
glyphname = uni1223;
layers = (
{
layerId = "F770CFF7-FFB9-4382-B2D4-F3546B3D0D49";
shapes = (
{
closed = 1;
nodes = (
(1060,1263,ls),
(1064,1277,o),
(1088,1292,o),
(1102,1289,qs),
(1112,1287,o),
(1130,1272,o),
(1128,1263,qs),
(818,27,ls),
(815,13,o),
(790,-2,o),
(776,1,qs),
(766,3,o),
(748,18,o),
(750,27,qs),
(932,760,l),
(898,755,o),
(863,751,qs),
(833,747,o),
(762,740,o),
(729,738,qs),
(648,734,o),
(560,805,o),
(537,867,q),
(525,822,o),
(497,738,o),
(477,693,qs),
(460,656,o),
(409,602,o),
(348,566,o),
(279,549,o),
(245,549,qs),
(200,549,o),
(117,578,o),
(58,634,o),
(32,716,o),
(43,768,qs),
(134,1186,ls),
(137,1200,o),
(156,1213,o),
(167,1213,qs),
(183,1213,o),
(207,1191,o),
(202,1171,q),
(111,752,ls),
(105,724,o),
(125,676,o),
(167,642,o),
(225,623,o),
(256,623,qs),
(302,623,o),
(389,669,o),
(413,722,qs),
(427,754,o),
(460,861,o),
(488,995,o),
(508,1145,o),
(509,1219,q),
(509,1236,o),
(531,1254,o),
(544,1254,qs),
(558,1254,o),
(579,1236,o),
(579,1219,qs),
(579,1191,o),
(574,1107,o),
(575,1016,o),
(586,925,o),
(618,853,o),
(675,808,o),
(722,808,qs),
(748,808,o),
(807,812,o),
(867,819,o),
(926,829,o),
(951,836,q)
);
}
);
width = 1153;
}
);
unicode = 4643;
},
{
glyphname = uni1224;
layers = (
{
layerId = "F770CFF7-FFB9-4382-B2D4-F3546B3D0D49";
shapes = (
{
closed = 1;
nodes = (
(1214,239,o),
(1214,191,qs),
(1214,147,o),
(1195,111,qs),
(1176,76,o),
(1145,51,qs),
(1114,26,o),
(1075,13,qs),
(1035,0,o),
(994,0,qs),
(763,0,ls),
(754,0,o),
(744,1,q),
(744,1,l),
(743,1,o),
(740,1,q),
(740,1,o),
(740,1,q),
(740,1,o),
(739,2,q),
(738,2,o),
(738,2,q),
(728,4,o),
(719,11,qs),
(710,19,o),
(712,28,qs),
(723,73,l),
(792,348,l),
(808,413,l),
(894,761,l),
(860,756,o),
(825,752,qs),
(796,748,o),
(760,744,qs),
(724,741,o),
(691,739,qs),
(610,735,o),
(566,770,qs),
(522,806,o),
(499,868,q),
(487,823,o),
(473,781,qs),
(459,739,o),
(439,694,qs),
(422,657,o),
(397,630,qs),
(371,603,o),
(341,585,qs),
(310,567,o),
(276,558,q),
(241,550,o),
(207,550,qs),
(162,550,o),
(121,564,qs),
(79,579,o),
(50,607,qs),
(20,635,o),
(7,676,qs),
(-6,717,o),
(5,769,qs),
(96,1187,ls),
(99,1201,o),
(109,1207,q),
(118,1214,o),
(129,1214,qs),
(145,1214,o),
(157,1203,qs),
(169,1192,o),
(164,1172,q),
(73,753,ls),
(67,725,o),
(77,701,qs),
(87,677,o),
(108,660,qs),
(129,643,o),
(158,633,qs),
(187,624,o),
(218,624,qs),
(264,624,o),
(308,647,qs),
(351,670,o),
(375,723,qs),
(389,755,o),
(406,808,qs),
(422,862,o),
(436,929,qs),
(450,996,o),
(460,1071,qs),
(470,1145,o),
(471,1220,q),
(471,1237,o),
(482,1246,qs),
(493,1255,o),
(506,1255,qs),
(520,1255,o),
(531,1246,qs),
(541,1237,o),
(541,1220,qs),
(541,1192,o),
(539,1150,qs),
(536,1108,o),
(537,1062,q),
(537,1017,o),
(543,971,qs),
(548,926,o),
(564,890,qs),
(580,854,o),
(609,831,qs),
(637,809,o),
(684,809,qs),
(710,809,o),
(740,811,qs),
(769,813,o),
(799,816,qs),
(829,820,o),
(859,825,qs),
(888,830,o),
(913,837,q),
(1022,1264,ls),
(1026,1278,o),
(1038,1285,qs),
(1050,1293,o),
(1064,1290,qs),
(1074,1288,o),
(1083,1280,qs),
(1092,1273,o),
(1090,1264,qs),
(877,413,l),
(1001,413,ls),
(1049,413,o),
(1088,396,qs),
(1128,379,o),
(1156,349,qs),
(1184,319,o),
(1199,279,q)
);
},
{
closed = 1;
nodes = (
(1148,161,o),
(1148,191,qs),
(1148,225,o),
(1137,254,qs),
(1127,282,o),
(1108,303,qs),
(1089,324,o),
(1061,336,qs),
(1034,348,o),
(1001,348,qs),
(860,348,l),
(790,66,l),
(994,66,ls),
(1021,66,o),
(1049,74,qs),
(1076,82,o),
(1098,98,qs),
(1120,114,o),
(1134,137,q)
);
}
);
width = 1239;
}
);
unicode = 4644;
},
{
glyphname = uni1225;
layers = (
{
layerId = "F770CFF7-FFB9-4382-B2D4-F3546B3D0D49";
shapes = (
{
closed = 1;
nodes = (
(1313,1160,o),
(1287,975,o),
(1238,883,qs),
(1215,840,o),
(1150,786,o),
(1072,755,o),
(983,741,o),
(937,738,q),
(932,738,o),
(924,737,o),
(919,737,qs),
(848,737,o),
(767,809,o),
(745,867,q),
(733,822,o),
(705,738,o),
(685,693,qs),
(668,656,o),
(617,602,o),
(556,566,o),
(487,549,o),
(453,549,qs),
(398,549,o),
(301,591,o),
(273,633,q),
(118,31,l),
(115,17,o),
(90,2,o),
(76,5,qs),
(66,7,o),
(48,22,o),
(50,31,qs),
(342,1186,ls),
(346,1200,o),
(365,1213,o),
(376,1213,qs),
(385,1213,o),
(410,1200,o),
(410,1189,q),
(413,1181,o),
(410,1171,q),
(319,752,ls),
(313,724,o),
(333,676,o),
(375,642,o),
(433,623,o),
(464,623,qs),
(510,623,o),
(597,669,o),
(621,722,qs),
(635,754,o),
(668,861,o),
(697,995,o),
(716,1145,o),
(717,1219,q),
(718,1236,o),
(739,1254,o),
(753,1254,qs),
(766,1254,o),
(787,1236,o),
(787,1219,qs),
(787,1191,o),
(782,1108,o),
(781,1017,o),
(791,926,o),
(821,853,o),
(876,808,o),
(922,808,qs),
(956,808,o),
(1031,817,o),
(1100,841,o),
(1158,883,o),
(1175,916,qs),
(1199,963,o),
(1226,1051,o),
(1237,1134,o),
(1236,1214,o),
(1231,1254,qs),
(1229,1274,o),
(1253,1294,o),
(1267,1294,qs),
(1279,1294,o),
(1299,1279,o),
(1301,1263,qs)
);
}
);
width = 1407;
}
);
unicode = 4645;
},
{
glyphname = uni1226;
layers = (
{
layerId = "F770CFF7-FFB9-4382-B2D4-F3546B3D0D49";
shapes = (
{
closed = 1;
nodes = (
(1117,1160,o),
(1090,975,o),
(1042,883,qs),
(1019,840,o),
(954,786,o),
(876,755,o),
(787,741,o),
(741,738,q),
(736,738,o),
(728,737,o),
(723,737,qs),
(651,737,o),
(570,809,o),
(549,867,q),
(525,768,o),
(489,621,o),
(459,500,o),
(431,392,o),
(400,271,o),
(363,125,o),
(338,26,qs),
(335,12,o),
(316,0,o),
(305,0,qs),
(290,0,o),
(265,24,o),
(270,44,qs),
(296,147,o),
(334,297,o),
(366,421,o),
(396,533,o),
(412,598,q),
(377,573,o),
(298,549,o),
(257,549,qs),
(212,549,o),
(129,578,o),
(70,634,o),
(44,716,o),
(55,768,qs),
(146,1186,ls),
(149,1200,o),
(168,1213,o),
(179,1213,qs),
(195,1213,o),
(219,1191,o),
(214,1171,q),
(123,752,ls),
(117,724,o),
(137,676,o),
(179,642,o),
(237,623,o),
(268,623,qs),
(314,623,o),
(401,669,o),
(425,722,qs),
(439,754,o),
(472,861,o),
(500,995,o),
(520,1145,o),
(521,1219,q),
(521,1236,o),
(543,1254,o),
(556,1254,qs),
(570,1254,o),
(591,1236,o),
(591,1219,qs),
(591,1191,o),
(586,1108,o),
(585,1017,o),
(595,926,o),
(625,853,o),
(680,808,o),
(726,808,qs),
(760,808,o),
(835,817,o),
(904,841,o),
(962,883,o),
(979,916,qs),
(1003,963,o),
(1030,1051,o),
(1041,1134,o),
(1040,1214,o),
(1035,1254,qs),
(1033,1274,o),
(1057,1294,o),
(1071,1294,qs),
(1083,1294,o),
(1103,1279,o),
(1105,1263,qs)
);
}
);
width = 1211;
}
);
unicode = 4646;
},
{
glyphname = uni1227;
layers = (
{
layerId = "F770CFF7-FFB9-4382-B2D4-F3546B3D0D49";
shapes = (
{
closed = 1;
nodes = (
(1199,36,l),
(1199,50,o),
(1189,60,qs),
(1178,70,o),
(1164,70,qs),
(774,70,l),
(1090,1331,ls),
(1092,1340,o),
(1083,1348,qs),
(1074,1355,o),
(1064,1357,qs),
(1050,1360,o),
(1038,1353,qs),
(1026,1345,o),
(1022,1331,qs),
(913,904,l),
(888,897,o),
(859,892,qs),
(829,887,o),
(799,884,qs),
(769,880,o),
(740,878,qs),
(710,876,o),
(684,876,qs),
(637,876,o),
(609,899,q),
(580,921,o),
(564,957,qs),
(548,993,o),
(543,1039,qs),
(537,1084,o),
(537,1130,q),
(536,1175,o),
(539,1217,qs),
(541,1259,o),
(541,1287,qs),
(541,1304,o),
(531,1313,qs),
(520,1322,o),
(506,1322,qs),
(493,1322,o),
(482,1313,qs),
(471,1304,o),
(471,1287,q),
(470,1213,o),
(460,1138,qs),
(450,1063,o),
(436,996,qs),
(422,930,o),
(406,876,qs),
(389,822,o),
(375,790,qs),
(351,737,o),
(308,714,qs),
(264,691,o),
(218,691,qs),
(187,691,o),
(158,701,qs),
(129,710,o),
(108,727,qs),
(87,744,o),
(77,768,qs),
(67,792,o),
(73,820,qs),
(164,1239,l),
(169,1259,o),
(157,1270,qs),
(145,1281,o),
(129,1281,qs),
(118,1281,o),
(109,1275,qs),
(99,1268,o),
(96,1254,qs),
(5,836,ls),
(-6,784,o),
(7,743,qs),
(20,702,o),
(50,674,qs),
(79,646,o),
(121,632,q),
(162,617,o),
(207,617,qs),
(241,617,o),
(276,626,qs),
(310,634,o),
(341,652,qs),
(371,670,o),
(397,697,qs),
(422,724,o),
(439,761,qs),
(459,806,o),
(473,848,qs),
(487,890,o),
(499,935,q),
(522,873,o),
(566,838,qs),
(610,802,o),
(691,806,qs),
(724,808,o),
(760,812,qs),
(796,815,o),
(825,819,qs),
(860,823,o),
(894,828,q),
(706,71,l),
(363,71,ls),
(349,71,o),
(339,61,qs),
(328,51,o),
(328,37,q),
(328,36,l),
(328,22,o),
(339,12,q),
(349,1,o),
(363,1,q),
(1164,0,l),
(1178,0,o),
(1189,10,q),
(1199,21,o),
(1199,35,q)
);
}
);
width = 1238;
}
);
unicode = 4647;
},
{
glyphname = uni1228;
layers = (
{
layerId = "F770CFF7-FFB9-4382-B2D4-F3546B3D0D49";
shapes = (
{
closed = 1;
nodes = (
(341,0,ls),
(266,0,o),
(142,39,o),
(56,116,o),
(11,230,o),
(14,304,qs),
(16,360,o),
(71,474,o),
(156,588,o),
(264,703,o),
(376,815,o),
(482,926,o),
(565,1032,o),
(616,1135,o),
(616,1183,qs),
(616,1201,o),
(638,1218,o),
(651,1218,qs),
(665,1218,o),
(686,1201,o),
(686,1183,qs),
(686,1127,o),
(635,1013,o),
(552,899,o),
(446,785,o),
(334,672,o),
(226,562,o),
(141,454,o),
(86,351,o),
(84,302,qs),
(79,187,o),
(213,70,o),
(341,70,qs),
(794,70,ls),
(812,70,o),
(829,48,o),
(829,22,o),
(812,0,o),
(794,0,qs)
);
}
);
width = 852;
}
);
unicode = 4648;
},
{
glyphname = uni1229;
layers = (
{
layerId = "F770CFF7-FFB9-4382-B2D4-F3546B3D0D49";
shapes = (
{
closed = 1;
nodes = (
(798,376,o),
(790,386,qs),
(781,397,o),
(764,397,qs),
(268,397,ls),
(168,397,o),
(116,443,qs),
(64,488,o),
(68,577,qs),
(70,614,o),
(91,654,qs),
(113,695,o),
(146,738,qs),
(180,781,o),
(223,824,qs),
(266,868,o),
(311,913,qs),
(357,960,o),
(398,1004,qs),
(441,1050,o),
(474,1096,qs),
(508,1142,o),
(528,1188,qs),
(549,1235,o),
(549,1281,qs),
(549,1298,o),
(539,1307,q),
(528,1315,o),
(515,1315,qs),
(503,1315,o),
(492,1307,qs),
(481,1298,o),
(481,1281,qs),
(481,1244,o),
(461,1204,qs),
(442,1164,o),
(409,1121,qs),
(376,1079,o),
(334,1035,qs),
(289,989,o),
(247,946,qs),
(202,902,o),
(158,855,qs),
(115,809,o),
(81,763,qs),
(47,718,o),
(24,671,qs),
(2,625,o),
(0,579,qs),
(-2,518,o),
(16,472,qs),
(35,425,o),
(70,393,qs),
(106,361,o),
(156,345,qs),
(206,330,o),
(268,330,qs),
(363,330,l),
(363,35,ls),
(363,21,o),
(373,11,qs),
(383,0,o),
(397,0,q),
(398,0,l),
(413,0,o),
(423,11,qs),
(433,21,o),
(433,35,q),
(434,330,l),
(764,330,ls),
(781,330,o),
(790,341,qs),
(798,351,o),
(798,364,q)
);
}
);
width = 814;
}
);
unicode = 4649;
},
{
glyphname = uni122A;
layers = (
{
layerId = "F770CFF7-FFB9-4382-B2D4-F3546B3D0D49";
shapes = (
{
closed = 1;
nodes = (
(722,1127,o),
(671,1013,o),
(588,899,o),
(482,785,o),
(370,672,o),
(262,562,o),
(177,454,o),
(122,351,o),
(120,302,qs),
(118,253,o),
(142,165,o),
(192,99,o),
(265,60,o),
(311,60,qs),
(344,60,o),
(420,82,o),
(494,121,o),
(562,174,o),
(614,235,o),
(645,304,o),
(645,338,qs),
(645,354,o),
(638,381,o),
(634,390,qs),
(628,403,o),
(640,430,o),
(653,435,q),
(656,437,o),
(663,437,o),
(666,437,qs),
(677,437,o),
(695,426,o),
(699,416,qs),
(707,399,o),
(715,359,o),
(715,338,qs),
(715,294,o),
(678,197,o),
(596,105,o),
(467,26,o),
(377,0,q),
(340,-9,o),
(305,-9,qs),
(247,-9,o),
(150,40,o),
(83,125,o),
(47,239,o),
(50,304,qs),
(52,360,o),
(107,474,o),
(192,588,o),
(300,703,o),
(412,815,o),
(518,926,o),
(601,1032,o),
(652,1135,o),
(652,1183,qs),
(652,1201,o),
(674,1218,o),
(687,1218,qs),
(701,1218,o),
(722,1201,o),
(722,1183,qs)
);
}
);
width = 752;
}
);
unicode = 4650;
},
{
glyphname = uni122B;
layers = (
{
layerId = "F770CFF7-FFB9-4382-B2D4-F3546B3D0D49";
shapes = (
{
closed = 1;
nodes = (
(1004,410,l),
(1004,424,o),
(994,434,qs),
(983,444,o),
(969,444,qs),
(614,444,ls),
(595,444,o),
(585,426,q),
(585,426,o),
(584,426,q),
(584,426,o),
(584,425,q),
(578,412,o),
(584,399,qs),
(588,390,o),
(592,377,q),
(595,363,o),
(595,347,qs),
(595,313,o),
(580,279,qs),
(564,244,o),
(538,213,qs),
(512,183,o),
(478,157,qs),
(444,130,o),
(407,111,qs),
(370,91,o),
(332,80,qs),
(294,69,o),
(261,69,qs),
(215,69,o),
(179,89,qs),
(143,108,o),
(117,141,qs),
(92,174,o),
(80,218,qs),
(68,262,o),
(70,311,qs),
(72,360,o),
(100,411,qs),
(127,463,o),
(170,517,qs),
(212,571,o),
(266,626,qs),
(318,679,o),
(376,737,qs),
(433,795,o),
(485,851,qs),
(539,908,o),
(580,965,qs),
(622,1022,o),
(647,1079,qs),
(672,1136,o),
(672,1192,qs),
(672,1210,o),
(662,1219,q),
(651,1227,o),
(637,1227,qs),
(624,1227,o),
(613,1219,qs),
(602,1210,o),
(602,1192,qs),
(602,1144,o),
(577,1093,qs),
(552,1041,o),
(510,988,qs),
(469,935,o),
(415,879,qs),
(362,824,o),
(306,768,qs),
(250,712,o),
(196,655,qs),
(142,597,o),
(100,540,qs),
(57,483,o),
(30,426,qs),
(2,369,o),
(0,313,qs),
(-3,248,o),
(15,191,qs),
(33,134,o),
(67,91,qs),
(100,49,o),
(149,25,qs),
(197,0,o),
(255,0,qs),
(290,0,o),
(327,9,q),
(417,35,o),
(482,75,qs),
(547,114,o),
(587,160,qs),
(628,206,o),
(647,255,qs),
(665,303,o),
(665,347,qs),
(665,361,o),
(664,374,q),
(969,374,ls),
(983,374,o),
(994,384,q),
(1004,395,o),
(1004,409,q)
);
}
);
width = 1016;
}
);
unicode = 4651;
},
{
glyphname = uni122C;
layers = (
{
layerId = "F770CFF7-FFB9-4382-B2D4-F3546B3D0D49";
shapes = (
{
closed = 1;
nodes = (
(882,267,o),
(882,222,qs),
(882,175,o),
(867,134,qs),
(852,94,o),
(824,64,qs),
(818,57,o),
(811,52,q),
(787,30,o),
(756,17,qs),
(717,0,o),
(668,0,qs),
(327,0,ls),
(252,0,o),
(190,20,qs),
(128,39,o),
(85,78,qs),
(42,116,o),
(20,173,qs),
(-3,230,o),
(0,304,qs),
(2,360,o),
(30,417,qs),
(57,474,o),
(100,531,qs),
(142,588,o),
(196,646,qs),
(250,703,o),
(306,759,qs),
(362,815,o),
(415,870,qs),
(469,926,o),
(510,979,qs),
(551,1032,o),
(577,1084,qs),
(602,1135,o),
(602,1183,qs),
(602,1201,o),
(613,1210,qs),
(624,1218,o),
(637,1218,qs),
(651,1218,o),
(662,1210,q),
(672,1201,o),
(672,1183,qs),
(672,1127,o),
(647,1070,qs),
(621,1013,o),
(580,956,qs),
(538,899,o),
(485,842,qs),
(433,786,o),
(376,728,qs),
(318,670,o),
(266,617,qs),
(212,562,o),
(170,508,qs),
(127,454,o),
(100,402,qs),
(72,351,o),
(70,302,qs),
(65,187,o),
(132,128,qs),
(199,70,o),
(327,70,qs),
(393,70,l),
(393,229,ls),
(393,279,o),
(442,364,o),
(527,413,o),
(577,413,qs),
(662,413,ls),
(703,413,o),
(743,400,qs),
(782,387,o),
(813,362,qs),
(844,338,o),
(863,302,q)
);
},
{
closed = 1;
nodes = (
(816,188,o),
(816,222,qs),
(816,253,o),
(802,276,qs),
(788,300,o),
(766,315,qs),
(744,331,o),
(717,339,qs),
(709,341,o),
(703,343,q),
(673,349,o),
(639,349,qs),
(583,349,ls),
(573,349,o),
(566,348,qs),
(524,342,o),
(459,274,o),
(459,230,qs),
(459,66,l),
(668,66,ls),
(689,66,o),
(707,70,qs),
(718,73,o),
(729,78,qs),
(756,89,o),
(776,110,qs),
(795,131,o),
(805,160,q)
);
}
);
width = 918;
}
);
unicode = 4652;
},
{
glyphname = uni122D;
layers = (
{
layerId = "F770CFF7-FFB9-4382-B2D4-F3546B3D0D49";
shapes = (
{
closed = 1;
nodes = (
(839,48,o),
(831,59,qs),
(822,70,o),
(804,70,qs),
(351,70,ls),
(223,70,o),
(156,128,qs),
(89,187,o),
(94,302,q),
(97,349,o),
(103,410,qs),
(109,470,o),
(117,540,qs),
(125,607,o),
(135,680,q),
(135,682,o),
(136,688,qs),
(148,776,o),
(153,818,q),
(168,916,o),
(183,1014,q),
(198,1059,o),
(233,1090,qs),
(300,1148,o),
(428,1148,qs),
(728,1148,ls),
(746,1148,o),
(755,1159,qs),
(763,1170,o),
(763,1183,qs),
(763,1196,o),
(755,1207,qs),
(746,1218,o),
(728,1218,qs),
(428,1218,ls),
(352,1218,o),
(291,1198,qs),
(229,1179,o),
(186,1140,qs),
(143,1102,o),
(120,1045,qs),
(112,1024,o),
(107,1000,q),
(96,929,o),
(85,856,qs),
(76,789,o),
(66,714,qs),
(56,640,o),
(48,568,qs),
(39,495,o),
(33,428,qs),
(27,360,o),
(24,304,qs),
(21,230,o),
(44,173,qs),
(66,116,o),
(109,78,qs),
(152,39,o),
(214,20,qs),
(276,0,o),
(351,0,qs),
(804,0,ls),
(822,0,o),
(831,11,qs),
(839,22,o),
(839,35,qs)
);
}
);
width = 889;
}
);
unicode = 4653;
},
{
glyphname = uni122E;
layers = (
{
layerId = "F770CFF7-FFB9-4382-B2D4-F3546B3D0D49";
shapes = (
{
closed = 1;
nodes = (
(533,805,l),
(483,805,o),
(398,854,o),
(348,939,o),
(348,989,qs),
(348,1145,l),
(260,1135,o),
(209,1090,qs),
(174,1059,o),
(159,1014,q),
(144,916,o),
(129,818,q),
(124,776,o),
(112,688,qs),
(111,682,o),
(111,680,q),
(101,607,o),
(93,540,qs),
(85,470,o),
(79,410,qs),
(73,349,o),
(70,302,q),
(65,187,o),
(132,128,qs),
(199,70,o),
(327,70,qs),
(780,70,ls),
(798,70,o),
(807,59,qs),
(815,48,o),
(815,35,qs),
(815,22,o),
(807,11,qs),
(798,0,o),
(780,0,qs),
(327,0,ls),
(252,0,o),
(190,20,qs),
(128,39,o),
(85,78,qs),
(42,116,o),
(20,173,qs),
(-3,230,o),
(0,304,qs),
(3,360,o),
(9,428,qs),
(15,495,o),
(24,568,qs),
(32,640,o),
(42,714,qs),
(52,789,o),
(61,856,qs),
(72,929,o),
(83,1000,q),
(88,1024,o),
(96,1045,qs),
(119,1102,o),
(162,1140,qs),
(205,1179,o),
(267,1198,qs),
(328,1218,o),
(404,1218,qs),
(624,1218,ls),
(672,1218,o),
(712,1201,qs),
(726,1195,o),
(739,1187,qs),
(761,1173,o),
(779,1154,qs),
(807,1124,o),
(822,1084,qs),
(837,1043,o),
(837,996,qs),
(837,951,o),
(818,916,qs),
(799,880,o),
(768,856,q),
(738,831,o),
(698,818,qs),
(658,805,o),
(617,805,qs)
);
},
{
closed = 1;
nodes = (
(414,1152,l),
(414,988,ls),
(414,944,o),
(479,876,o),
(521,870,qs),
(528,869,o),
(538,869,qs),
(595,869,ls),
(629,869,o),
(658,875,qs),
(665,877,o),
(672,879,qs),
(700,887,o),
(722,903,qs),
(743,918,o),
(757,942,qs),
(771,965,o),
(771,996,qs),
(771,1030,o),
(761,1058,qs),
(750,1087,o),
(731,1108,qs),
(712,1129,o),
(685,1140,qs),
(674,1145,o),
(662,1148,qs),
(644,1152,o),
(624,1152,qs)
);
}
);
width = 863;
}
);
unicode = 4654;
},
{
glyphname = uni122F;
layers = (
{
layerId = "F770CFF7-FFB9-4382-B2D4-F3546B3D0D49";
shapes = (
{
closed = 1;
nodes = (
(1070,1196,l),
(1070,1210,o),
(1059,1220,qs),
(1049,1230,o),
(1035,1230,q),
(234,1231,l),
(220,1231,o),
(209,1221,qs),
(199,1211,o),
(199,1197,q),
(199,1196,l),
(199,1182,o),
(209,1171,q),
(220,1161,o),
(234,1161,q),
(600,1160,l),
(594,1127,o),
(577,1093,qs),
(552,1041,o),
(510,988,qs),
(469,935,o),
(415,879,qs),
(362,824,o),
(306,768,qs),
(250,712,o),
(196,655,qs),
(142,597,o),
(100,540,qs),
(57,483,o),
(30,426,qs),
(2,369,o),
(0,313,qs),
(-3,248,o),
(15,191,qs),
(33,134,o),
(67,91,qs),
(100,49,o),
(149,25,qs),
(197,0,o),
(255,0,qs),
(290,0,o),
(327,9,q),
(417,35,o),
(482,75,qs),
(547,114,o),
(587,160,qs),
(628,206,o),
(647,255,qs),
(665,303,o),
(665,347,qs),
(665,361,o),
(664,374,q),
(969,374,ls),
(983,374,o),
(994,384,q),
(1004,395,o),
(1004,409,q),
(1004,410,l),
(1004,424,o),
(994,434,qs),
(983,444,o),
(969,444,qs),
(614,444,ls),
(595,444,o),
(585,426,q),
(585,426,o),
(584,425,q),
(578,412,o),
(584,399,qs),
(588,390,o),
(592,377,q),
(595,363,o),
(595,347,qs),
(595,313,o),
(580,279,qs),
(564,244,o),
(538,213,qs),
(512,183,o),
(478,157,qs),
(444,130,o),
(407,111,qs),
(370,91,o),
(332,80,qs),
(294,69,o),
(261,69,qs),
(215,69,o),
(179,89,qs),
(143,108,o),
(117,141,qs),
(92,174,o),
(80,218,qs),
(68,262,o),
(70,311,qs),
(72,360,o),
(100,411,qs),
(127,463,o),
(170,517,qs),
(212,571,o),
(266,626,qs),
(318,679,o),
(376,737,qs),
(433,795,o),
(485,851,qs),
(539,908,o),
(580,965,qs),
(622,1022,o),
(647,1079,qs),
(665,1120,o),
(670,1160,q),
(1035,1160,ls),
(1049,1160,o),
(1059,1170,qs),
(1070,1181,o),
(1070,1195,q)
);
}
);
width = 1097;
}
);
unicode = 4655;
},
{
glyphname = uni1230;
layers = (
{
layerId = "F770CFF7-FFB9-4382-B2D4-F3546B3D0D49";
shapes = (
{
closed = 1;
nodes = (
(709,734,ls),
(709,811,o),
(684,858,qs),
(658,904,o),
(614,930,qs),
(571,954,o),
(513,961,q),
(512,961,o),
(511,962,q),
(490,964,o),
(470,965,q),
(470,967,l),
(501,1363,l),
(503,1377,o),
(493,1388,qs),
(483,1400,o),
(469,1401,q),
(468,1401,l),
(454,1403,o),
(443,1394,qs),
(432,1384,o),
(430,1370,q),
(398,966,l),
(398,957,l),
(363,949,o),
(332,937,qs),
(312,929,o),
(294,920,qs),
(200,871,o),
(140,770,qs),
(79,670,o),
(51,517,qs),
(38,445,o),
(24,152,o),
(25,35,q),
(25,18,o),
(36,9,qs),
(47,0,o),
(60,0,qs),
(74,0,o),
(85,9,qs),
(96,18,o),
(95,36,q),
(94,151,o),
(106,437,o),
(117,504,qs),
(141,646,o),
(192,733,qs),
(243,821,o),
(322,860,qs),
(355,876,o),
(392,885,qs),
(407,889,o),
(422,891,q),
(442,895,o),
(464,894,q),
(464,894,o),
(464,894,q),
(486,892,o),
(504,890,q),
(552,882,o),
(582,862,q),
(612,840,o),
(626,803,q),
(639,765,o),
(639,703,qs),
(639,35,ls),
(639,21,o),
(649,10,qs),
(659,0,o),
(674,0,qs),
(688,0,o),
(699,10,q),
(709,21,o),
(709,35,qs)
);
}
);
width = 747;
}
);
unicode = 4656;
},
{
glyphname = uni1231;
layers = (
{
layerId = "F770CFF7-FFB9-4382-B2D4-F3546B3D0D49";
shapes = (
{
closed = 1;
nodes = (
(1157,505,l),
(1157,519,o),
(1147,529,qs),
(1136,539,o),
(1122,539,qs),
(725,539,l),
(725,734,ls),
(725,811,o),
(700,858,qs),
(674,904,o),
(630,930,qs),
(587,954,o),
(529,961,q),
(528,961,o),
(527,962,q),
(506,964,o),
(486,965,q),
(486,967,l),
(517,1363,l),
(519,1377,o),
(509,1388,qs),
(499,1400,o),
(485,1401,q),
(484,1401,l),
(470,1403,o),
(459,1394,qs),
(448,1384,o),
(446,1370,q),
(414,966,l),
(414,957,l),
(379,949,o),
(348,937,qs),
(328,929,o),
(310,920,qs),
(216,871,o),
(156,770,qs),
(95,670,o),
(67,517,qs),
(54,445,o),
(40,152,o),
(41,35,q),
(41,18,o),
(52,9,qs),
(63,0,o),
(76,0,qs),
(90,0,o),
(101,9,qs),
(112,18,o),
(111,36,q),
(110,151,o),
(122,437,o),
(133,504,qs),
(157,646,o),
(208,733,qs),
(259,821,o),
(338,860,qs),
(371,876,o),
(408,885,qs),
(422,889,o),
(438,891,q),
(458,895,o),
(480,894,q),
(480,894,l),
(502,892,o),
(520,890,q),
(568,882,o),
(598,862,q),
(628,840,o),
(642,803,q),
(655,765,o),
(655,703,qs),
(655,35,ls),
(655,21,o),
(665,10,qs),
(675,0,o),
(690,0,qs),
(704,0,o),
(715,10,q),
(725,21,o),
(725,35,qs),
(725,468,l),
(1122,469,l),
(1136,469,o),
(1147,479,qs),
(1157,489,o),
(1157,504,q)
);
}
);
width = 1205;
}
);
unicode = 4657;
},
{
glyphname = uni1232;
layers = (
{
layerId = "F770CFF7-FFB9-4382-B2D4-F3546B3D0D49";
shapes = (
{
closed = 1;
nodes = (
(1172,37,l),
(1172,51,o),
(1162,61,qs),
(1151,71,o),
(1137,71,qs),
(740,71,l),
(740,734,ls),
(740,811,o),
(715,858,qs),
(689,904,o),
(645,930,qs),
(602,954,o),
(544,961,q),
(543,961,o),
(542,962,q),
(521,964,o),
(501,965,q),
(501,967,l),
(532,1363,l),
(534,1377,o),
(524,1388,qs),
(514,1400,o),
(500,1401,q),
(499,1401,l),
(485,1403,o),
(474,1394,qs),
(463,1384,o),
(461,1370,q),
(429,966,l),
(429,957,l),
(394,949,o),
(363,937,qs),
(343,929,o),
(325,920,qs),
(231,871,o),
(171,770,qs),
(110,670,o),
(82,517,qs),
(69,445,o),
(55,152,o),
(56,35,q),
(56,18,o),
(67,9,qs),
(78,0,o),
(91,0,qs),
(105,0,o),
(116,9,qs),
(127,18,o),
(126,36,q),
(125,151,o),
(137,437,o),
(148,504,qs),
(172,646,o),
(223,733,qs),
(274,821,o),
(353,860,qs),
(386,876,o),
(423,885,qs),
(438,889,o),
(453,891,q),
(473,895,o),
(495,894,q),
(495,894,l),
(517,892,o),
(535,890,q),
(583,882,o),
(613,862,q),
(643,840,o),
(657,803,q),
(670,765,o),
(670,703,qs),
(670,35,ls),
(670,21,o),
(680,10,qs),
(689,1,o),
(701,0,q),
(709,0,l),
(1137,1,l),
(1151,1,o),
(1162,11,qs),
(1172,21,o),
(1172,36,q)
);
}
);
width = 1202;
}
);
unicode = 4658;
},
